<svg id="svg" xmlns="http://www.w3.org/2000/svg" xmlns:xlink="http://www.w3.org/1999/xlink" width="400" height="293.0693069306931" viewBox="0, 0, 400,293.0693069306931"><g id="svgg"><path id="path0" d="M340.589 1.979 C 340.863 4.680,342.120 10.666,342.622 11.656 C 343.369 13.130,344.256 18.047,344.885 24.194 C 345.298 28.225,345.505 29.229,346.479 31.929 C 347.529 34.836,348.007 37.198,348.527 42.049 C 349.003 46.485,349.815 50.396,350.877 53.372 C 351.519 55.173,352.458 61.057,353.064 67.078 C 353.239 68.826,353.598 70.387,354.073 71.477 C 355.062 73.744,356.305 79.032,356.306 80.978 C 356.308 83.902,357.667 91.082,358.702 93.647 C 359.300 95.127,359.778 97.839,360.571 104.252 C 361.036 108.017,361.562 110.507,362.737 114.516 C 363.734 117.917,364.171 120.238,364.363 123.142 C 364.616 126.981,365.558 131.442,366.684 134.136 C 366.948 134.766,367.553 138.065,368.030 141.467 C 369.426 151.427,369.525 151.990,370.114 153.336 C 370.422 154.042,370.676 154.834,370.678 155.096 C 370.680 155.358,370.957 156.430,371.293 157.478 C 371.650 158.590,372.015 160.850,372.170 162.903 C 372.471 166.876,373.521 172.059,374.635 175.073 C 375.154 176.475,375.549 178.813,376.545 186.364 C 376.946 189.408,377.516 192.189,378.169 194.282 C 379.608 198.893,380.059 200.817,380.059 202.342 C 380.059 205.710,381.226 212.079,382.559 215.982 C 382.945 217.111,383.534 220.081,383.868 222.581 C 384.776 229.385,385.014 230.720,385.775 233.284 C 387.052 237.589,387.977 241.852,387.978 243.442 C 387.980 246.364,389.338 253.545,390.373 256.108 C 390.944 257.522,391.163 258.756,392.525 268.247 C 392.924 271.024,393.506 274.059,393.819 274.991 C 394.851 278.064,395.871 283.080,396.223 286.804 C 396.413 288.820,396.628 291.096,396.700 291.862 L 396.831 293.255 398.415 293.255 L 400.000 293.255 400.000 146.628 L 400.000 0.000 370.194 -0.000 L 340.388 -0.000 340.589 1.979 M213.930 24.411 C 212.224 24.740,211.380 25.103,210.574 25.853 C 210.256 26.150,209.879 26.393,209.737 26.393 C 208.995 26.393,205.537 28.435,204.304 29.601 C 203.526 30.337,202.767 30.982,202.618 31.036 C 202.468 31.090,202.346 31.298,202.346 31.498 C 202.346 31.699,202.016 32.173,201.613 32.551 C 201.210 32.930,200.880 33.392,200.880 33.578 C 200.880 33.763,200.543 34.232,200.131 34.618 C 195.743 38.741,195.800 54.312,200.223 59.349 C 200.724 59.920,201.469 60.953,201.877 61.645 C 202.309 62.378,203.204 63.269,204.022 63.780 C 204.794 64.262,205.712 64.995,206.063 65.408 C 208.143 67.863,217.378 70.120,222.287 69.374 C 224.632 69.018,228.355 67.948,229.703 67.243 C 230.153 67.008,230.814 66.661,231.172 66.472 C 231.529 66.284,232.527 65.436,233.389 64.589 C 234.251 63.743,235.117 63.050,235.312 63.050 C 235.733 63.050,237.085 61.643,237.326 60.954 C 237.419 60.688,238.131 59.567,238.909 58.461 C 239.687 57.356,240.561 55.937,240.852 55.309 C 242.582 51.570,242.121 39.397,240.158 36.950 C 239.835 36.547,239.079 35.439,238.480 34.488 C 237.881 33.536,236.990 32.349,236.502 31.848 C 234.224 29.515,232.260 27.859,231.770 27.858 C 231.298 27.857,230.775 27.584,228.704 26.257 C 228.444 26.090,227.903 25.720,227.503 25.435 C 225.694 24.148,218.215 23.583,213.930 24.411 M223.350 70.894 C 223.268 71.177,223.112 72.034,223.004 72.801 C 222.896 73.567,222.676 74.194,222.516 74.194 C 222.356 74.194,221.818 74.537,221.320 74.956 C 220.037 76.035,215.249 74.396,215.249 72.877 C 215.249 71.520,212.800 70.945,210.918 71.861 C 210.155 72.232,209.201 72.678,208.798 72.851 C 208.394 73.025,207.367 73.728,206.514 74.413 C 205.660 75.099,204.698 75.660,204.375 75.660 C 204.051 75.660,203.034 76.385,202.113 77.271 C 201.193 78.157,200.237 78.883,199.989 78.884 C 199.741 78.885,198.673 79.644,197.616 80.572 C 194.827 83.018,194.149 83.578,193.973 83.578 C 193.887 83.578,193.073 84.304,192.164 85.191 C 191.256 86.078,190.338 86.804,190.124 86.804 C 189.911 86.804,189.736 86.904,189.736 87.028 C 189.736 87.151,189.204 87.580,188.554 87.981 C 187.904 88.382,187.045 89.203,186.646 89.807 C 186.246 90.410,185.403 91.246,184.772 91.663 C 184.141 92.080,183.272 92.931,182.841 93.554 C 182.409 94.177,181.470 95.143,180.753 95.701 C 180.037 96.259,179.052 97.266,178.566 97.937 C 178.079 98.609,177.259 99.409,176.744 99.716 C 176.228 100.023,175.345 100.867,174.780 101.592 C 174.216 102.317,173.652 102.915,173.527 102.921 C 173.134 102.941,171.059 104.405,169.843 105.522 C 169.198 106.114,168.165 106.862,167.547 107.184 C 166.928 107.507,165.759 108.303,164.948 108.954 C 162.546 110.884,158.619 111.856,151.906 112.183 C 148.379 112.355,147.748 112.469,146.127 113.226 C 145.125 113.694,144.169 114.076,144.000 114.076 C 143.832 114.076,143.692 114.175,143.688 114.296 C 143.685 114.417,143.023 114.978,142.217 115.543 C 139.691 117.312,138.862 118.965,138.837 122.287 C 138.809 125.855,138.874 125.590,137.709 126.826 L 136.708 127.888 132.943 128.181 C 130.120 128.401,128.899 128.625,128.060 129.076 C 126.704 129.805,123.399 130.654,119.671 131.230 C 116.980 131.647,116.511 131.866,114.961 133.438 C 114.522 133.882,113.158 134.604,112.755 134.604 C 112.326 134.604,110.895 135.291,109.543 136.147 C 109.226 136.347,108.722 136.807,108.422 137.170 C 108.121 137.533,107.752 137.830,107.601 137.830 C 107.450 137.830,106.780 138.226,106.112 138.710 C 105.444 139.194,104.752 139.590,104.575 139.591 C 104.397 139.592,103.616 140.252,102.839 141.057 C 102.062 141.863,101.280 142.522,101.102 142.522 C 100.637 142.522,95.941 147.425,95.018 148.874 C 94.591 149.544,93.645 150.666,92.915 151.366 C 92.130 152.119,91.383 153.199,91.087 154.009 C 90.811 154.763,90.394 155.538,90.161 155.731 C 89.927 155.925,89.736 156.193,89.736 156.326 C 89.736 156.459,89.407 156.923,89.005 157.357 C 88.191 158.235,86.951 160.697,86.651 162.033 C 86.465 162.860,85.923 164.141,85.354 165.103 C 83.792 167.738,82.726 172.793,82.707 177.655 C 82.702 178.994,82.485 181.026,82.225 182.170 C 81.832 183.897,81.808 184.604,82.082 186.333 C 82.264 187.479,82.543 190.264,82.702 192.522 C 83.192 199.465,83.711 201.786,85.357 204.399 C 85.883 205.233,86.455 206.602,86.828 207.918 C 87.034 208.644,87.293 209.370,87.405 209.531 C 87.516 209.692,87.764 210.313,87.957 210.911 C 88.149 211.508,88.626 212.300,89.016 212.670 C 89.407 213.040,89.728 213.445,89.731 213.569 C 89.734 213.693,90.066 214.317,90.469 214.956 C 90.872 215.595,91.202 216.306,91.202 216.537 C 91.202 216.768,91.847 217.595,92.634 218.376 C 93.422 219.156,94.277 220.212,94.535 220.722 C 95.017 221.677,99.944 226.979,100.348 226.979 C 100.473 226.979,101.110 227.561,101.765 228.271 C 102.420 228.982,103.445 229.795,104.044 230.078 C 104.642 230.362,105.922 231.232,106.887 232.012 C 107.853 232.793,108.828 233.431,109.054 233.431 C 109.281 233.431,110.082 233.810,110.834 234.273 C 111.587 234.736,112.480 235.203,112.819 235.310 C 113.158 235.418,113.507 235.692,113.594 235.919 C 113.848 236.582,116.856 237.852,118.844 238.137 C 119.851 238.281,122.388 239.001,124.482 239.737 C 130.834 241.969,146.624 242.457,150.733 240.548 C 153.392 239.314,155.923 238.443,157.681 238.160 C 159.543 237.861,162.440 236.659,163.038 235.938 C 163.426 235.470,167.541 233.432,168.105 233.429 C 168.309 233.427,169.183 232.763,170.048 231.952 C 170.914 231.141,172.036 230.303,172.541 230.089 C 173.047 229.876,174.070 229.055,174.816 228.267 C 175.561 227.478,176.716 226.445,177.382 225.970 C 178.048 225.496,178.594 224.968,178.595 224.797 C 178.598 224.419,180.583 222.287,180.932 222.287 C 181.069 222.287,181.677 221.595,182.282 220.748 C 182.887 219.901,183.881 218.680,184.490 218.035 C 185.098 217.390,186.004 216.004,186.502 214.956 C 187.670 212.497,188.049 211.856,188.824 211.031 C 189.238 210.591,189.768 209.133,190.338 206.863 C 191.510 202.206,191.396 202.493,192.581 201.246 C 193.615 200.160,195.054 197.399,195.732 195.204 L 196.081 194.073 196.757 197.057 C 197.385 199.823,197.419 200.440,197.234 205.519 C 196.270 231.978,197.002 239.731,200.735 242.549 C 201.621 243.218,202.346 243.869,202.346 243.995 C 202.346 244.535,204.490 245.418,206.263 245.607 C 209.752 245.981,212.143 245.123,213.931 242.855 C 214.575 242.038,215.307 241.298,215.557 241.211 C 215.808 241.124,216.846 240.262,217.866 239.295 C 218.885 238.328,219.823 237.537,219.951 237.537 C 220.178 237.537,221.408 239.857,221.408 240.286 C 221.408 240.680,223.577 243.109,223.929 243.109 C 224.118 243.109,224.489 243.438,224.753 243.842 C 225.017 244.245,225.428 244.575,225.667 244.575 C 225.905 244.575,226.100 244.694,226.100 244.839 C 226.100 245.941,231.535 246.075,233.789 245.030 C 235.919 244.041,238.234 241.587,239.187 239.306 C 239.421 238.748,239.745 238.208,239.908 238.107 C 241.535 237.102,241.655 205.194,240.038 203.577 C 239.321 202.860,236.169 202.307,232.177 202.199 C 226.959 202.058,226.456 201.834,225.883 199.398 C 225.484 197.703,224.885 196.855,223.988 196.717 C 223.413 196.629,223.404 196.339,223.329 175.660 C 223.287 164.128,223.155 154.214,223.036 153.630 C 222.821 152.582,222.840 152.555,224.402 151.662 C 225.272 151.163,226.410 150.289,226.929 149.718 C 228.575 147.910,229.940 148.523,230.378 151.268 C 230.602 152.671,228.683 155.155,227.060 155.562 C 225.508 155.952,225.182 156.604,225.481 158.715 C 225.676 160.095,225.641 161.270,225.356 162.911 C 224.835 165.910,224.679 192.457,225.179 193.059 C 225.358 193.275,226.012 193.619,226.632 193.824 C 227.422 194.084,227.924 194.503,228.312 195.224 C 228.617 195.790,229.423 196.709,230.103 197.266 L 231.340 198.280 259.376 198.251 L 287.412 198.221 288.820 197.355 C 290.991 196.019,290.964 196.306,290.975 174.439 L 290.985 155.687 290.320 154.017 C 289.302 151.460,288.846 151.320,281.589 151.320 C 277.495 151.320,275.440 151.207,274.879 150.953 C 273.895 150.507,272.163 148.700,272.139 148.094 C 272.114 147.447,271.497 146.742,270.747 146.504 C 270.365 146.383,270.011 145.966,269.902 145.508 C 269.798 145.076,269.590 144.564,269.438 144.371 C 269.287 144.178,268.990 143.320,268.779 142.465 C 268.568 141.609,267.998 139.391,267.513 137.537 C 266.510 133.703,266.131 131.600,265.688 127.419 C 265.517 125.806,265.120 123.497,264.805 122.287 C 264.490 121.078,264.231 119.851,264.228 119.561 C 264.225 119.271,263.964 118.497,263.647 117.841 C 263.095 116.698,261.896 112.487,261.156 109.091 C 260.963 108.204,260.188 106.338,259.435 104.946 C 258.681 103.553,258.062 102.167,258.059 101.866 C 258.051 101.066,256.124 96.995,255.557 96.580 C 255.290 96.385,254.563 95.220,253.943 93.993 C 253.231 92.585,252.388 91.413,251.660 90.821 C 251.026 90.305,250.294 89.421,250.034 88.856 C 249.153 86.946,241.710 79.859,239.661 78.981 C 239.218 78.791,238.070 77.966,237.109 77.148 C 236.149 76.329,235.117 75.660,234.817 75.660 C 234.517 75.660,233.839 75.330,233.311 74.927 C 232.782 74.523,232.212 74.194,232.044 74.194 C 231.876 74.194,230.919 73.646,229.917 72.977 C 228.898 72.297,227.509 71.652,226.764 71.512 C 226.032 71.376,225.034 71.065,224.548 70.822 C 223.461 70.280,223.531 70.276,223.350 70.894 M220.656 86.365 C 221.357 87.285,221.469 87.770,221.715 90.984 C 221.866 92.959,222.123 95.630,222.286 96.921 C 222.449 98.211,222.708 100.596,222.863 102.221 C 223.039 104.078,223.380 105.711,223.780 106.620 C 224.941 109.253,225.025 114.229,223.927 115.327 C 223.712 115.542,223.302 116.173,223.015 116.730 C 221.359 119.947,220.033 120.717,218.245 119.501 C 217.651 119.098,217.023 118.768,216.849 118.768 C 216.095 118.768,214.967 117.056,214.434 115.103 C 213.791 112.746,214.191 108.190,215.723 100.440 C 216.770 95.145,217.220 92.532,217.453 90.395 C 217.563 89.387,217.772 88.488,217.917 88.399 C 218.063 88.309,218.182 87.993,218.182 87.696 C 218.182 87.290,219.542 85.337,219.825 85.337 C 219.851 85.337,220.225 85.800,220.656 86.365 M194.616 113.696 C 195.726 115.092,195.747 115.389,195.774 129.912 C 195.798 143.450,195.829 144.234,196.413 146.188 C 197.328 149.251,197.525 171.845,196.654 173.853 L 196.103 175.126 195.265 173.781 C 194.805 173.041,194.428 172.235,194.428 171.989 C 194.428 171.304,192.732 168.281,192.098 167.838 C 191.484 167.407,190.809 165.396,190.033 161.690 C 189.620 159.719,189.327 159.056,188.347 157.878 C 187.694 157.093,186.792 155.660,186.341 154.692 C 185.890 153.724,184.900 152.273,184.140 151.466 C 183.381 150.660,182.468 149.439,182.113 148.754 C 181.757 148.068,181.380 147.507,181.275 147.507 C 181.171 147.506,180.623 147.111,180.059 146.628 C 179.494 146.144,178.933 145.749,178.812 145.748 C 178.691 145.748,178.592 145.563,178.592 145.337 C 178.592 144.874,176.635 142.815,176.195 142.815 C 176.038 142.815,175.161 142.113,174.245 141.254 C 173.330 140.396,171.921 139.309,171.114 138.839 C 170.308 138.369,169.427 137.850,169.157 137.687 C 168.887 137.524,167.949 136.763,167.073 135.997 C 166.196 135.231,165.255 134.604,164.982 134.604 C 164.708 134.604,164.064 134.211,163.549 133.730 C 162.186 132.456,162.526 132.172,167.889 130.098 C 169.102 129.629,170.674 128.661,170.674 128.383 C 170.674 128.256,170.931 128.152,171.245 128.152 C 171.560 128.152,172.437 127.823,173.195 127.419 C 173.954 127.016,174.695 126.686,174.843 126.686 C 175.159 126.686,176.896 125.445,178.152 124.321 C 178.636 123.889,179.399 123.449,179.848 123.343 C 180.296 123.238,181.352 122.479,182.194 121.657 C 183.036 120.835,184.384 119.720,185.191 119.181 C 185.997 118.641,187.911 117.005,189.443 115.545 C 192.430 112.698,193.515 112.311,194.616 113.696 M244.502 119.190 C 244.865 120.228,245.161 121.385,245.161 121.760 C 245.161 122.362,245.429 122.968,246.754 125.367 C 246.932 125.689,247.310 126.298,247.594 126.720 C 249.028 128.852,250.016 141.385,248.932 143.695 C 248.667 144.260,248.374 144.952,248.281 145.235 C 248.188 145.517,247.920 145.748,247.684 145.748 C 247.449 145.748,246.923 146.454,246.515 147.317 C 245.227 150.038,244.265 150.830,242.444 150.669 C 240.700 150.515,236.509 148.691,237.884 148.684 C 241.560 148.666,242.216 147.074,242.008 138.670 C 241.768 128.936,242.668 117.302,243.661 117.302 C 243.762 117.302,244.140 118.152,244.502 119.190 M143.851 135.931 C 145.899 136.339,147.811 136.799,148.100 136.953 C 148.389 137.108,150.659 137.749,153.145 138.378 C 157.099 139.378,157.911 139.689,159.623 140.861 C 160.700 141.599,162.077 142.284,162.682 142.384 C 164.665 142.712,167.449 144.463,167.449 145.381 C 167.449 145.692,168.980 146.240,170.528 146.483 C 172.083 146.727,173.900 147.511,173.900 147.938 C 173.900 148.524,175.761 150.733,176.254 150.733 C 177.429 150.733,178.343 152.328,178.550 154.741 C 178.749 157.048,179.140 157.952,180.702 159.706 C 181.166 160.227,182.644 163.846,183.205 165.836 C 183.296 166.158,183.747 166.943,184.207 167.580 C 184.668 168.216,185.044 168.953,185.044 169.217 C 185.044 169.481,185.134 169.787,185.245 169.898 C 185.830 170.483,186.252 172.735,186.490 176.554 C 186.637 178.901,186.966 181.626,187.221 182.610 C 187.654 184.283,187.646 184.652,187.099 188.314 C 186.777 190.467,186.513 193.190,186.512 194.365 C 186.510 196.905,185.338 200.901,184.246 202.089 C 183.578 202.815,181.820 207.619,181.817 208.724 C 181.816 209.007,181.357 209.737,180.796 210.347 C 180.236 210.958,179.322 212.053,178.766 212.781 C 175.389 217.204,174.276 215.658,174.166 206.389 L 174.090 200.081 174.889 198.719 C 175.328 197.969,176.011 197.144,176.407 196.885 C 176.802 196.626,177.128 196.264,177.131 196.081 C 177.134 195.898,177.464 195.437,177.864 195.057 C 178.265 194.677,178.592 194.240,178.592 194.085 C 178.592 193.929,178.922 193.370,179.326 192.841 C 179.729 192.313,180.059 191.802,180.059 191.707 C 180.059 191.612,180.477 190.861,180.989 190.038 L 181.920 188.541 181.942 184.080 C 181.964 179.688,181.549 177.713,180.602 177.713 C 180.486 177.713,180.308 177.451,180.207 177.130 C 180.105 176.810,179.769 176.249,179.459 175.884 C 179.150 175.519,178.323 174.428,177.622 173.460 C 176.725 172.222,175.605 171.198,173.838 170.002 C 170.287 167.597,169.923 165.706,172.434 162.701 L 173.900 160.946 173.896 158.699 C 173.891 156.141,173.900 156.162,172.197 155.006 C 171.503 154.535,170.647 153.745,170.295 153.252 C 169.076 151.539,168.633 151.273,166.516 150.980 C 159.713 150.037,155.685 158.640,160.617 163.577 C 161.519 164.480,161.583 164.675,161.578 166.510 L 161.572 168.475 160.087 169.355 C 159.270 169.839,158.425 170.399,158.209 170.600 C 156.384 172.296,150.147 170.856,150.147 168.739 C 150.147 168.340,148.419 167.055,146.811 166.258 C 146.025 165.868,145.319 165.383,145.240 165.179 C 145.162 164.976,144.866 164.809,144.582 164.809 C 144.212 164.809,144.013 164.496,143.883 163.710 C 143.466 161.188,143.593 160.778,145.308 159.104 C 146.195 158.237,146.921 157.466,146.921 157.388 C 146.921 157.311,147.132 156.227,147.390 154.979 C 149.062 146.892,142.852 141.347,134.782 143.722 C 132.756 144.318,131.999 144.895,130.938 146.651 C 130.777 146.918,130.393 147.493,130.084 147.930 C 127.959 150.936,128.755 156.494,131.799 159.897 C 133.413 161.702,132.151 165.311,129.472 166.557 C 128.329 167.088,127.682 167.630,126.023 169.448 C 125.578 169.936,124.588 170.553,123.824 170.819 C 123.059 171.085,122.104 171.468,121.701 171.672 C 120.996 172.027,118.583 170.886,118.231 170.032 C 118.177 169.901,117.971 169.795,117.773 169.795 C 117.574 169.795,116.860 169.528,116.184 169.201 L 114.956 168.608 114.956 166.516 C 114.956 164.284,115.075 164.032,117.272 161.604 C 118.167 160.615,118.469 158.816,118.187 156.158 C 118.100 155.337,116.299 153.210,114.693 152.032 C 112.160 150.173,107.038 151.010,107.038 153.283 C 107.038 153.494,106.906 153.666,106.746 153.666 C 106.274 153.666,103.700 155.625,103.292 156.294 C 102.518 157.563,103.365 162.066,104.741 163.999 C 106.647 166.675,105.807 168.746,102.094 170.531 C 100.506 171.294,100.015 171.704,99.434 172.757 C 99.042 173.466,98.128 174.637,97.404 175.357 C 95.981 176.772,95.818 177.237,95.266 181.471 C 94.962 183.795,95.050 185.330,95.809 190.985 C 95.894 191.623,96.291 192.445,96.752 192.938 C 97.190 193.407,98.392 194.758,99.423 195.942 C 100.454 197.125,101.534 198.330,101.822 198.618 C 102.110 198.907,102.348 199.303,102.351 199.498 C 102.354 199.694,102.401 202.163,102.455 204.985 C 102.567 210.877,102.377 213.098,101.668 214.180 L 101.166 214.946 100.397 214.291 C 99.975 213.931,99.458 213.471,99.249 213.270 C 99.040 213.068,98.760 212.900,98.628 212.895 C 97.759 212.867,96.073 210.611,95.165 208.263 C 94.624 206.863,93.897 205.399,93.549 205.009 C 92.863 204.238,91.202 199.617,91.202 198.477 C 91.202 198.090,90.920 196.526,90.575 195.001 C 90.230 193.476,89.848 191.635,89.726 190.909 C 89.603 190.183,89.275 188.468,88.997 187.097 C 88.440 184.351,88.401 184.657,90.474 175.367 C 90.852 173.673,91.314 171.433,91.500 170.388 C 91.687 169.344,92.092 167.966,92.401 167.327 C 92.709 166.688,92.962 166.010,92.962 165.820 C 92.962 165.630,93.231 165.133,93.560 164.715 C 94.579 163.419,95.308 160.805,95.308 158.445 C 95.308 156.054,95.393 155.912,97.908 154.123 C 98.575 153.648,99.120 153.066,99.120 152.829 C 99.120 152.328,100.815 150.733,101.347 150.733 C 101.547 150.733,102.213 150.040,102.828 149.194 C 104.263 147.218,104.343 147.162,106.924 146.343 C 108.119 145.965,109.260 145.456,109.460 145.213 C 110.319 144.170,112.720 142.522,113.382 142.522 C 114.300 142.522,117.601 140.975,118.194 140.267 C 118.759 139.591,121.029 138.878,124.633 138.245 C 126.166 137.976,127.885 137.521,128.455 137.233 C 129.365 136.774,132.030 136.184,136.364 135.483 C 138.732 135.099,140.073 135.180,143.851 135.931 M252.972 147.524 C 255.400 148.565,255.586 149.300,253.672 150.290 C 251.311 151.511,248.423 149.231,250.147 147.507 C 250.881 146.772,251.223 146.775,252.972 147.524 M268.915 148.207 C 268.915 149.809,263.540 150.730,262.754 149.263 C 262.398 148.597,262.427 148.578,264.728 147.945 C 267.194 147.267,268.915 147.374,268.915 148.207 M142.201 175.694 C 142.388 176.310,142.522 179.233,142.522 182.675 L 142.522 188.595 141.653 189.524 L 140.785 190.454 139.894 189.600 L 139.003 188.747 139.003 181.922 L 139.003 175.097 139.783 174.374 C 140.756 173.472,141.683 173.978,142.201 175.694 M169.862 179.032 C 170.366 180.005,170.493 180.908,170.607 184.311 L 170.745 188.416 169.691 189.370 C 168.399 190.538,168.356 190.539,167.367 189.413 C 165.874 187.711,166.222 179.336,167.864 177.477 C 168.550 176.699,168.722 176.833,169.862 179.032 M110.322 178.889 C 111.252 180.790,111.071 188.321,110.069 189.445 C 109.113 190.518,109.122 190.518,107.971 189.490 L 107.038 188.657 107.038 184.222 L 107.038 179.786 107.960 178.736 C 109.063 177.480,109.652 177.518,110.322 178.889 M125.073 197.698 C 125.880 198.026,126.802 198.372,127.122 198.467 C 127.442 198.561,128.018 198.929,128.401 199.284 L 129.098 199.930 129.115 214.738 L 129.133 229.545 128.114 230.593 C 125.849 232.925,121.941 232.443,119.066 229.477 L 118.055 228.433 118.143 213.997 C 118.241 198.106,118.145 198.943,120.086 197.003 C 120.902 196.187,121.596 196.284,125.073 197.698 M157.734 198.339 L 158.463 199.758 158.393 210.070 C 158.354 215.741,158.465 222.131,158.641 224.269 C 159.037 229.108,158.895 229.389,155.164 231.118 C 153.021 232.111,152.430 232.258,150.580 232.258 L 148.455 232.258 147.785 230.606 L 147.114 228.954 147.187 214.564 C 147.264 199.217,147.332 198.534,148.779 198.534 C 148.973 198.534,149.855 198.145,150.739 197.670 C 152.174 196.898,152.596 196.812,154.676 196.863 L 157.005 196.921 157.734 198.339 " stroke="none" fill="#ffffff" fill-rule="evenodd"></path><path id="path1" d="M0.000 146.628 L 0.000 293.255 198.415 293.255 L 396.831 293.255 396.700 291.862 C 396.628 291.096,396.413 288.820,396.223 286.804 C 395.871 283.080,394.851 278.064,393.819 274.991 C 393.506 274.059,392.924 271.024,392.525 268.247 C 391.163 258.756,390.944 257.522,390.373 256.108 C 389.338 253.545,387.980 246.364,387.978 243.442 C 387.977 241.852,387.052 237.589,385.775 233.284 C 385.014 230.720,384.776 229.385,383.868 222.581 C 383.534 220.081,382.945 217.111,382.559 215.982 C 381.226 212.079,380.059 205.710,380.059 202.342 C 380.059 200.817,379.608 198.893,378.169 194.282 C 377.516 192.189,376.946 189.408,376.545 186.364 C 375.549 178.813,375.154 176.475,374.635 175.073 C 373.521 172.059,372.471 166.876,372.170 162.903 C 372.015 160.850,371.650 158.590,371.293 157.478 C 370.957 156.430,370.680 155.358,370.678 155.096 C 370.676 154.834,370.422 154.042,370.114 153.336 C 369.525 151.990,369.426 151.427,368.030 141.467 C 367.553 138.065,366.948 134.766,366.684 134.136 C 365.558 131.442,364.616 126.981,364.363 123.142 C 364.171 120.238,363.734 117.917,362.737 114.516 C 361.562 110.507,361.036 108.017,360.571 104.252 C 359.778 97.839,359.300 95.127,358.702 93.647 C 357.667 91.082,356.308 83.902,356.306 80.978 C 356.305 79.032,355.062 73.744,354.073 71.477 C 353.598 70.387,353.239 68.826,353.064 67.078 C 352.458 61.057,351.519 55.173,350.877 53.372 C 349.815 50.396,349.003 46.485,348.527 42.049 C 348.007 37.198,347.529 34.836,346.479 31.929 C 345.505 29.229,345.298 28.225,344.885 24.194 C 344.256 18.047,343.369 13.130,342.622 11.656 C 342.120 10.666,340.863 4.680,340.589 1.979 L 340.388 0.000 170.194 0.000 L 0.000 0.000 0.000 146.628 M225.104 24.482 C 226.023 24.722,227.103 25.151,227.503 25.435 C 227.903 25.720,228.444 26.090,228.704 26.257 C 230.775 27.584,231.298 27.857,231.770 27.858 C 232.260 27.859,234.224 29.515,236.502 31.848 C 236.990 32.349,237.881 33.536,238.480 34.488 C 239.079 35.439,239.835 36.547,240.158 36.950 C 242.121 39.397,242.582 51.570,240.852 55.309 C 240.561 55.937,239.687 57.356,238.909 58.461 C 238.131 59.567,237.419 60.688,237.326 60.954 C 237.085 61.643,235.733 63.050,235.312 63.050 C 235.117 63.050,234.251 63.743,233.389 64.589 C 232.527 65.436,231.529 66.284,231.172 66.472 C 230.814 66.661,230.153 67.008,229.703 67.243 C 228.355 67.948,224.632 69.018,222.287 69.374 C 217.378 70.120,208.143 67.863,206.063 65.408 C 205.712 64.995,204.794 64.262,204.022 63.780 C 203.204 63.269,202.309 62.378,201.877 61.645 C 201.469 60.953,200.724 59.920,200.223 59.349 C 195.800 54.312,195.743 38.741,200.131 34.618 C 200.543 34.232,200.880 33.763,200.880 33.578 C 200.880 33.392,201.210 32.930,201.613 32.551 C 202.016 32.173,202.346 31.699,202.346 31.498 C 202.346 31.298,202.468 31.090,202.618 31.036 C 202.767 30.982,203.526 30.337,204.304 29.601 C 205.537 28.435,208.995 26.393,209.737 26.393 C 209.879 26.393,210.256 26.150,210.574 25.853 C 212.374 24.177,220.858 23.377,225.104 24.482 M224.548 70.822 C 225.034 71.065,226.032 71.376,226.764 71.512 C 227.509 71.652,228.898 72.297,229.917 72.977 C 230.919 73.646,231.876 74.194,232.044 74.194 C 232.212 74.194,232.782 74.523,233.311 74.927 C 233.839 75.330,234.517 75.660,234.817 75.660 C 235.117 75.660,236.149 76.329,237.109 77.148 C 238.070 77.966,239.218 78.791,239.661 78.981 C 241.710 79.859,249.153 86.946,250.034 88.856 C 250.294 89.421,251.026 90.305,251.660 90.821 C 252.388 91.413,253.231 92.585,253.943 93.993 C 254.563 95.220,255.290 96.385,255.557 96.580 C 256.124 96.995,258.051 101.066,258.059 101.866 C 258.062 102.167,258.681 103.553,259.435 104.946 C 260.188 106.338,260.963 108.204,261.156 109.091 C 261.896 112.487,263.095 116.698,263.647 117.841 C 263.964 118.497,264.225 119.271,264.228 119.561 C 264.231 119.851,264.490 121.078,264.805 122.287 C 265.120 123.497,265.517 125.806,265.688 127.419 C 266.131 131.600,266.510 133.703,267.513 137.537 C 267.998 139.391,268.568 141.609,268.779 142.465 C 268.990 143.320,269.287 144.178,269.438 144.371 C 269.590 144.564,269.798 145.076,269.902 145.508 C 270.011 145.966,270.365 146.383,270.747 146.504 C 271.497 146.742,272.114 147.447,272.139 148.094 C 272.163 148.700,273.895 150.507,274.879 150.953 C 275.440 151.207,277.495 151.320,281.589 151.320 C 288.846 151.320,289.302 151.460,290.320 154.017 L 290.985 155.687 290.975 174.439 C 290.964 196.306,290.991 196.019,288.820 197.355 L 287.412 198.221 259.376 198.251 L 231.340 198.280 230.103 197.266 C 229.423 196.709,228.617 195.790,228.312 195.224 C 227.924 194.503,227.422 194.084,226.632 193.824 C 226.012 193.619,225.358 193.275,225.179 193.059 C 224.679 192.457,224.835 165.910,225.356 162.911 C 225.641 161.270,225.676 160.095,225.481 158.715 C 225.182 156.604,225.508 155.952,227.060 155.562 C 228.683 155.155,230.602 152.671,230.378 151.268 C 229.940 148.523,228.575 147.910,226.929 149.718 C 226.410 150.289,225.272 151.163,224.402 151.662 C 222.840 152.555,222.821 152.582,223.036 153.630 C 223.155 154.214,223.287 164.128,223.329 175.660 C 223.404 196.339,223.413 196.629,223.988 196.717 C 224.885 196.855,225.484 197.703,225.883 199.398 C 226.456 201.834,226.959 202.058,232.177 202.199 C 236.169 202.307,239.321 202.860,240.038 203.577 C 241.655 205.194,241.535 237.102,239.908 238.107 C 239.745 238.208,239.421 238.748,239.187 239.306 C 238.234 241.587,235.919 244.041,233.789 245.030 C 231.535 246.075,226.100 245.941,226.100 244.839 C 226.100 244.694,225.905 244.575,225.667 244.575 C 225.428 244.575,225.017 244.245,224.753 243.842 C 224.489 243.438,224.118 243.109,223.929 243.109 C 223.577 243.109,221.408 240.680,221.408 240.286 C 221.408 239.857,220.178 237.537,219.951 237.537 C 219.823 237.537,218.885 238.328,217.866 239.295 C 216.846 240.262,215.808 241.124,215.557 241.211 C 215.307 241.298,214.575 242.038,213.931 242.855 C 212.143 245.123,209.752 245.981,206.263 245.607 C 204.490 245.418,202.346 244.535,202.346 243.995 C 202.346 243.869,201.621 243.218,200.735 242.549 C 197.002 239.731,196.270 231.978,197.234 205.519 C 197.419 200.440,197.385 199.823,196.757 197.057 L 196.081 194.073 195.732 195.204 C 195.054 197.399,193.615 200.160,192.581 201.246 C 191.396 202.493,191.510 202.206,190.338 206.863 C 189.768 209.133,189.238 210.591,188.824 211.031 C 188.049 211.856,187.670 212.497,186.502 214.956 C 186.004 216.004,185.098 217.390,184.490 218.035 C 183.881 218.680,182.887 219.901,182.282 220.748 C 181.677 221.595,181.069 222.287,180.932 222.287 C 180.583 222.287,178.598 224.419,178.595 224.797 C 178.594 224.968,178.048 225.496,177.382 225.970 C 176.716 226.445,175.561 227.478,174.816 228.267 C 174.070 229.055,173.047 229.876,172.541 230.089 C 172.036 230.303,170.914 231.141,170.048 231.952 C 169.183 232.763,168.309 233.427,168.105 233.429 C 167.541 233.432,163.426 235.470,163.038 235.938 C 162.440 236.659,159.543 237.861,157.681 238.160 C 155.923 238.443,153.392 239.314,150.733 240.548 C 146.624 242.457,130.834 241.969,124.482 239.737 C 122.388 239.001,119.851 238.281,118.844 238.137 C 116.856 237.852,113.848 236.582,113.594 235.919 C 113.507 235.692,113.158 235.418,112.819 235.310 C 112.480 235.203,111.587 234.736,110.834 234.273 C 110.082 233.810,109.281 233.431,109.054 233.431 C 108.828 233.431,107.853 232.793,106.887 232.012 C 105.922 231.232,104.642 230.362,104.044 230.078 C 103.445 229.795,102.420 228.982,101.765 228.271 C 101.110 227.561,100.473 226.979,100.348 226.979 C 99.944 226.979,95.017 221.677,94.535 220.722 C 94.277 220.212,93.422 219.156,92.634 218.376 C 91.847 217.595,91.202 216.768,91.202 216.537 C 91.202 216.306,90.872 215.595,90.469 214.956 C 90.066 214.317,89.734 213.693,89.731 213.569 C 89.728 213.445,89.407 213.040,89.016 212.670 C 88.626 212.300,88.149 211.508,87.957 210.911 C 87.764 210.313,87.516 209.692,87.405 209.531 C 87.293 209.370,87.034 208.644,86.828 207.918 C 86.455 206.602,85.883 205.233,85.357 204.399 C 83.711 201.786,83.192 199.465,82.702 192.522 C 82.543 190.264,82.264 187.479,82.082 186.333 C 81.808 184.604,81.832 183.897,82.225 182.170 C 82.485 181.026,82.702 178.994,82.707 177.655 C 82.726 172.793,83.792 167.738,85.354 165.103 C 85.923 164.141,86.465 162.860,86.651 162.033 C 86.951 160.697,88.191 158.235,89.005 157.357 C 89.407 156.923,89.736 156.459,89.736 156.326 C 89.736 156.193,89.927 155.925,90.161 155.731 C 90.394 155.538,90.811 154.763,91.087 154.009 C 91.383 153.199,92.130 152.119,92.915 151.366 C 93.645 150.666,94.591 149.544,95.018 148.874 C 95.941 147.425,100.637 142.522,101.102 142.522 C 101.280 142.522,102.062 141.863,102.839 141.057 C 103.616 140.252,104.397 139.592,104.575 139.591 C 104.752 139.590,105.444 139.194,106.112 138.710 C 106.780 138.226,107.450 137.830,107.601 137.830 C 107.752 137.830,108.121 137.533,108.422 137.170 C 108.722 136.807,109.226 136.347,109.543 136.147 C 110.895 135.291,112.326 134.604,112.755 134.604 C 113.158 134.604,114.522 133.882,114.961 133.438 C 116.511 131.866,116.980 131.647,119.671 131.230 C 123.399 130.654,126.704 129.805,128.060 129.076 C 128.899 128.625,130.120 128.401,132.943 128.181 L 136.708 127.888 137.709 126.826 C 138.874 125.590,138.809 125.855,138.837 122.287 C 138.862 118.965,139.691 117.312,142.217 115.543 C 143.023 114.978,143.685 114.417,143.688 114.296 C 143.692 114.175,143.832 114.076,144.000 114.076 C 144.169 114.076,145.125 113.694,146.127 113.226 C 147.748 112.469,148.379 112.355,151.906 112.183 C 158.619 111.856,162.546 110.884,164.948 108.954 C 165.759 108.303,166.928 107.507,167.547 107.184 C 168.165 106.862,169.198 106.114,169.843 105.522 C 171.059 104.405,173.134 102.941,173.527 102.921 C 173.652 102.915,174.216 102.317,174.780 101.592 C 175.345 100.867,176.228 100.023,176.744 99.716 C 177.259 99.409,178.079 98.609,178.566 97.937 C 179.052 97.266,180.037 96.259,180.753 95.701 C 181.470 95.143,182.409 94.177,182.841 93.554 C 183.272 92.931,184.141 92.080,184.772 91.663 C 185.403 91.246,186.246 90.410,186.646 89.807 C 187.045 89.203,187.904 88.382,188.554 87.981 C 189.204 87.580,189.736 87.151,189.736 87.028 C 189.736 86.904,189.911 86.804,190.124 86.804 C 190.338 86.804,191.256 86.078,192.164 85.191 C 193.073 84.304,193.887 83.578,193.973 83.578 C 194.149 83.578,194.827 83.018,197.616 80.572 C 198.673 79.644,199.741 78.885,199.989 78.884 C 200.237 78.883,201.193 78.157,202.113 77.271 C 203.034 76.385,204.051 75.660,204.375 75.660 C 204.698 75.660,205.660 75.099,206.514 74.413 C 207.367 73.728,208.394 73.025,208.798 72.851 C 209.201 72.678,210.155 72.232,210.918 71.861 C 212.800 70.945,215.249 71.520,215.249 72.877 C 215.249 74.396,220.037 76.035,221.320 74.956 C 221.818 74.537,222.356 74.194,222.516 74.194 C 222.676 74.194,222.896 73.567,223.004 72.801 C 223.208 71.355,223.441 70.381,223.582 70.381 C 223.627 70.381,224.062 70.580,224.548 70.822 M218.980 86.247 C 218.541 86.748,218.182 87.400,218.182 87.696 C 218.182 87.993,218.063 88.309,217.917 88.399 C 217.772 88.488,217.563 89.387,217.453 90.395 C 217.220 92.532,216.770 95.145,215.723 100.440 C 214.191 108.190,213.791 112.746,214.434 115.103 C 214.967 117.056,216.095 118.768,216.849 118.768 C 217.023 118.768,217.651 119.098,218.245 119.501 C 220.033 120.717,221.359 119.947,223.015 116.730 C 223.302 116.173,223.712 115.542,223.927 115.327 C 225.025 114.229,224.941 109.253,223.780 106.620 C 223.380 105.711,223.039 104.078,222.863 102.221 C 222.708 100.596,222.449 98.211,222.286 96.921 C 222.123 95.630,221.866 92.959,221.715 90.984 C 221.469 87.770,221.357 87.285,220.656 86.365 C 219.719 85.137,219.941 85.152,218.980 86.247 M189.443 115.545 C 187.911 117.005,185.997 118.641,185.191 119.181 C 184.384 119.720,183.036 120.835,182.194 121.657 C 181.352 122.479,180.296 123.238,179.848 123.343 C 179.399 123.449,178.636 123.889,178.152 124.321 C 176.896 125.445,175.159 126.686,174.843 126.686 C 174.695 126.686,173.954 127.016,173.195 127.419 C 172.437 127.823,171.560 128.152,171.245 128.152 C 170.931 128.152,170.674 128.256,170.674 128.383 C 170.674 128.661,169.102 129.629,167.889 130.098 C 162.526 132.172,162.186 132.456,163.549 133.730 C 164.064 134.211,164.708 134.604,164.982 134.604 C 165.255 134.604,166.196 135.231,167.073 135.997 C 167.949 136.763,168.887 137.524,169.157 137.687 C 169.427 137.850,170.308 138.369,171.114 138.839 C 171.921 139.309,173.330 140.396,174.245 141.254 C 175.161 142.113,176.038 142.815,176.195 142.815 C 176.635 142.815,178.592 144.874,178.592 145.337 C 178.592 145.563,178.691 145.748,178.812 145.748 C 178.933 145.749,179.494 146.144,180.059 146.628 C 180.623 147.111,181.171 147.506,181.275 147.507 C 181.380 147.507,181.757 148.068,182.113 148.754 C 182.468 149.439,183.381 150.660,184.140 151.466 C 184.900 152.273,185.890 153.724,186.341 154.692 C 186.792 155.660,187.694 157.093,188.347 157.878 C 189.327 159.056,189.620 159.719,190.033 161.690 C 190.809 165.396,191.484 167.407,192.098 167.838 C 192.732 168.281,194.428 171.304,194.428 171.989 C 194.428 172.235,194.805 173.041,195.265 173.781 L 196.103 175.126 196.654 173.853 C 197.525 171.845,197.328 149.251,196.413 146.188 C 195.829 144.234,195.798 143.450,195.774 129.912 C 195.755 119.390,195.655 115.498,195.391 114.956 C 194.013 112.121,192.923 112.229,189.443 115.545 M243.016 118.988 C 242.340 121.454,241.829 131.416,242.008 138.670 C 242.216 147.074,241.560 148.666,237.884 148.684 C 236.509 148.691,240.700 150.515,242.444 150.669 C 244.265 150.830,245.227 150.038,246.515 147.317 C 246.923 146.454,247.449 145.748,247.684 145.748 C 247.920 145.748,248.188 145.517,248.281 145.235 C 248.374 144.952,248.667 144.260,248.932 143.695 C 250.016 141.385,249.028 128.852,247.594 126.720 C 247.310 126.298,246.932 125.689,246.754 125.367 C 245.429 122.968,245.161 122.362,245.161 121.760 C 245.161 120.963,243.929 117.302,243.661 117.302 C 243.561 117.302,243.271 118.061,243.016 118.988 M136.364 135.483 C 132.030 136.184,129.365 136.774,128.455 137.233 C 127.885 137.521,126.166 137.976,124.633 138.245 C 121.029 138.878,118.759 139.591,118.194 140.267 C 117.601 140.975,114.300 142.522,113.382 142.522 C 112.720 142.522,110.319 144.170,109.460 145.213 C 109.260 145.456,108.119 145.965,106.924 146.343 C 104.343 147.162,104.263 147.218,102.828 149.194 C 102.213 150.040,101.547 150.733,101.347 150.733 C 100.815 150.733,99.120 152.328,99.120 152.829 C 99.120 153.066,98.575 153.648,97.908 154.123 C 95.393 155.912,95.308 156.054,95.308 158.445 C 95.308 160.805,94.579 163.419,93.560 164.715 C 93.231 165.133,92.962 165.630,92.962 165.820 C 92.962 166.010,92.709 166.688,92.401 167.327 C 92.092 167.966,91.687 169.344,91.500 170.388 C 91.314 171.433,90.852 173.673,90.474 175.367 C 88.401 184.657,88.440 184.351,88.997 187.097 C 89.275 188.468,89.603 190.183,89.726 190.909 C 89.848 191.635,90.230 193.476,90.575 195.001 C 90.920 196.526,91.202 198.090,91.202 198.477 C 91.202 199.617,92.863 204.238,93.549 205.009 C 93.897 205.399,94.624 206.863,95.165 208.263 C 96.073 210.611,97.759 212.867,98.628 212.895 C 98.760 212.900,99.040 213.068,99.249 213.270 C 99.458 213.471,99.975 213.931,100.397 214.291 L 101.166 214.946 101.668 214.180 C 102.377 213.098,102.567 210.877,102.455 204.985 C 102.401 202.163,102.354 199.694,102.351 199.498 C 102.348 199.303,102.110 198.907,101.822 198.618 C 101.534 198.330,100.454 197.125,99.423 195.942 C 98.392 194.758,97.190 193.407,96.752 192.938 C 96.291 192.445,95.894 191.623,95.809 190.985 C 95.050 185.330,94.962 183.795,95.266 181.471 C 95.818 177.237,95.981 176.772,97.404 175.357 C 98.128 174.637,99.042 173.466,99.434 172.757 C 100.015 171.704,100.506 171.294,102.094 170.531 C 105.807 168.746,106.647 166.675,104.741 163.999 C 103.365 162.066,102.518 157.563,103.292 156.294 C 103.700 155.625,106.274 153.666,106.746 153.666 C 106.906 153.666,107.038 153.494,107.038 153.283 C 107.038 151.010,112.160 150.173,114.693 152.032 C 116.299 153.210,118.100 155.337,118.187 156.158 C 118.469 158.816,118.167 160.615,117.272 161.604 C 115.075 164.032,114.956 164.284,114.956 166.516 L 114.956 168.608 116.184 169.201 C 116.860 169.528,117.574 169.795,117.773 169.795 C 117.971 169.795,118.177 169.901,118.231 170.032 C 118.583 170.886,120.996 172.027,121.701 171.672 C 122.104 171.468,123.059 171.085,123.824 170.819 C 124.588 170.553,125.578 169.936,126.023 169.448 C 127.682 167.630,128.329 167.088,129.472 166.557 C 132.151 165.311,133.413 161.702,131.799 159.897 C 128.755 156.494,127.959 150.936,130.084 147.930 C 130.393 147.493,130.777 146.918,130.938 146.651 C 131.999 144.895,132.756 144.318,134.782 143.722 C 142.852 141.347,149.062 146.892,147.390 154.979 C 147.132 156.227,146.921 157.311,146.921 157.388 C 146.921 157.466,146.195 158.237,145.308 159.104 C 143.593 160.778,143.466 161.188,143.883 163.710 C 144.013 164.496,144.212 164.809,144.582 164.809 C 144.866 164.809,145.162 164.976,145.240 165.179 C 145.319 165.383,146.025 165.868,146.811 166.258 C 148.419 167.055,150.147 168.340,150.147 168.739 C 150.147 170.856,156.384 172.296,158.209 170.600 C 158.425 170.399,159.270 169.839,160.087 169.355 L 161.572 168.475 161.578 166.510 C 161.583 164.675,161.519 164.480,160.617 163.577 C 155.685 158.640,159.713 150.037,166.516 150.980 C 168.633 151.273,169.076 151.539,170.295 153.252 C 170.647 153.745,171.503 154.535,172.197 155.006 C 173.900 156.162,173.891 156.141,173.896 158.699 L 173.900 160.946 172.434 162.701 C 169.923 165.706,170.287 167.597,173.838 170.002 C 175.605 171.198,176.725 172.222,177.622 173.460 C 178.323 174.428,179.150 175.519,179.459 175.884 C 179.769 176.249,180.105 176.810,180.207 177.130 C 180.308 177.451,180.486 177.713,180.602 177.713 C 181.549 177.713,181.964 179.688,181.942 184.080 L 181.920 188.541 180.989 190.038 C 180.477 190.861,180.059 191.612,180.059 191.707 C 180.059 191.802,179.729 192.313,179.326 192.841 C 178.922 193.370,178.592 193.929,178.592 194.085 C 178.592 194.240,178.265 194.677,177.864 195.057 C 177.464 195.437,177.134 195.898,177.131 196.081 C 177.128 196.264,176.802 196.626,176.407 196.885 C 176.011 197.144,175.328 197.969,174.889 198.719 L 174.090 200.081 174.166 206.389 C 174.276 215.658,175.389 217.204,178.766 212.781 C 179.322 212.053,180.236 210.958,180.796 210.347 C 181.357 209.737,181.816 209.007,181.817 208.724 C 181.820 207.619,183.578 202.815,184.246 202.089 C 185.338 200.901,186.510 196.905,186.512 194.365 C 186.513 193.190,186.777 190.467,187.099 188.314 C 187.646 184.652,187.654 184.283,187.221 182.610 C 186.966 181.626,186.637 178.901,186.490 176.554 C 186.252 172.735,185.830 170.483,185.245 169.898 C 185.134 169.787,185.044 169.481,185.044 169.217 C 185.044 168.953,184.668 168.216,184.207 167.580 C 183.747 166.943,183.296 166.158,183.205 165.836 C 182.644 163.846,181.166 160.227,180.702 159.706 C 179.140 157.952,178.749 157.048,178.550 154.741 C 178.343 152.328,177.429 150.733,176.254 150.733 C 175.761 150.733,173.900 148.524,173.900 147.938 C 173.900 147.511,172.083 146.727,170.528 146.483 C 168.980 146.240,167.449 145.692,167.449 145.381 C 167.449 144.463,164.665 142.712,162.682 142.384 C 162.077 142.284,160.700 141.599,159.623 140.861 C 157.911 139.689,157.099 139.378,153.145 138.378 C 150.659 137.749,148.389 137.108,148.100 136.953 C 147.256 136.502,140.243 135.187,138.906 135.230 C 138.233 135.251,137.089 135.365,136.364 135.483 M250.147 147.507 C 248.423 149.231,251.311 151.511,253.672 150.290 C 255.586 149.300,255.400 148.565,252.972 147.524 C 251.223 146.775,250.881 146.772,250.147 147.507 M264.728 147.945 C 262.427 148.578,262.398 148.597,262.754 149.263 C 263.174 150.047,267.047 150.130,268.192 149.380 C 270.406 147.929,268.164 147.000,264.728 147.945 M139.783 174.374 L 139.003 175.097 139.003 181.922 L 139.003 188.747 139.894 189.600 L 140.785 190.454 141.653 189.524 L 142.522 188.595 142.522 182.675 C 142.522 174.835,141.764 172.537,139.783 174.374 M167.864 177.477 C 166.222 179.336,165.874 187.711,167.367 189.413 C 168.356 190.539,168.399 190.538,169.691 189.370 L 170.745 188.416 170.607 184.311 C 170.432 179.068,169.190 175.975,167.864 177.477 M107.960 178.736 L 107.038 179.786 107.038 184.222 L 107.038 188.657 107.971 189.490 C 109.122 190.518,109.113 190.518,110.069 189.445 C 110.842 188.577,110.850 188.522,110.836 184.240 C 110.817 178.144,109.945 176.475,107.960 178.736 M120.086 197.003 C 118.145 198.943,118.241 198.106,118.143 213.997 L 118.055 228.433 119.066 229.477 C 121.941 232.443,125.849 232.925,128.114 230.593 L 129.133 229.545 129.115 214.738 L 129.098 199.930 128.401 199.284 C 128.018 198.929,127.442 198.561,127.122 198.467 C 126.802 198.372,125.880 198.026,125.073 197.698 C 121.596 196.284,120.902 196.187,120.086 197.003 M150.739 197.670 C 149.855 198.145,148.973 198.534,148.779 198.534 C 147.332 198.534,147.264 199.217,147.187 214.564 L 147.114 228.954 147.785 230.606 L 148.455 232.258 150.580 232.258 C 152.430 232.258,153.021 232.111,155.164 231.118 C 158.895 229.389,159.037 229.108,158.641 224.269 C 158.465 222.131,158.354 215.741,158.393 210.070 L 158.463 199.758 157.734 198.339 L 157.005 196.921 154.676 196.863 C 152.596 196.812,152.174 196.898,150.739 197.670 " stroke="none" fill="#0056bf" fill-rule="evenodd"></path></g></svg>