<svg id="svg" xmlns="http://www.w3.org/2000/svg" xmlns:xlink="http://www.w3.org/1999/xlink" width="400" height="293.0693069306931" viewBox="0, 0, 400,293.0693069306931"><g id="svgg"><path id="path0" d="M91.939 36.108 C 90.328 36.487,89.013 37.455,88.212 38.851 L 87.537 40.029 87.537 144.721 L 87.537 249.413 88.273 250.729 C 89.449 252.829,90.983 253.521,94.428 253.509 C 99.412 253.491,100.988 252.092,101.913 246.866 C 102.379 244.235,102.871 243.166,104.088 242.142 C 106.009 240.525,101.712 240.616,176.540 240.616 L 245.894 240.616 247.246 241.241 C 249.394 242.234,250.444 243.993,250.900 247.361 C 251.495 251.756,253.600 253.491,258.358 253.509 C 261.911 253.522,263.347 252.841,264.500 250.594 L 265.249 249.136 265.326 145.609 C 265.381 71.999,265.311 41.636,265.085 40.540 C 264.713 38.738,263.750 37.475,262.060 36.571 L 260.850 35.924 176.979 35.879 C 125.646 35.851,92.655 35.940,91.939 36.108 M162.525 49.836 C 166.058 50.151,167.544 50.872,168.618 52.790 L 169.355 54.106 169.355 124.194 L 169.355 194.282 168.674 195.663 C 167.054 198.953,167.901 198.876,134.604 198.770 L 106.598 198.680 105.180 197.976 C 101.463 196.131,101.721 201.915,101.821 122.727 L 101.906 54.985 102.734 53.299 C 103.816 51.097,105.303 50.177,108.289 49.863 C 111.266 49.550,159.060 49.526,162.525 49.836 M246.688 50.253 C 248.339 50.883,249.989 52.609,250.419 54.158 C 250.853 55.720,250.856 192.948,250.422 194.509 C 249.993 196.056,248.607 197.520,246.980 198.148 C 244.830 198.978,188.877 198.971,186.725 198.141 C 185.141 197.530,184.085 196.322,183.608 194.575 C 183.142 192.869,183.152 55.321,183.618 53.929 C 184.498 51.301,186.221 50.176,189.874 49.843 C 195.496 49.331,245.212 49.690,246.688 50.253 M145.504 118.225 C 142.215 119.853,141.135 126.110,143.631 129.077 C 146.281 132.227,152.998 131.709,155.063 128.197 C 158.674 122.054,151.947 115.035,145.504 118.225 M200.948 117.925 C 195.838 119.399,195.239 128.112,200.092 130.371 C 205.421 132.852,210.352 130.098,210.367 124.633 C 210.381 119.154,206.433 116.342,200.948 117.925 M244.496 213.490 C 251.798 214.439,253.370 223.630,246.577 225.648 C 244.297 226.325,108.530 226.337,106.252 225.660 C 99.455 223.642,100.834 214.385,108.065 213.494 C 110.714 213.167,241.982 213.163,244.496 213.490 " stroke="none" fill="#ffffff" fill-rule="evenodd"></path><path id="path1" d="M0.000 146.628 L 0.000 293.255 200.000 293.255 L 400.000 293.255 400.000 276.305 C 400.000 253.769,399.542 248.543,397.177 244.084 C 396.188 242.221,396.139 241.978,395.880 237.716 C 395.430 230.278,394.775 226.897,393.117 223.436 C 392.250 221.627,392.146 221.110,391.965 217.689 C 391.581 210.440,390.925 207.017,389.269 203.620 C 388.312 201.657,388.229 201.249,387.974 197.315 C 387.466 189.453,387.047 187.074,385.641 184.066 C 384.499 181.622,384.246 180.466,384.025 176.686 C 383.640 170.100,383.060 166.769,381.828 164.076 C 380.695 161.600,380.059 159.201,380.058 157.404 C 380.058 151.882,379.185 146.955,377.458 142.727 C 376.458 140.280,376.304 139.569,376.130 136.621 C 375.688 129.099,375.146 126.541,372.625 120.088 C 372.373 119.443,372.161 118.080,372.154 117.059 C 372.112 111.016,371.027 105.162,369.233 101.295 C 368.532 99.785,368.374 98.974,368.203 96.016 C 367.773 88.584,367.040 84.792,365.395 81.479 C 364.531 79.738,364.453 79.317,364.192 74.927 C 363.773 67.905,363.151 64.781,361.448 61.144 C 360.582 59.294,360.467 58.728,360.287 55.425 C 359.874 47.884,359.253 44.614,357.569 41.128 C 356.606 39.133,356.526 38.741,356.287 34.823 C 355.832 27.346,355.516 25.614,353.818 21.261 C 352.704 18.407,352.537 17.664,352.368 14.809 C 351.957 7.862,351.251 3.893,349.932 1.103 C 349.377 -0.071,348.807 -0.321,348.589 0.513 C 348.462 1.002,348.454 1.002,348.421 0.513 C 348.389 0.025,339.884 0.000,174.194 0.000 L 0.000 0.000 0.000 146.628 M262.060 36.571 C 263.750 37.475,264.713 38.738,265.085 40.540 C 265.311 41.636,265.381 71.999,265.326 145.609 L 265.249 249.136 264.500 250.594 C 263.347 252.841,261.911 253.522,258.358 253.509 C 253.600 253.491,251.495 251.756,250.900 247.361 C 250.444 243.993,249.394 242.234,247.246 241.241 L 245.894 240.616 176.540 240.616 C 101.712 240.616,106.009 240.525,104.088 242.142 C 102.871 243.166,102.379 244.235,101.913 246.866 C 100.988 252.092,99.412 253.491,94.428 253.509 C 90.983 253.521,89.449 252.829,88.273 250.729 L 87.537 249.413 87.537 144.721 L 87.537 40.029 88.212 38.851 C 89.013 37.455,90.328 36.487,91.939 36.108 C 92.655 35.940,125.646 35.851,176.979 35.879 L 260.850 35.924 262.060 36.571 M108.289 49.863 C 105.303 50.177,103.816 51.097,102.734 53.299 L 101.906 54.985 101.821 122.727 C 101.721 201.915,101.463 196.131,105.180 197.976 L 106.598 198.680 134.604 198.770 C 167.901 198.876,167.054 198.953,168.674 195.663 L 169.355 194.282 169.355 124.194 L 169.355 54.106 168.618 52.790 C 167.544 50.872,166.058 50.151,162.525 49.836 C 159.060 49.526,111.266 49.550,108.289 49.863 M189.874 49.843 C 186.221 50.176,184.498 51.301,183.618 53.929 C 183.152 55.321,183.142 192.869,183.608 194.575 C 184.085 196.322,185.141 197.530,186.725 198.141 C 188.877 198.971,244.830 198.978,246.980 198.148 C 248.607 197.520,249.993 196.056,250.422 194.509 C 250.856 192.948,250.853 55.720,250.419 54.158 C 249.989 52.609,248.339 50.883,246.688 50.253 C 245.212 49.690,195.496 49.331,189.874 49.843 M151.642 117.929 C 156.890 119.686,157.612 127.892,152.733 130.324 C 148.401 132.482,143.410 130.624,142.490 126.510 C 141.121 120.393,145.826 115.982,151.642 117.929 M206.976 118.153 C 211.682 120.566,211.673 128.666,206.963 130.634 C 200.949 133.147,195.374 128.282,197.063 121.994 C 198.019 118.438,203.438 116.339,206.976 118.153 M108.065 213.494 C 100.834 214.385,99.455 223.642,106.252 225.660 C 108.530 226.337,244.297 226.325,246.577 225.648 C 253.370 223.630,251.798 214.439,244.496 213.490 C 241.982 213.163,110.714 213.167,108.065 213.494 " stroke="none" fill="#056bfa" fill-rule="evenodd"></path></g></svg>