<svg id="svg" xmlns="http://www.w3.org/2000/svg" xmlns:xlink="http://www.w3.org/1999/xlink" width="400" height="350" viewBox="0, 0, 400,350"><g id="svgg"><path id="path0" d="M0.000 175.131 L 0.000 350.263 200.021 350.263 L 400.043 350.263 399.892 319.527 C 399.686 277.418,399.062 269.288,395.552 263.047 C 394.734 261.591,394.643 260.978,394.366 254.991 C 393.787 242.468,393.072 238.113,390.790 233.219 L 389.591 230.648 389.176 222.595 C 388.538 210.217,387.738 205.933,385.253 201.576 C 384.800 200.782,384.599 199.284,384.430 195.447 C 383.786 180.772,382.808 175.032,380.373 171.611 C 379.789 170.792,379.647 169.653,379.338 163.351 C 378.682 149.983,378.176 146.821,375.952 142.221 L 374.689 139.608 374.229 131.003 C 373.609 119.410,373.071 116.330,370.921 112.071 C 369.750 109.749,369.634 108.969,369.167 100.175 C 368.570 88.955,368.224 86.938,365.838 80.736 C 364.850 78.168,364.725 77.132,363.917 64.883 C 363.468 58.070,362.891 55.305,360.871 50.263 L 359.467 46.760 359.236 40.280 C 358.857 29.626,358.199 25.783,355.784 20.115 C 354.644 17.438,354.566 16.998,354.342 11.883 C 354.211 8.911,354.005 5.022,353.883 3.240 L 353.662 0.000 176.831 0.000 L 0.000 0.000 0.000 175.131 M334.676 5.570 C 339.191 7.379,339.799 8.651,340.797 18.389 C 341.587 26.086,341.905 27.956,343.248 32.758 C 344.531 37.348,344.860 39.462,346.049 50.788 C 346.446 54.579,347.113 58.722,347.654 60.771 C 349.011 65.905,349.523 67.998,349.710 69.177 C 350.062 71.402,350.606 76.363,350.959 80.560 C 351.354 85.262,352.006 88.801,353.704 95.447 C 354.945 100.304,354.973 100.486,355.683 108.459 C 356.285 115.207,356.842 118.524,358.342 124.276 C 359.568 128.976,360.247 133.332,360.749 139.723 C 361.189 145.312,361.900 149.708,363.021 153.765 C 364.153 157.863,364.508 159.383,364.819 161.471 C 364.919 162.145,365.073 163.091,365.161 163.573 C 365.249 164.054,365.564 167.207,365.862 170.578 C 366.572 178.603,366.879 180.473,368.276 185.289 C 369.533 189.620,369.951 192.231,370.746 200.701 C 371.310 206.707,372.321 212.632,373.377 216.112 C 374.456 219.666,375.111 223.447,375.488 228.292 C 375.947 234.189,377.090 241.804,378.104 245.718 C 379.570 251.374,380.041 254.228,380.736 261.646 C 381.380 268.531,382.116 273.235,382.853 275.173 C 384.076 278.390,385.295 285.304,385.810 291.944 C 386.212 297.139,387.074 302.422,388.437 308.056 C 389.183 311.138,390.045 315.946,390.353 318.739 C 390.661 321.532,391.080 325.315,391.285 327.145 C 391.490 328.975,392.037 332.347,392.501 334.637 C 393.905 341.566,393.410 343.029,388.962 345.079 L 387.215 345.884 198.599 345.884 L 9.982 345.884 8.420 345.009 C 6.497 343.931,5.411 342.376,4.920 339.996 C 4.656 338.716,4.572 289.667,4.637 174.081 L 4.729 9.982 5.479 8.581 C 6.494 6.689,7.368 5.964,9.544 5.210 C 11.313 4.598,17.525 4.576,171.979 4.651 L 332.574 4.729 334.676 5.570 M353.657 16.025 C 353.568 16.362,353.496 16.086,353.496 15.412 C 353.496 14.737,353.568 14.461,353.657 14.799 C 353.745 15.136,353.745 15.687,353.657 16.025 M358.210 38.441 C 358.122 38.778,358.050 38.503,358.050 37.828 C 358.050 37.154,358.122 36.878,358.210 37.215 C 358.298 37.553,358.298 38.104,358.210 38.441 M151.664 80.262 C 150.051 80.486,148.377 81.092,145.923 82.342 C 144.017 83.312,141.416 84.497,140.143 84.975 C 138.870 85.453,136.765 86.475,135.465 87.246 C 132.510 88.998,131.098 89.498,127.628 90.024 C 124.571 90.487,122.996 91.038,120.140 92.643 C 119.081 93.238,117.268 94.099,116.112 94.557 C 114.956 95.014,112.198 96.311,109.982 97.439 C 106.510 99.206,105.494 99.555,102.619 99.969 C 98.952 100.497,97.574 100.980,94.619 102.769 C 93.533 103.426,91.068 104.473,89.142 105.094 C 87.215 105.715,84.580 106.753,83.286 107.401 C 81.991 108.049,79.233 109.070,77.156 109.670 C 69.629 111.843,66.097 115.147,65.166 120.886 C 64.667 123.963,64.667 226.650,65.166 229.727 C 66.013 234.947,69.768 238.785,76.007 240.808 C 77.067 241.152,79.352 242.114,81.086 242.948 C 82.839 243.790,86.076 244.929,88.378 245.513 C 91.155 246.218,93.188 246.971,94.555 247.801 C 97.524 249.605,98.695 250.019,102.519 250.618 C 106.086 251.177,108.472 252.190,119.790 257.953 C 122.169 259.165,124.271 259.966,125.744 260.224 C 131.847 261.292,133.166 261.724,135.641 263.469 C 136.172 263.843,137.591 264.537,138.794 265.011 C 139.997 265.485,142.872 266.817,145.184 267.971 C 150.415 270.584,152.607 270.925,162.347 270.646 C 169.956 270.428,170.430 270.325,175.657 267.769 C 177.776 266.732,180.692 265.327,182.137 264.645 C 183.581 263.964,185.686 262.914,186.813 262.311 C 188.258 261.539,189.963 261.030,192.593 260.584 C 197.017 259.834,197.051 259.822,200.131 258.048 C 201.455 257.286,203.851 256.146,205.457 255.515 C 207.062 254.885,209.203 253.861,210.214 253.239 C 212.650 251.740,214.115 251.253,218.144 250.605 C 221.005 250.144,222.057 249.771,225.107 248.135 C 227.773 246.705,229.538 246.027,231.950 245.506 C 233.927 245.079,236.643 244.129,238.879 243.083 C 240.902 242.137,243.739 240.941,245.184 240.425 C 249.458 238.900,252.830 236.053,254.409 232.636 L 255.166 230.998 255.166 175.306 L 255.166 119.615 254.398 117.951 C 252.758 114.400,249.238 111.491,244.535 109.799 C 243.118 109.290,240.596 108.186,238.930 107.347 C 236.847 106.297,234.808 105.597,232.399 105.104 C 230.270 104.668,228.073 103.950,226.795 103.273 C 225.639 102.661,223.984 101.792,223.117 101.342 C 222.250 100.892,219.886 100.215,217.863 99.836 C 215.026 99.306,213.475 98.781,211.075 97.540 C 209.364 96.655,206.742 95.485,205.249 94.940 C 203.756 94.395,201.451 93.317,200.127 92.544 C 197.565 91.047,195.067 90.216,191.951 89.822 C 189.400 89.500,187.862 88.927,185.026 87.246 C 183.726 86.475,181.633 85.458,180.375 84.986 C 179.116 84.513,176.516 83.321,174.595 82.335 C 169.906 79.930,160.314 79.062,151.664 80.262 M165.679 92.475 C 166.928 93.107,169.672 94.277,171.775 95.074 C 177.340 97.181,178.040 98.505,175.234 101.610 C 173.449 103.586,171.945 104.250,167.466 105.041 C 164.182 105.621,163.078 105.998,160.337 107.478 C 158.553 108.440,156.029 109.627,154.729 110.115 C 153.429 110.603,151.301 111.630,150.000 112.399 C 147.590 113.823,145.344 114.530,140.989 115.237 C 139.206 115.526,137.599 116.138,135.035 117.506 C 132.326 118.951,130.723 119.546,128.021 120.109 C 125.691 120.595,123.404 121.378,121.191 122.448 C 119.361 123.332,116.632 124.508,115.127 125.059 C 113.621 125.611,111.580 126.560,110.589 127.170 C 106.303 129.807,104.816 129.835,100.093 127.369 C 98.115 126.337,95.867 125.291,95.096 125.045 C 87.271 122.551,88.814 117.177,97.898 115.283 C 100.348 114.772,102.296 114.089,104.378 113.011 C 106.016 112.164,108.538 111.048,109.982 110.533 C 111.427 110.017,113.634 108.979,114.886 108.226 C 117.464 106.677,119.267 105.975,121.546 105.633 C 125.150 105.091,126.782 104.566,129.772 102.986 C 131.506 102.070,133.817 100.991,134.907 100.589 C 135.998 100.187,138.598 98.984,140.687 97.915 C 143.816 96.313,145.068 95.876,147.811 95.429 C 150.406 95.006,151.832 94.532,154.291 93.278 C 159.546 90.597,161.673 90.447,165.679 92.475 M368.368 102.189 C 368.279 102.526,368.207 102.250,368.207 101.576 C 368.207 100.902,368.279 100.626,368.368 100.963 C 368.456 101.300,368.456 101.852,368.368 102.189 M215.937 111.066 C 216.708 111.274,218.520 112.131,219.965 112.970 C 221.410 113.809,223.886 114.989,225.468 115.592 C 231.862 118.030,232.229 122.536,226.200 124.581 C 225.179 124.928,222.540 126.139,220.337 127.274 C 216.851 129.069,215.835 129.420,212.510 129.979 C 209.251 130.527,208.200 130.883,205.372 132.394 C 203.259 133.523,200.659 134.546,198.213 135.211 C 196.100 135.786,193.301 136.795,191.993 137.454 C 190.684 138.112,188.003 139.212,186.035 139.897 C 184.066 140.583,181.390 141.776,180.089 142.549 C 178.787 143.323,176.390 144.413,174.763 144.971 C 173.135 145.530,170.296 146.709,168.452 147.592 C 162.382 150.498,158.087 150.470,151.664 147.484 C 149.641 146.544,147.356 145.581,146.585 145.344 C 139.220 143.080,138.584 138.314,145.277 135.541 C 146.767 134.923,149.011 133.827,150.263 133.105 C 152.999 131.528,154.120 131.147,157.986 130.480 C 160.274 130.085,161.900 129.492,165.149 127.868 C 167.461 126.712,170.178 125.449,171.188 125.061 C 172.198 124.673,173.616 123.982,174.340 123.525 C 177.130 121.765,178.828 121.119,182.432 120.446 C 185.369 119.898,186.892 119.380,189.577 118.016 C 191.454 117.063,194.055 115.883,195.356 115.395 C 196.658 114.906,198.819 113.856,200.159 113.062 C 204.047 110.756,211.368 109.830,215.937 111.066 M373.271 130.911 C 373.183 131.248,373.111 130.972,373.111 130.298 C 373.111 129.623,373.183 129.348,373.271 129.685 C 373.359 130.022,373.359 130.574,373.271 130.911 M81.987 133.976 C 82.840 134.265,85.401 134.888,87.678 135.359 C 97.113 137.310,99.480 140.518,99.838 151.839 C 100.183 162.727,100.473 163.293,107.750 167.248 C 111.938 169.524,112.433 169.706,114.746 169.823 C 119.910 170.084,120.665 168.976,120.665 161.135 C 120.665 156.401,120.771 155.149,121.245 154.291 C 123.248 150.660,126.851 150.264,132.399 153.065 C 133.552 153.647,135.955 154.535,137.738 155.039 C 141.167 156.008,141.875 156.319,147.986 159.540 C 155.607 163.557,154.850 157.917,154.735 209.833 L 154.641 252.715 153.881 254.134 C 152.227 257.224,147.556 256.775,140.757 252.871 C 139.092 251.916,136.337 250.572,134.633 249.885 C 132.929 249.198,131.375 248.506,131.179 248.346 C 129.690 247.133,126.020 245.759,122.698 245.172 C 120.632 244.806,118.250 244.140,117.364 243.680 C 116.483 243.223,114.816 242.348,113.660 241.734 C 112.504 241.121,110.198 240.248,108.535 239.793 C 106.872 239.339,104.113 238.329,102.405 237.549 C 100.697 236.768,98.117 235.784,96.673 235.361 C 95.228 234.938,92.423 233.732,90.439 232.680 C 87.402 231.069,86.253 230.665,83.163 230.118 C 77.397 229.098,76.237 228.009,75.630 223.042 C 75.086 218.598,75.380 138.229,75.946 136.537 C 76.849 133.839,78.952 132.947,81.987 133.976 M243.311 134.635 C 244.807 136.375,244.834 137.180,244.834 181.390 C 244.834 217.742,244.761 223.937,244.315 225.439 C 243.516 228.128,241.643 229.499,238.179 229.930 C 234.987 230.327,232.539 231.148,229.772 232.748 C 228.327 233.584,225.727 234.695,223.993 235.218 C 222.259 235.741,219.501 236.787,217.863 237.542 C 216.226 238.298,213.468 239.315,211.734 239.802 C 209.984 240.294,207.010 241.531,205.050 242.582 C 202.291 244.061,200.757 244.631,198.044 245.187 C 195.649 245.677,193.320 246.482,190.543 247.777 C 188.327 248.811,185.605 250.009,184.493 250.441 C 183.382 250.873,181.007 252.034,179.215 253.021 C 174.795 255.458,170.240 256.957,168.546 256.533 C 165.348 255.732,165.343 255.659,165.344 208.581 C 165.346 160.019,164.977 163.270,170.826 160.334 C 172.520 159.484,174.930 158.221,176.182 157.527 C 177.434 156.832,179.877 155.868,181.611 155.384 C 183.345 154.899,186.103 153.887,187.741 153.134 C 189.378 152.380,192.294 151.260,194.221 150.644 C 196.147 150.027,198.905 148.832,200.350 147.987 C 202.105 146.961,204.264 146.101,206.851 145.399 C 208.981 144.821,212.055 143.703,213.681 142.915 C 215.307 142.126,217.898 141.095,219.440 140.623 C 220.981 140.150,223.345 139.118,224.694 138.328 C 228.061 136.356,229.020 135.994,232.516 135.379 C 234.186 135.086,236.497 134.532,237.653 134.149 C 240.321 133.265,242.277 133.433,243.311 134.635 M378.525 165.587 C 378.437 165.924,378.365 165.648,378.365 164.974 C 378.365 164.299,378.437 164.024,378.525 164.361 C 378.613 164.698,378.613 165.250,378.525 165.587 M383.429 193.608 C 383.341 193.945,383.269 193.669,383.269 192.995 C 383.269 192.320,383.341 192.045,383.429 192.382 C 383.517 192.719,383.517 193.271,383.429 193.608 M388.333 223.730 C 388.244 224.067,388.172 223.792,388.172 223.117 C 388.172 222.443,388.244 222.167,388.333 222.504 C 388.421 222.842,388.421 223.393,388.333 223.730 M393.236 252.102 C 393.148 252.439,393.076 252.163,393.076 251.489 C 393.076 250.814,393.148 250.539,393.236 250.876 C 393.324 251.213,393.324 251.764,393.236 252.102 M398.496 286.248 C 398.413 286.684,398.341 286.410,398.337 285.639 C 398.333 284.869,398.402 284.512,398.489 284.847 C 398.577 285.182,398.580 285.812,398.496 286.248 " stroke="none" fill="#ffffff" fill-rule="evenodd"></path><path id="path1" d="M353.877 2.102 C 353.877 3.354,353.941 3.866,354.019 3.240 C 354.096 2.614,354.096 1.589,354.019 0.963 C 353.941 0.337,353.877 0.849,353.877 2.102 M9.544 5.210 C 7.368 5.964,6.494 6.689,5.479 8.581 L 4.729 9.982 4.637 174.081 C 4.572 289.667,4.656 338.716,4.920 339.996 C 5.411 342.376,6.497 343.931,8.420 345.009 L 9.982 345.884 198.599 345.884 L 387.215 345.884 388.962 345.079 C 393.410 343.029,393.905 341.566,392.501 334.637 C 392.037 332.347,391.490 328.975,391.285 327.145 C 391.080 325.315,390.661 321.532,390.353 318.739 C 390.045 315.946,389.183 311.138,388.437 308.056 C 387.074 302.422,386.212 297.139,385.810 291.944 C 385.295 285.304,384.076 278.390,382.853 275.173 C 382.116 273.235,381.380 268.531,380.736 261.646 C 380.041 254.228,379.570 251.374,378.104 245.718 C 377.090 241.804,375.947 234.189,375.488 228.292 C 375.111 223.447,374.456 219.666,373.377 216.112 C 372.321 212.632,371.310 206.707,370.746 200.701 C 369.951 192.231,369.533 189.620,368.276 185.289 C 366.879 180.473,366.572 178.603,365.862 170.578 C 365.564 167.207,365.249 164.054,365.161 163.573 C 365.073 163.091,364.919 162.145,364.819 161.471 C 364.508 159.383,364.153 157.863,363.021 153.765 C 361.900 149.708,361.189 145.312,360.749 139.723 C 360.247 133.332,359.568 128.976,358.342 124.276 C 356.842 118.524,356.285 115.207,355.683 108.459 C 354.973 100.486,354.945 100.304,353.704 95.447 C 352.006 88.801,351.354 85.262,350.959 80.560 C 350.606 76.363,350.062 71.402,349.710 69.177 C 349.523 67.998,349.011 65.905,347.654 60.771 C 347.113 58.722,346.446 54.579,346.049 50.788 C 344.860 39.462,344.531 37.348,343.248 32.758 C 341.905 27.956,341.587 26.086,340.797 18.389 C 339.799 8.651,339.191 7.379,334.676 5.570 L 332.574 4.729 171.979 4.651 C 17.525 4.576,11.313 4.598,9.544 5.210 M353.496 15.412 C 353.496 16.086,353.568 16.362,353.657 16.025 C 353.745 15.687,353.745 15.136,353.657 14.799 C 353.568 14.461,353.496 14.737,353.496 15.412 M359.101 37.478 C 359.101 38.152,359.173 38.428,359.261 38.091 C 359.349 37.754,359.349 37.202,359.261 36.865 C 359.173 36.528,359.101 36.804,359.101 37.478 M358.050 37.828 C 358.050 38.503,358.122 38.778,358.210 38.441 C 358.298 38.104,358.298 37.553,358.210 37.215 C 358.122 36.878,358.050 37.154,358.050 37.828 M364.362 72.680 C 364.365 73.450,364.437 73.724,364.521 73.288 C 364.605 72.853,364.602 72.222,364.514 71.887 C 364.426 71.552,364.358 71.909,364.362 72.680 M168.651 80.209 C 170.487 80.460,171.981 80.994,174.595 82.335 C 176.516 83.321,179.116 84.513,180.375 84.986 C 181.633 85.458,183.726 86.475,185.026 87.246 C 187.862 88.927,189.400 89.500,191.951 89.822 C 195.067 90.216,197.565 91.047,200.127 92.544 C 201.451 93.317,203.756 94.395,205.249 94.940 C 206.742 95.485,209.364 96.655,211.075 97.540 C 213.475 98.781,215.026 99.306,217.863 99.836 C 219.886 100.215,222.250 100.892,223.117 101.342 C 223.984 101.792,225.639 102.661,226.795 103.273 C 228.073 103.950,230.270 104.668,232.399 105.104 C 234.808 105.597,236.847 106.297,238.930 107.347 C 240.596 108.186,243.118 109.290,244.535 109.799 C 249.238 111.491,252.758 114.400,254.398 117.951 L 255.166 119.615 255.166 175.306 L 255.166 230.998 254.409 232.636 C 252.830 236.053,249.458 238.900,245.184 240.425 C 243.739 240.941,240.902 242.137,238.879 243.083 C 236.643 244.129,233.927 245.079,231.950 245.506 C 229.538 246.027,227.773 246.705,225.107 248.135 C 222.057 249.771,221.005 250.144,218.144 250.605 C 214.115 251.253,212.650 251.740,210.214 253.239 C 209.203 253.861,207.062 254.885,205.457 255.515 C 203.851 256.146,201.455 257.286,200.131 258.048 C 197.051 259.822,197.017 259.834,192.593 260.584 C 189.963 261.030,188.258 261.539,186.813 262.311 C 185.686 262.914,183.581 263.964,182.137 264.645 C 180.692 265.327,177.776 266.732,175.657 267.769 C 167.026 271.991,153.414 272.081,145.184 267.971 C 142.872 266.817,139.997 265.485,138.794 265.011 C 137.591 264.537,136.172 263.843,135.641 263.469 C 133.166 261.724,131.847 261.292,125.744 260.224 C 124.271 259.966,122.169 259.165,119.790 257.953 C 108.472 252.190,106.086 251.177,102.519 250.618 C 98.695 250.019,97.524 249.605,94.555 247.801 C 93.188 246.971,91.155 246.218,88.378 245.513 C 86.076 244.929,82.839 243.790,81.086 242.948 C 79.352 242.114,77.067 241.152,76.007 240.808 C 69.768 238.785,66.013 234.947,65.166 229.727 C 64.667 226.650,64.667 123.963,65.166 120.886 C 66.097 115.147,69.629 111.843,77.156 109.670 C 79.233 109.070,81.991 108.049,83.286 107.401 C 84.580 106.753,87.215 105.715,89.142 105.094 C 91.068 104.473,93.533 103.426,94.619 102.769 C 97.574 100.980,98.952 100.497,102.619 99.969 C 105.494 99.555,106.510 99.206,109.982 97.439 C 112.198 96.311,114.956 95.014,116.112 94.557 C 117.268 94.099,119.081 93.238,120.140 92.643 C 122.996 91.038,124.571 90.487,127.628 90.024 C 131.098 89.498,132.510 88.998,135.465 87.246 C 136.765 86.475,138.870 85.453,140.143 84.975 C 141.416 84.497,144.017 83.312,145.923 82.342 C 150.541 79.990,160.328 79.071,168.651 80.209 M366.049 81.436 C 366.049 81.629,366.275 82.180,366.550 82.662 C 366.825 83.144,367.050 83.380,367.050 83.187 C 367.050 82.995,366.825 82.443,366.550 81.961 C 366.275 81.480,366.049 81.243,366.049 81.436 M158.319 91.378 C 157.837 91.539,156.025 92.393,154.291 93.278 C 151.832 94.532,150.406 95.006,147.811 95.429 C 145.068 95.876,143.816 96.313,140.687 97.915 C 138.598 98.984,135.998 100.187,134.907 100.589 C 133.817 100.991,131.506 102.070,129.772 102.986 C 126.782 104.566,125.150 105.091,121.546 105.633 C 119.267 105.975,117.464 106.677,114.886 108.226 C 113.634 108.979,111.427 110.017,109.982 110.533 C 108.538 111.048,106.016 112.164,104.378 113.011 C 102.296 114.089,100.348 114.772,97.898 115.283 C 88.814 117.177,87.271 122.551,95.096 125.045 C 95.867 125.291,98.115 126.337,100.093 127.369 C 104.816 129.835,106.303 129.807,110.589 127.170 C 111.580 126.560,113.621 125.611,115.127 125.059 C 116.632 124.508,119.361 123.332,121.191 122.448 C 123.404 121.378,125.691 120.595,128.021 120.109 C 130.723 119.546,132.326 118.951,135.035 117.506 C 137.599 116.138,139.206 115.526,140.989 115.237 C 145.344 114.530,147.590 113.823,150.000 112.399 C 151.301 111.630,153.429 110.603,154.729 110.115 C 156.029 109.627,158.553 108.440,160.337 107.478 C 163.078 105.998,164.182 105.621,167.466 105.041 C 171.945 104.250,173.449 103.586,175.234 101.610 C 178.040 98.505,177.340 97.181,171.775 95.074 C 169.672 94.277,166.928 93.107,165.679 92.475 C 163.289 91.265,160.090 90.788,158.319 91.378 M368.207 101.576 C 368.207 102.250,368.279 102.526,368.368 102.189 C 368.456 101.852,368.456 101.300,368.368 100.963 C 368.279 100.626,368.207 100.902,368.207 101.576 M369.258 102.277 C 369.258 102.951,369.330 103.227,369.418 102.890 C 369.506 102.553,369.506 102.001,369.418 101.664 C 369.330 101.327,369.258 101.602,369.258 102.277 M204.012 111.174 C 203.232 111.418,201.498 112.268,200.159 113.062 C 198.819 113.856,196.658 114.906,195.356 115.395 C 194.055 115.883,191.454 117.063,189.577 118.016 C 186.892 119.380,185.369 119.898,182.432 120.446 C 178.828 121.119,177.130 121.765,174.340 123.525 C 173.616 123.982,172.198 124.673,171.188 125.061 C 170.178 125.449,167.461 126.712,165.149 127.868 C 161.900 129.492,160.274 130.085,157.986 130.480 C 154.120 131.147,152.999 131.528,150.263 133.105 C 149.011 133.827,146.767 134.923,145.277 135.541 C 138.584 138.314,139.220 143.080,146.585 145.344 C 147.356 145.581,149.641 146.544,151.664 147.484 C 158.087 150.470,162.382 150.498,168.452 147.592 C 170.296 146.709,173.135 145.530,174.763 144.971 C 176.390 144.413,178.787 143.323,180.089 142.549 C 181.390 141.776,184.066 140.583,186.035 139.897 C 188.003 139.212,190.684 138.112,191.993 137.454 C 193.301 136.795,196.100 135.786,198.213 135.211 C 200.659 134.546,203.259 133.523,205.372 132.394 C 208.200 130.883,209.251 130.527,212.510 129.979 C 215.835 129.420,216.851 129.069,220.337 127.274 C 222.540 126.139,225.179 124.928,226.200 124.581 C 232.229 122.536,231.862 118.030,225.468 115.592 C 223.886 114.989,221.410 113.809,219.965 112.970 C 216.002 110.669,208.368 109.809,204.012 111.174 M373.111 130.298 C 373.111 130.972,373.183 131.248,373.271 130.911 C 373.359 130.574,373.359 130.022,373.271 129.685 C 373.183 129.348,373.111 129.623,373.111 130.298 M374.162 130.298 C 374.162 130.972,374.234 131.248,374.322 130.911 C 374.410 130.574,374.410 130.022,374.322 129.685 C 374.234 129.348,374.162 129.623,374.162 130.298 M77.445 134.348 C 75.453 136.025,75.524 134.479,75.394 178.982 C 75.238 232.403,74.663 228.615,83.163 230.118 C 86.253 230.665,87.402 231.069,90.439 232.680 C 92.423 233.732,95.228 234.938,96.673 235.361 C 98.117 235.784,100.697 236.768,102.405 237.549 C 104.113 238.329,106.872 239.339,108.535 239.793 C 110.198 240.248,112.504 241.121,113.660 241.734 C 114.816 242.348,116.483 243.223,117.364 243.680 C 118.250 244.140,120.632 244.806,122.698 245.172 C 126.020 245.759,129.690 247.133,131.179 248.346 C 131.375 248.506,132.929 249.198,134.633 249.885 C 136.337 250.572,139.092 251.916,140.757 252.871 C 147.556 256.775,152.227 257.224,153.881 254.134 L 154.641 252.715 154.735 209.833 C 154.850 157.917,155.607 163.557,147.986 159.540 C 141.875 156.319,141.167 156.008,137.738 155.039 C 135.955 154.535,133.552 153.647,132.399 153.065 C 126.851 150.264,123.248 150.660,121.245 154.291 C 120.771 155.149,120.665 156.401,120.665 161.135 C 120.665 168.976,119.910 170.084,114.746 169.823 C 112.433 169.706,111.938 169.524,107.750 167.248 C 100.473 163.293,100.183 162.727,99.838 151.839 C 99.480 140.518,97.113 137.310,87.678 135.359 C 85.401 134.888,82.840 134.265,81.987 133.976 C 79.783 133.229,78.667 133.320,77.445 134.348 M237.653 134.149 C 236.497 134.532,234.186 135.086,232.516 135.379 C 229.020 135.994,228.061 136.356,224.694 138.328 C 223.345 139.118,220.981 140.150,219.440 140.623 C 217.898 141.095,215.307 142.126,213.681 142.915 C 212.055 143.703,208.981 144.821,206.851 145.399 C 204.264 146.101,202.105 146.961,200.350 147.987 C 198.905 148.832,196.147 150.027,194.221 150.644 C 192.294 151.260,189.378 152.380,187.741 153.134 C 186.103 153.887,183.345 154.899,181.611 155.384 C 179.877 155.868,177.434 156.832,176.182 157.527 C 174.930 158.221,172.520 159.484,170.826 160.334 C 164.977 163.270,165.346 160.019,165.344 208.581 C 165.343 255.659,165.348 255.732,168.546 256.533 C 170.240 256.957,174.795 255.458,179.215 253.021 C 181.007 252.034,183.382 250.873,184.493 250.441 C 185.605 250.009,188.327 248.811,190.543 247.777 C 193.320 246.482,195.649 245.677,198.044 245.187 C 200.757 244.631,202.291 244.061,205.050 242.582 C 207.010 241.531,209.984 240.294,211.734 239.802 C 213.468 239.315,216.226 238.298,217.863 237.542 C 219.501 236.787,222.259 235.741,223.993 235.218 C 225.727 234.695,228.327 233.584,229.772 232.748 C 232.539 231.148,234.987 230.327,238.179 229.930 C 241.643 229.499,243.516 228.128,244.315 225.439 C 244.977 223.207,245.105 140.354,244.450 137.301 C 243.692 133.764,241.659 132.821,237.653 134.149 M378.365 164.974 C 378.365 165.648,378.437 165.924,378.525 165.587 C 378.613 165.250,378.613 164.698,378.525 164.361 C 378.437 164.024,378.365 164.299,378.365 164.974 M379.423 166.200 C 379.427 166.970,379.498 167.244,379.582 166.809 C 379.666 166.373,379.663 165.742,379.575 165.407 C 379.487 165.073,379.419 165.429,379.423 166.200 M383.269 192.995 C 383.269 193.669,383.341 193.945,383.429 193.608 C 383.517 193.271,383.517 192.719,383.429 192.382 C 383.341 192.045,383.269 192.320,383.269 192.995 M384.327 194.221 C 384.330 194.991,384.402 195.265,384.486 194.830 C 384.570 194.394,384.567 193.763,384.479 193.428 C 384.391 193.094,384.323 193.450,384.327 194.221 M388.172 223.117 C 388.172 223.792,388.244 224.067,388.333 223.730 C 388.421 223.393,388.421 222.842,388.333 222.504 C 388.244 222.167,388.172 222.443,388.172 223.117 M389.230 223.993 C 389.234 224.764,389.306 225.038,389.390 224.602 C 389.473 224.166,389.470 223.536,389.383 223.201 C 389.295 222.866,389.226 223.222,389.230 223.993 M394.127 251.138 C 394.127 251.813,394.199 252.088,394.287 251.751 C 394.375 251.414,394.375 250.863,394.287 250.525 C 394.199 250.188,394.127 250.464,394.127 251.138 M393.076 251.489 C 393.076 252.163,393.148 252.439,393.236 252.102 C 393.324 251.764,393.324 251.213,393.236 250.876 C 393.148 250.539,393.076 250.814,393.076 251.489 M398.337 285.639 C 398.341 286.410,398.413 286.684,398.496 286.248 C 398.580 285.812,398.577 285.182,398.489 284.847 C 398.402 284.512,398.333 284.869,398.337 285.639 M399.388 285.989 C 399.392 286.760,399.463 287.034,399.547 286.598 C 399.631 286.163,399.628 285.532,399.540 285.197 C 399.452 284.862,399.384 285.219,399.388 285.989 " stroke="none" fill="#0056bf" fill-rule="evenodd"></path></g></svg>