<svg id="svg" xmlns="http://www.w3.org/2000/svg" xmlns:xlink="http://www.w3.org/1999/xlink" width="400" height="350" viewBox="0, 0, 400,350"><g id="svgg"><path id="path0" d="M0.000 175.131 L 0.000 350.263 200.000 350.263 L 400.000 350.263 400.000 336.602 C 400.000 324.694,399.933 322.942,399.475 322.942 C 399.035 322.942,398.949 322.209,398.949 318.447 C 398.949 315.975,398.850 313.853,398.729 313.732 C 398.608 313.611,398.478 310.314,398.439 306.406 C 398.338 296.082,397.496 292.980,394.729 292.753 L 393.870 292.683 393.978 287.976 C 394.036 285.387,393.984 283.014,393.860 282.703 C 393.737 282.391,393.581 279.063,393.514 275.306 C 393.344 265.788,392.427 262.672,389.935 263.149 C 389.499 263.232,389.112 263.283,389.076 263.261 C 389.004 263.219,388.641 252.586,388.368 242.557 C 388.173 235.383,387.464 232.925,385.590 232.925 C 383.917 232.925,383.888 232.822,383.888 226.953 C 383.888 223.903,383.756 221.326,383.594 221.226 C 383.433 221.126,383.370 219.028,383.455 216.564 C 383.735 208.473,382.806 203.396,380.899 202.600 C 379.167 201.876,378.984 201.247,378.984 195.995 C 378.984 193.382,378.866 191.243,378.722 191.243 C 378.577 191.243,378.459 188.130,378.459 184.326 C 378.459 177.013,377.979 173.503,377.029 173.868 C 376.768 173.968,376.447 173.875,376.314 173.661 C 376.160 173.411,376.235 173.371,376.524 173.550 C 376.824 173.736,376.918 173.666,376.805 173.341 C 376.712 173.074,376.307 172.866,375.905 172.880 C 375.502 172.894,375.200 172.815,375.234 172.705 C 375.268 172.595,374.910 171.986,374.438 171.353 L 373.580 170.202 373.688 161.417 C 373.748 156.585,373.664 152.714,373.501 152.814 C 373.338 152.913,373.191 151.155,373.174 148.905 C 373.143 144.822,372.623 142.629,371.729 142.808 C 371.521 142.849,371.421 142.612,371.508 142.280 C 371.671 141.658,369.318 138.576,368.885 138.843 C 368.659 138.983,368.568 135.280,368.523 123.993 C 368.508 120.416,368.386 118.735,368.166 119.066 C 367.943 119.399,367.894 118.870,368.019 117.488 C 368.230 115.168,367.437 112.520,366.673 112.992 C 366.386 113.169,366.328 113.061,366.488 112.645 C 366.892 111.591,364.753 108.591,363.953 109.089 C 363.840 109.159,363.797 107.321,363.857 105.004 C 363.916 102.687,363.862 100.534,363.736 100.220 C 363.610 99.907,363.461 96.419,363.404 92.469 C 363.304 85.432,363.100 83.530,362.486 83.910 C 362.318 84.014,362.271 83.861,362.383 83.570 C 362.879 82.276,360.006 77.671,359.067 78.255 C 358.944 78.331,358.893 76.498,358.953 74.181 C 359.013 71.864,358.946 69.711,358.805 69.397 C 358.664 69.083,358.581 66.541,358.621 63.748 C 358.710 57.464,357.933 51.190,356.900 49.844 C 356.146 48.861,354.685 47.662,354.226 47.648 C 353.928 47.639,353.766 45.880,353.652 41.419 C 353.257 25.852,353.164 23.889,352.748 22.242 C 352.081 19.601,351.670 18.968,350.203 18.320 L 348.862 17.729 348.862 13.088 C 348.862 10.536,348.725 8.363,348.557 8.260 C 348.390 8.156,348.322 6.216,348.407 3.948 C 348.518 0.992,348.457 -0.026,348.192 0.350 C 347.941 0.706,347.820 0.734,347.816 0.438 C 347.812 0.088,312.793 0.000,173.905 0.000 L 0.000 0.000 0.000 175.131 M335.230 5.705 C 339.209 7.256,339.744 8.715,340.268 19.440 C 340.598 26.194,341.304 30.611,342.752 34.985 C 344.262 39.544,344.887 43.028,345.177 48.511 C 345.657 57.586,346.383 61.979,348.158 66.550 C 349.424 69.812,349.808 72.395,350.262 80.724 C 350.660 88.026,351.580 93.410,353.081 97.219 C 354.406 100.580,354.776 102.829,355.165 109.849 C 355.647 118.571,356.490 123.364,358.465 128.611 C 359.359 130.986,359.729 133.762,360.427 143.343 C 360.924 150.148,361.636 154.396,362.706 156.939 C 364.027 160.078,364.568 162.871,364.974 168.651 C 365.804 180.488,366.510 185.140,367.956 188.307 C 369.269 191.183,369.497 192.481,370.045 200.211 C 370.790 210.708,371.518 215.212,373.047 218.778 C 374.078 221.185,374.757 225.393,375.300 232.750 C 375.991 242.098,376.616 245.916,378.063 249.626 C 379.558 253.459,379.568 253.518,380.203 262.697 C 380.837 271.854,381.474 275.918,382.831 279.448 C 384.138 282.850,384.824 286.942,385.282 294.080 C 385.761 301.556,386.718 306.932,388.176 310.333 C 389.252 312.845,389.826 316.620,390.195 323.609 C 390.598 331.239,391.244 335.586,392.549 339.450 C 393.665 342.758,393.576 343.025,390.898 344.396 L 389.016 345.359 198.191 345.359 L 7.367 345.359 6.223 344.337 L 5.079 343.315 5.079 175.358 L 5.079 7.402 6.090 6.346 C 6.647 5.765,7.435 5.224,7.842 5.143 C 10.761 4.565,333.727 5.119,335.230 5.705 M158.669 90.234 C 155.868 90.545,153.083 91.511,151.777 92.625 C 149.493 94.574,148.703 94.807,143.597 95.041 C 138.407 95.279,136.238 95.771,134.449 97.113 C 131.517 99.312,128.555 100.163,123.713 100.196 C 118.536 100.231,117.548 100.517,115.457 102.582 C 113.399 104.614,111.838 105.073,106.965 105.077 C 103.679 105.079,101.058 105.601,99.124 106.636 C 93.659 109.562,93.596 109.582,88.616 109.978 C 82.721 110.446,81.683 110.724,79.990 112.289 C 78.117 114.020,77.278 114.397,74.275 114.861 C 69.734 115.562,67.221 117.212,65.705 120.486 C 64.738 122.576,64.657 136.386,65.600 138.211 C 66.181 139.333,66.295 139.400,72.504 142.271 L 76.532 144.133 97.023 144.239 C 119.385 144.354,120.579 144.275,123.396 142.482 C 126.964 140.211,128.358 140.190,131.520 142.359 C 134.272 144.247,136.206 144.437,150.505 144.227 C 164.258 144.025,163.339 143.875,164.435 146.499 C 165.240 148.425,165.249 197.051,164.445 198.606 C 163.547 200.343,163.477 200.350,147.921 200.355 C 129.982 200.362,130.366 200.245,130.204 205.723 C 130.056 210.719,131.627 211.259,146.175 211.204 C 158.456 211.158,158.737 211.261,159.700 216.155 C 160.145 218.416,160.518 218.915,163.638 221.424 L 164.799 222.357 164.799 230.231 C 164.799 239.093,164.846 238.923,161.996 240.361 C 159.942 241.398,155.984 245.418,154.834 247.636 C 154.285 248.695,153.411 249.956,152.891 250.438 C 149.766 253.337,150.566 258.396,154.352 259.687 C 157.732 260.838,159.683 259.961,160.424 256.958 C 161.221 253.725,161.499 252.952,162.027 252.514 C 163.133 251.596,164.009 252.836,164.990 256.710 C 165.656 259.343,166.902 260.245,169.868 260.245 C 173.823 260.245,174.828 259.378,175.818 255.108 C 176.794 250.902,178.688 251.414,179.671 256.151 C 180.514 260.210,182.988 261.261,186.945 259.243 C 189.748 257.813,190.184 253.656,187.814 250.963 C 186.987 250.023,185.911 248.461,185.424 247.490 C 184.347 245.345,180.139 241.198,178.039 240.211 C 175.494 239.015,175.482 238.967,175.482 230.587 C 175.482 222.179,175.571 221.791,177.812 220.477 C 179.527 219.472,180.127 218.505,180.693 215.832 C 181.678 211.179,181.717 211.166,195.433 211.066 C 209.160 210.966,210.158 210.632,210.158 206.134 C 210.158 200.256,210.450 200.350,192.285 200.350 L 177.529 200.350 176.505 199.326 L 175.482 198.303 175.482 172.870 C 175.482 145.992,175.502 145.631,177.068 144.446 C 177.431 144.171,181.195 144.109,189.943 144.232 C 203.434 144.422,206.351 144.187,208.231 142.759 C 211.494 140.279,213.626 140.197,216.863 142.423 C 219.514 144.247,220.232 144.300,242.543 144.304 L 263.195 144.308 266.886 142.588 C 268.917 141.642,271.313 140.553,272.212 140.169 C 275.004 138.975,275.114 138.608,275.249 130.054 C 275.427 118.771,273.770 116.176,265.464 114.725 C 263.483 114.380,262.322 113.970,261.536 113.338 C 260.922 112.845,259.902 112.020,259.268 111.506 C 258.210 110.649,257.677 110.532,252.788 110.096 C 246.851 109.566,245.712 109.294,243.429 107.858 C 240.033 105.723,238.840 105.401,233.033 105.053 C 227.060 104.695,226.139 104.393,224.577 102.281 C 223.443 100.748,222.602 100.525,216.649 100.179 C 210.759 99.837,209.339 99.455,206.229 97.378 C 203.539 95.582,202.632 95.362,196.444 95.005 C 190.959 94.689,190.900 94.669,187.729 92.111 C 185.721 90.491,167.168 89.292,158.669 90.234 M175.570 102.682 C 176.973 104.195,177.781 104.760,178.984 105.070 C 179.851 105.293,181.144 105.627,181.858 105.812 C 182.745 106.042,183.569 106.652,184.462 107.743 C 185.252 108.706,186.581 109.747,187.818 110.372 C 190.496 111.724,191.100 112.867,189.749 114.029 C 188.353 115.230,187.330 115.286,168.942 115.169 L 152.070 115.061 151.166 114.212 C 149.557 112.700,150.282 111.442,153.590 110.007 C 154.553 109.589,155.893 108.713,156.567 108.059 C 157.756 106.907,161.151 105.089,162.127 105.082 C 162.391 105.080,163.603 104.039,164.819 102.768 L 167.030 100.456 170.381 100.578 L 173.732 100.701 175.570 102.682 M129.735 110.798 C 133.920 112.062,131.145 114.835,125.394 115.135 C 121.969 115.314,119.367 114.380,119.156 112.896 C 118.872 110.906,125.643 109.563,129.735 110.798 M218.475 110.872 C 220.199 111.592,221.016 112.379,221.016 113.321 C 221.016 115.990,210.885 115.804,209.443 113.109 C 208.280 110.935,214.776 109.326,218.475 110.872 M365.362 111.471 L 366.149 112.609 365.211 111.760 C 364.695 111.293,364.273 110.781,364.273 110.622 C 364.273 110.092,364.569 110.322,365.362 111.471 M229.213 116.661 C 230.038 117.642,230.109 117.974,230.032 120.503 C 229.952 123.113,230.003 123.326,230.918 124.245 L 231.889 125.219 247.443 125.394 C 262.553 125.564,263.025 125.590,263.985 126.304 C 265.479 127.415,265.443 128.566,263.873 129.944 L 262.561 131.096 242.353 130.925 C 222.533 130.756,222.121 130.739,220.944 130.011 C 217.895 128.127,217.987 127.429,221.601 125.036 C 224.426 123.166,224.653 122.475,223.313 119.830 C 221.706 116.658,222.420 115.587,226.141 115.587 C 228.130 115.587,228.384 115.675,229.213 116.661 M120.053 126.364 C 121.742 127.267,121.942 128.058,120.753 129.145 C 118.668 131.052,119.339 130.998,97.519 130.998 L 77.316 130.998 76.136 129.747 C 74.852 128.386,74.727 127.932,75.394 127.052 C 76.666 125.375,76.589 125.380,98.249 125.478 L 118.564 125.569 120.053 126.364 M205.074 125.957 C 209.185 126.990,209.100 128.625,204.849 130.281 L 202.869 131.053 170.166 131.052 C 137.565 131.051,137.456 131.049,135.544 130.300 C 130.834 128.457,130.779 127.014,135.377 125.884 C 138.359 125.151,202.130 125.217,205.074 125.957 M370.914 142.294 C 370.937 142.716,369.619 141.285,369.165 140.394 C 368.895 139.864,369.125 140.007,369.825 140.806 C 370.416 141.480,370.906 142.150,370.914 142.294 M82.420 181.089 C 81.202 181.580,80.560 182.910,80.325 185.429 C 80.057 188.296,80.399 189.036,82.717 190.608 C 83.933 191.432,84.536 192.124,84.797 192.995 C 85.364 194.887,85.022 248.713,84.430 250.788 C 82.426 257.816,86.255 262.426,91.206 258.946 C 94.222 256.826,95.265 253.746,95.271 246.935 C 95.277 240.328,94.774 240.557,108.945 240.699 C 124.327 240.853,124.490 240.967,125.023 252.014 C 125.384 259.500,125.908 260.245,130.808 260.245 C 133.277 260.245,133.428 260.197,134.326 259.131 L 135.264 258.016 135.115 249.586 C 134.969 241.283,134.950 241.098,133.820 237.303 L 132.673 233.450 133.103 229.220 C 133.558 224.743,133.405 223.147,132.383 221.701 C 132.037 221.211,131.371 219.944,130.903 218.887 C 130.435 217.829,129.544 216.535,128.922 216.012 L 127.792 215.061 112.915 215.061 C 96.500 215.061,96.403 215.049,95.660 212.918 C 95.406 212.190,95.271 207.813,95.271 200.287 C 95.271 187.459,95.175 186.809,93.097 185.719 C 92.463 185.386,91.132 184.288,90.139 183.279 C 87.714 180.814,85.008 180.046,82.420 181.089 M252.974 180.983 C 252.539 181.067,251.593 181.844,250.872 182.709 C 250.152 183.575,248.801 184.699,247.871 185.207 C 245.010 186.770,245.051 186.555,244.896 200.677 L 244.759 213.088 243.773 214.075 L 242.786 215.061 227.785 215.063 C 209.886 215.064,211.524 214.638,208.829 220.002 C 206.797 224.047,206.638 225.176,207.389 230.223 C 207.758 232.706,207.723 232.989,206.453 237.680 L 205.132 242.557 205.106 250.341 L 205.079 258.126 206.181 259.231 C 207.231 260.282,207.407 260.333,209.845 260.283 C 214.409 260.189,215.056 259.282,215.287 252.645 C 215.701 240.773,215.598 240.849,231.542 240.697 L 242.944 240.588 243.889 241.533 C 244.660 242.303,244.838 242.807,244.856 244.268 C 244.980 254.181,246.133 257.527,250.128 259.565 C 254.813 261.955,257.481 257.628,255.865 250.262 C 255.315 247.757,255.241 244.792,255.167 222.242 C 255.076 194.396,255.162 192.489,256.562 191.419 C 260.006 188.783,260.075 188.679,260.014 186.164 C 259.901 181.438,257.976 180.021,252.974 180.983 M120.453 226.205 C 123.837 227.267,123.669 228.517,119.995 229.608 C 117.450 230.364,98.494 230.358,97.030 229.601 C 95.367 228.741,95.321 226.888,96.939 225.945 C 98.070 225.286,118.235 225.509,120.453 226.205 M243.193 225.972 C 244.776 226.805,244.937 228.313,243.560 229.397 C 242.277 230.406,223.166 230.480,220.002 229.487 C 216.788 228.479,216.755 227.092,219.922 226.116 C 222.034 225.466,241.996 225.342,243.193 225.972 " stroke="none" fill="#ffffff" fill-rule="evenodd"></path><path id="path1" d="M7.842 5.143 C 7.435 5.224,6.647 5.765,6.090 6.346 L 5.079 7.402 5.079 175.358 L 5.079 343.315 6.223 344.337 L 7.367 345.359 198.191 345.359 L 389.016 345.359 390.898 344.396 C 393.576 343.025,393.665 342.758,392.549 339.450 C 391.244 335.586,390.598 331.239,390.195 323.609 C 389.826 316.620,389.252 312.845,388.176 310.333 C 386.718 306.932,385.761 301.556,385.282 294.080 C 384.824 286.942,384.138 282.850,382.831 279.448 C 381.474 275.918,380.837 271.854,380.203 262.697 C 379.568 253.518,379.558 253.459,378.063 249.626 C 376.616 245.916,375.991 242.098,375.300 232.750 C 374.757 225.393,374.078 221.185,373.047 218.778 C 371.518 215.212,370.790 210.708,370.045 200.211 C 369.497 192.481,369.269 191.183,367.956 188.307 C 366.510 185.140,365.804 180.488,364.974 168.651 C 364.568 162.871,364.027 160.078,362.706 156.939 C 361.636 154.396,360.924 150.148,360.427 143.343 C 359.729 133.762,359.359 130.986,358.465 128.611 C 356.490 123.364,355.647 118.571,355.165 109.849 C 354.776 102.829,354.406 100.580,353.081 97.219 C 351.580 93.410,350.660 88.026,350.262 80.724 C 349.808 72.395,349.424 69.812,348.158 66.550 C 346.383 61.979,345.657 57.586,345.177 48.511 C 344.887 43.028,344.262 39.544,342.752 34.985 C 341.304 30.611,340.598 26.194,340.268 19.440 C 339.744 8.715,339.209 7.256,335.230 5.705 C 333.727 5.119,10.761 4.565,7.842 5.143 M348.161 7.139 C 348.161 7.621,348.319 8.112,348.511 8.231 C 348.709 8.353,348.862 8.067,348.862 7.572 C 348.862 7.090,348.704 6.599,348.511 6.480 C 348.314 6.358,348.161 6.644,348.161 7.139 M353.095 33.975 C 353.126 35.400,353.711 36.520,353.735 35.201 C 353.746 34.623,353.602 33.914,353.415 33.625 C 353.147 33.211,353.080 33.285,353.095 33.975 M358.319 68.085 C 358.319 68.566,358.476 69.058,358.669 69.177 C 358.867 69.299,359.019 69.012,359.019 68.518 C 359.019 68.036,358.862 67.545,358.669 67.426 C 358.471 67.303,358.319 67.590,358.319 68.085 M184.927 90.832 C 185.980 91.142,187.241 91.717,187.729 92.111 C 190.900 94.669,190.959 94.689,196.444 95.005 C 202.632 95.362,203.539 95.582,206.229 97.378 C 209.339 99.455,210.759 99.837,216.649 100.179 C 222.602 100.525,223.443 100.748,224.577 102.281 C 226.139 104.393,227.060 104.695,233.033 105.053 C 238.840 105.401,240.033 105.723,243.429 107.858 C 245.712 109.294,246.851 109.566,252.788 110.096 C 257.677 110.532,258.210 110.649,259.268 111.506 C 259.902 112.020,260.922 112.845,261.536 113.338 C 262.322 113.970,263.483 114.380,265.464 114.725 C 273.770 116.176,275.427 118.771,275.249 130.054 C 275.114 138.608,275.004 138.975,272.212 140.169 C 271.313 140.553,268.917 141.642,266.886 142.588 L 263.195 144.308 242.543 144.304 C 220.232 144.300,219.514 144.247,216.863 142.423 C 213.626 140.197,211.494 140.279,208.231 142.759 C 206.351 144.187,203.434 144.422,189.943 144.232 C 181.195 144.109,177.431 144.171,177.068 144.446 C 175.502 145.631,175.482 145.992,175.482 172.870 L 175.482 198.303 176.505 199.326 L 177.529 200.350 192.285 200.350 C 210.450 200.350,210.158 200.256,210.158 206.134 C 210.158 210.632,209.160 210.966,195.433 211.066 C 181.717 211.166,181.678 211.179,180.693 215.832 C 180.127 218.505,179.527 219.472,177.812 220.477 C 175.571 221.791,175.482 222.179,175.482 230.587 C 175.482 238.967,175.494 239.015,178.039 240.211 C 180.139 241.198,184.347 245.345,185.424 247.490 C 185.911 248.461,186.987 250.023,187.814 250.963 C 190.184 253.656,189.748 257.813,186.945 259.243 C 182.988 261.261,180.514 260.210,179.671 256.151 C 178.688 251.414,176.794 250.902,175.818 255.108 C 174.828 259.378,173.823 260.245,169.868 260.245 C 166.902 260.245,165.656 259.343,164.990 256.710 C 164.009 252.836,163.133 251.596,162.027 252.514 C 161.499 252.952,161.221 253.725,160.424 256.958 C 159.683 259.961,157.732 260.838,154.352 259.687 C 150.566 258.396,149.766 253.337,152.891 250.438 C 153.411 249.956,154.285 248.695,154.834 247.636 C 155.984 245.418,159.942 241.398,161.996 240.361 C 164.846 238.923,164.799 239.093,164.799 230.231 L 164.799 222.357 163.638 221.424 C 160.518 218.915,160.145 218.416,159.700 216.155 C 158.737 211.261,158.456 211.158,146.175 211.204 C 131.627 211.259,130.056 210.719,130.204 205.723 C 130.366 200.245,129.982 200.362,147.921 200.355 C 163.477 200.350,163.547 200.343,164.445 198.606 C 165.249 197.051,165.240 148.425,164.435 146.499 C 163.339 143.875,164.258 144.025,150.505 144.227 C 136.206 144.437,134.272 144.247,131.520 142.359 C 128.358 140.190,126.964 140.211,123.396 142.482 C 120.579 144.275,119.385 144.354,97.023 144.239 L 76.532 144.133 72.504 142.271 C 66.295 139.400,66.181 139.333,65.600 138.211 C 64.657 136.386,64.738 122.576,65.705 120.486 C 67.221 117.212,69.734 115.562,74.275 114.861 C 77.278 114.397,78.117 114.020,79.990 112.289 C 81.683 110.724,82.721 110.446,88.616 109.978 C 93.596 109.582,93.659 109.562,99.124 106.636 C 101.058 105.601,103.679 105.079,106.965 105.077 C 111.838 105.073,113.399 104.614,115.457 102.582 C 117.548 100.517,118.536 100.231,123.713 100.196 C 128.555 100.163,131.517 99.312,134.449 97.113 C 136.238 95.771,138.407 95.279,143.597 95.041 C 148.703 94.807,149.493 94.574,151.777 92.625 C 153.083 91.511,155.868 90.545,158.669 90.234 C 162.400 89.821,183.092 90.291,184.927 90.832 M363.222 98.733 C 363.222 99.311,363.380 99.881,363.573 100.000 C 363.776 100.126,363.923 99.777,363.923 99.166 C 363.923 98.588,363.765 98.017,363.573 97.898 C 363.369 97.772,363.222 98.121,363.222 98.733 M164.819 102.768 C 163.603 104.039,162.391 105.080,162.127 105.082 C 161.151 105.089,157.756 106.907,156.567 108.059 C 155.893 108.713,154.553 109.589,153.590 110.007 C 150.282 111.442,149.557 112.700,151.166 114.212 L 152.070 115.061 168.942 115.169 C 187.330 115.286,188.353 115.230,189.749 114.029 C 191.100 112.867,190.496 111.724,187.818 110.372 C 186.581 109.747,185.252 108.706,184.462 107.743 C 183.569 106.652,182.745 106.042,181.858 105.812 C 181.144 105.627,179.851 105.293,178.984 105.070 C 177.781 104.760,176.973 104.195,175.570 102.682 L 173.732 100.701 170.381 100.578 L 167.030 100.456 164.819 102.768 M365.538 109.965 C 365.751 110.264,366.101 110.823,366.315 111.208 C 366.529 111.594,366.709 111.721,366.714 111.491 C 366.720 111.261,366.370 110.701,365.937 110.248 C 365.504 109.794,365.324 109.667,365.538 109.965 M121.716 110.797 C 118.534 112.042,118.271 113.147,120.841 114.475 C 124.575 116.407,133.044 114.296,131.484 111.822 C 130.653 110.504,124.197 109.827,121.716 110.797 M211.033 110.818 C 208.735 111.820,208.705 113.221,210.956 114.438 C 212.424 115.233,219.521 115.339,220.436 114.581 C 223.430 112.098,215.436 108.899,211.033 110.818 M364.273 110.622 C 364.273 110.781,364.695 111.293,365.211 111.760 L 366.149 112.609 365.362 111.471 C 364.569 110.322,364.273 110.092,364.273 110.622 M223.195 116.132 C 222.187 116.838,222.213 117.660,223.313 119.830 C 224.653 122.475,224.426 123.166,221.601 125.036 C 217.987 127.429,217.895 128.127,220.944 130.011 C 222.121 130.739,222.533 130.756,242.353 130.925 L 262.561 131.096 263.873 129.944 C 265.443 128.566,265.479 127.415,263.985 126.304 C 263.025 125.590,262.553 125.564,247.443 125.394 L 231.889 125.219 230.918 124.245 C 230.003 123.326,229.952 123.113,230.032 120.503 C 230.150 116.627,229.327 115.587,226.141 115.587 C 224.746 115.587,223.696 115.781,223.195 116.132 M76.883 125.931 C 74.670 127.077,74.489 128.001,76.136 129.747 L 77.316 130.998 97.519 130.998 C 119.339 130.998,118.668 131.052,120.753 129.145 C 121.942 128.058,121.742 127.267,120.053 126.364 L 118.564 125.569 98.249 125.478 C 80.441 125.398,77.804 125.454,76.883 125.931 M135.377 125.884 C 130.779 127.014,130.834 128.457,135.544 130.300 C 137.456 131.049,137.565 131.051,170.166 131.052 L 202.869 131.053 204.849 130.281 C 209.100 128.625,209.185 126.990,205.074 125.957 C 202.130 125.217,138.359 125.151,135.377 125.884 M368.175 127.846 C 368.175 128.327,368.311 129.037,368.476 129.422 C 368.751 130.061,368.777 130.045,368.777 129.247 C 368.777 128.765,368.642 128.056,368.476 127.671 C 368.202 127.032,368.175 127.048,368.175 127.846 M370.050 139.756 C 371.711 141.697,371.733 141.718,371.353 140.981 C 371.155 140.595,370.545 139.887,369.997 139.406 L 369.002 138.531 370.050 139.756 M369.165 140.394 C 369.619 141.285,370.937 142.716,370.914 142.294 C 370.906 142.150,370.416 141.480,369.825 140.806 C 369.125 140.007,368.895 139.864,369.165 140.394 M373.285 151.875 C 373.145 152.016,373.030 152.372,373.030 152.668 C 373.030 153.062,373.133 153.101,373.419 152.815 C 373.634 152.601,373.749 152.244,373.675 152.023 C 373.601 151.801,373.426 151.735,373.285 151.875 M373.461 169.177 C 373.461 169.851,373.533 170.127,373.621 169.790 C 373.710 169.453,373.710 168.901,373.621 168.564 C 373.533 168.227,373.461 168.503,373.461 169.177 M87.402 181.090 C 87.915 181.285,89.147 182.270,90.139 183.279 C 91.132 184.288,92.463 185.386,93.097 185.719 C 95.175 186.809,95.271 187.459,95.271 200.287 C 95.271 207.813,95.406 212.190,95.660 212.918 C 96.403 215.049,96.500 215.061,112.915 215.061 L 127.792 215.061 128.922 216.012 C 129.544 216.535,130.435 217.829,130.903 218.887 C 131.371 219.944,132.037 221.211,132.383 221.701 C 133.405 223.147,133.558 224.743,133.103 229.220 L 132.673 233.450 133.820 237.303 C 134.950 241.098,134.969 241.283,135.115 249.586 L 135.264 258.016 134.326 259.131 C 133.428 260.197,133.277 260.245,130.808 260.245 C 125.908 260.245,125.384 259.500,125.023 252.014 C 124.490 240.967,124.327 240.853,108.945 240.699 C 94.774 240.557,95.277 240.328,95.271 246.935 C 95.265 253.746,94.222 256.826,91.206 258.946 C 86.255 262.426,82.426 257.816,84.430 250.788 C 85.022 248.713,85.364 194.887,84.797 192.995 C 84.536 192.124,83.933 191.432,82.717 190.608 C 80.399 189.036,80.057 188.296,80.325 185.429 C 80.712 181.284,83.467 179.594,87.402 181.090 M258.112 181.244 C 259.403 181.912,259.946 183.316,260.014 186.164 C 260.075 188.679,260.006 188.783,256.562 191.419 C 255.162 192.489,255.076 194.396,255.167 222.242 C 255.241 244.792,255.315 247.757,255.865 250.262 C 257.481 257.628,254.813 261.955,250.128 259.565 C 246.133 257.527,244.980 254.181,244.856 244.268 C 244.838 242.807,244.660 242.303,243.889 241.533 L 242.944 240.588 231.542 240.697 C 215.598 240.849,215.701 240.773,215.287 252.645 C 215.056 259.282,214.409 260.189,209.845 260.283 C 207.407 260.333,207.231 260.282,206.181 259.231 L 205.079 258.126 205.106 250.341 L 205.132 242.557 206.453 237.680 C 207.723 232.989,207.758 232.706,207.389 230.223 C 206.638 225.176,206.797 224.047,208.829 220.002 C 211.524 214.638,209.886 215.064,227.785 215.063 L 242.786 215.061 243.773 214.075 L 244.759 213.088 244.896 200.677 C 245.051 186.555,245.010 186.770,247.871 185.207 C 248.801 184.699,250.152 183.575,250.872 182.709 C 251.593 181.844,252.539 181.067,252.974 180.983 C 254.748 180.642,257.186 180.766,258.112 181.244 M378.284 190.172 C 378.284 190.761,378.441 191.243,378.634 191.243 C 378.827 191.243,378.984 190.859,378.984 190.388 C 378.984 189.918,378.827 189.436,378.634 189.317 C 378.430 189.191,378.284 189.547,378.284 190.172 M383.187 220.099 C 383.187 220.580,383.345 221.072,383.538 221.191 C 383.735 221.313,383.888 221.026,383.888 220.532 C 383.888 220.050,383.730 219.559,383.538 219.440 C 383.340 219.317,383.187 219.604,383.187 220.099 M96.939 225.945 C 95.321 226.888,95.367 228.741,97.030 229.601 C 98.494 230.358,117.450 230.364,119.995 229.608 C 123.669 228.517,123.837 227.267,120.453 226.205 C 118.235 225.509,98.070 225.286,96.939 225.945 M219.922 226.116 C 216.755 227.092,216.788 228.479,220.002 229.487 C 223.166 230.480,242.277 230.406,243.560 229.397 C 244.937 228.313,244.776 226.805,243.193 225.972 C 241.996 225.342,222.034 225.466,219.922 226.116 M388.102 247.636 C 388.102 248.117,388.255 248.748,388.441 249.037 C 388.710 249.453,388.781 249.380,388.781 248.687 C 388.781 248.205,388.628 247.574,388.441 247.285 C 388.173 246.870,388.102 246.943,388.102 247.636 M393.345 281.395 C 393.345 281.876,393.503 282.368,393.695 282.487 C 393.893 282.609,394.046 282.322,394.046 281.828 C 394.046 281.346,393.888 280.855,393.695 280.736 C 393.497 280.613,393.345 280.900,393.345 281.395 M398.249 312.393 C 398.249 312.971,398.406 313.541,398.599 313.660 C 398.803 313.786,398.949 313.437,398.949 312.826 C 398.949 312.248,398.792 311.678,398.599 311.559 C 398.395 311.433,398.249 311.782,398.249 312.393 " stroke="none" fill="#0056bf" fill-rule="evenodd"></path></g></svg>