<svg id="svg" xmlns="http://www.w3.org/2000/svg" xmlns:xlink="http://www.w3.org/1999/xlink" width="400" height="350" viewBox="0, 0, 400,350"><g id="svgg"><path id="path0" d="M0.000 175.131 L 0.000 350.263 200.000 350.263 L 400.000 350.263 400.000 336.427 C 400.000 324.363,399.933 322.592,399.475 322.592 C 399.049 322.592,398.947 322.012,398.936 319.527 C 398.853 300.463,397.689 292.820,394.869 292.820 C 394.059 292.820,394.045 292.761,394.032 289.229 C 393.957 269.770,393.036 263.675,390.081 263.072 L 388.967 262.845 388.712 252.175 C 388.306 235.171,388.031 233.624,385.256 232.704 L 384.063 232.309 383.806 222.722 C 383.374 206.559,382.920 203.444,380.875 202.589 C 379.097 201.847,379.058 201.597,378.671 188.616 C 378.286 175.695,378.064 174.107,376.483 172.938 C 375.932 172.531,375.482 171.930,375.482 171.603 C 375.482 171.276,375.111 170.766,374.659 170.469 L 373.836 169.930 373.605 158.783 C 373.350 146.411,373.112 144.040,372.014 142.942 C 371.609 142.538,371.275 142.088,371.272 141.944 C 371.268 141.799,370.734 141.073,370.084 140.328 L 368.903 138.976 368.681 129.996 C 368.416 119.332,368.016 114.225,367.338 112.889 C 367.065 112.350,366.615 111.436,366.337 110.858 C 366.059 110.280,365.475 109.650,365.038 109.457 C 363.972 108.987,364.001 109.249,363.600 96.497 C 363.189 83.420,362.814 81.370,360.423 79.159 L 359.098 77.933 358.728 66.375 C 358.524 60.018,358.198 54.264,358.003 53.590 C 357.807 52.916,357.560 51.935,357.454 51.411 C 357.255 50.438,354.788 47.636,354.129 47.636 C 353.896 47.636,353.758 45.906,353.745 42.820 C 353.670 24.855,352.897 19.509,350.203 18.320 L 348.862 17.729 348.862 15.225 C 348.862 13.848,348.758 9.859,348.631 6.361 L 348.401 0.000 174.200 0.000 L 0.000 0.000 0.000 175.131 M335.656 5.958 C 339.194 7.282,339.526 8.177,340.118 18.005 C 340.625 26.430,341.260 30.442,342.875 35.423 C 344.399 40.125,344.896 43.056,345.200 49.129 C 345.597 57.063,346.612 63.121,348.141 66.682 C 349.121 68.964,349.804 73.523,350.246 80.736 C 350.703 88.206,351.344 91.922,353.054 97.023 C 354.678 101.866,354.728 102.173,355.171 110.158 C 355.606 117.971,356.264 121.950,357.984 127.150 C 359.423 131.502,359.914 134.613,360.248 141.506 C 360.545 147.623,361.363 153.158,362.398 156.042 C 362.881 157.391,363.566 159.532,363.920 160.800 C 364.566 163.121,364.675 164.082,365.341 173.380 C 365.774 179.431,366.467 183.747,367.456 186.557 C 369.132 191.321,369.559 193.339,369.889 198.074 C 370.734 210.198,371.443 214.888,373.045 218.952 C 374.279 222.082,374.738 224.810,375.133 231.349 C 375.650 239.893,376.333 244.233,377.946 249.212 C 379.402 253.707,379.885 256.650,380.215 263.047 C 380.622 270.957,381.454 275.576,383.491 281.261 C 384.339 283.626,384.840 287.127,385.119 292.644 C 385.521 300.583,386.573 306.469,388.562 311.916 C 389.240 313.773,389.551 315.574,389.832 319.271 C 390.749 331.345,390.952 333.144,391.751 336.266 C 392.218 338.089,392.796 340.237,393.037 341.041 C 393.579 342.848,393.238 343.361,390.718 344.536 L 388.967 345.352 198.134 345.356 L 7.302 345.359 6.308 344.365 C 4.805 342.862,4.869 351.126,4.977 173.789 L 5.079 7.298 6.223 6.276 L 7.367 5.254 170.570 5.254 C 333.193 5.254,333.781 5.256,335.656 5.958 M144.308 65.547 C 143.221 65.726,141.695 66.309,140.806 66.886 C 139.939 67.448,138.286 68.430,137.133 69.068 C 134.920 70.292,131.101 73.830,130.397 75.306 C 130.168 75.788,129.506 77.207,128.926 78.459 C 128.346 79.711,127.548 81.131,127.152 81.615 C 125.666 83.433,124.991 94.660,126.200 97.473 C 127.651 100.849,135.678 100.879,137.881 97.516 C 138.334 96.825,138.504 95.553,138.616 92.004 C 138.860 84.258,140.044 81.288,143.600 79.501 C 144.462 79.068,145.791 78.302,146.552 77.798 L 147.935 76.883 172.654 76.883 L 197.373 76.883 199.701 78.284 C 200.982 79.054,202.509 79.948,203.095 80.269 C 205.213 81.431,206.539 85.808,206.760 92.366 C 206.925 97.259,207.213 97.965,209.550 99.196 C 212.221 100.603,217.589 100.053,218.769 98.252 C 220.686 95.327,219.805 83.742,217.418 80.473 C 216.961 79.847,216.136 78.246,215.586 76.915 C 214.425 74.108,211.709 71.099,208.932 69.542 C 207.968 69.003,206.342 68.003,205.317 67.321 C 202.121 65.194,201.775 65.171,172.504 65.203 C 158.056 65.218,145.368 65.373,144.308 65.547 M365.706 111.442 C 366.238 112.436,365.893 112.202,364.973 110.946 C 364.457 110.241,364.372 109.997,364.751 110.304 C 365.087 110.577,365.517 111.089,365.706 111.442 M100.133 111.164 C 98.624 111.434,97.095 112.018,95.755 112.839 C 94.622 113.532,93.301 114.218,92.820 114.363 C 88.905 115.539,85.063 119.650,80.875 127.145 C 80.240 128.281,79.947 230.147,80.570 233.147 C 80.815 234.328,81.598 235.926,82.822 237.744 C 83.854 239.277,85.035 241.190,85.446 241.995 C 86.206 243.485,86.539 243.756,91.769 247.137 C 97.121 250.595,88.607 250.247,170.403 250.358 C 244.465 250.458,247.321 250.412,250.171 249.072 C 252.973 247.754,258.668 243.887,259.302 242.871 C 259.650 242.313,260.949 240.270,262.189 238.330 C 265.366 233.359,265.149 237.571,265.149 180.911 C 265.149 125.847,265.241 128.186,262.931 124.694 C 262.102 123.441,260.804 121.479,260.047 120.332 C 258.362 117.783,255.683 115.547,253.185 114.606 C 252.156 114.218,250.409 113.354,249.304 112.686 C 247.837 111.798,246.582 111.364,244.649 111.077 C 240.788 110.502,103.374 110.586,100.133 111.164 M245.175 124.495 C 248.432 125.442,249.663 126.194,250.427 127.705 C 250.710 128.264,251.430 129.510,252.027 130.473 C 252.624 131.436,253.221 132.517,253.355 132.875 C 253.488 133.233,253.609 154.854,253.623 180.921 L 253.649 228.317 251.839 231.382 C 249.780 234.868,249.286 235.332,245.446 237.391 L 242.668 238.879 172.735 238.879 L 102.802 238.879 100.585 237.830 C 96.816 236.047,95.386 234.792,93.407 231.534 L 91.594 228.546 91.594 180.687 L 91.594 132.828 92.685 131.300 C 93.285 130.460,94.111 129.112,94.521 128.304 C 95.539 126.296,97.073 125.240,100.175 124.414 C 102.757 123.727,104.005 123.714,172.522 123.679 L 242.243 123.643 245.175 124.495 M370.578 142.479 C 370.578 142.823,369.472 141.705,369.124 141.010 C 368.881 140.523,369.062 140.619,369.669 141.298 C 370.169 141.858,370.578 142.389,370.578 142.479 M164.623 145.948 C 160.864 146.565,160.667 147.109,160.406 157.618 C 160.094 170.126,160.621 169.526,149.953 169.531 C 137.751 169.536,137.763 169.525,137.598 180.560 C 137.467 189.320,137.424 189.152,140.370 191.273 L 142.032 192.469 149.789 192.644 C 160.528 192.887,160.420 192.768,160.420 204.437 C 160.420 215.554,160.639 215.756,172.680 215.756 C 184.652 215.757,184.758 215.662,184.780 204.904 C 184.805 192.716,184.867 192.644,195.445 192.644 L 202.705 192.644 204.592 191.393 C 207.972 189.153,207.896 189.411,207.764 180.560 C 207.599 169.544,207.580 169.527,195.343 169.527 L 187.671 169.527 186.524 168.380 C 185.026 166.882,184.747 165.075,184.882 157.737 C 185.046 148.807,184.342 146.674,181.017 146.031 C 179.517 145.741,166.293 145.674,164.623 145.948 " stroke="none" fill="#ffffff" fill-rule="evenodd"></path><path id="path1" d="M6.223 6.276 L 5.079 7.298 4.977 173.789 C 4.869 351.126,4.805 342.862,6.308 344.365 L 7.302 345.359 198.134 345.356 L 388.967 345.352 390.718 344.536 C 393.238 343.361,393.579 342.848,393.037 341.041 C 392.796 340.237,392.218 338.089,391.751 336.266 C 390.952 333.144,390.749 331.345,389.832 319.271 C 389.551 315.574,389.240 313.773,388.562 311.916 C 386.573 306.469,385.521 300.583,385.119 292.644 C 384.840 287.127,384.339 283.626,383.491 281.261 C 381.454 275.576,380.622 270.957,380.215 263.047 C 379.885 256.650,379.402 253.707,377.946 249.212 C 376.333 244.233,375.650 239.893,375.133 231.349 C 374.738 224.810,374.279 222.082,373.045 218.952 C 371.443 214.888,370.734 210.198,369.889 198.074 C 369.559 193.339,369.132 191.321,367.456 186.557 C 366.467 183.747,365.774 179.431,365.341 173.380 C 364.675 164.082,364.566 163.121,363.920 160.800 C 363.566 159.532,362.881 157.391,362.398 156.042 C 361.363 153.158,360.545 147.623,360.248 141.506 C 359.914 134.613,359.423 131.502,357.984 127.150 C 356.264 121.950,355.606 117.971,355.171 110.158 C 354.728 102.173,354.678 101.866,353.054 97.023 C 351.344 91.922,350.703 88.206,350.246 80.736 C 349.804 73.523,349.121 68.964,348.141 66.682 C 346.612 63.121,345.597 57.063,345.200 49.129 C 344.896 43.056,344.399 40.125,342.875 35.423 C 341.260 30.442,340.625 26.430,340.118 18.005 C 339.526 8.177,339.194 7.282,335.656 5.958 C 333.781 5.256,333.193 5.254,170.570 5.254 L 7.367 5.254 6.223 6.276 M201.114 65.628 C 202.668 65.929,204.079 66.497,205.317 67.321 C 206.342 68.003,207.968 69.003,208.932 69.542 C 211.709 71.099,214.425 74.108,215.586 76.915 C 216.136 78.246,216.961 79.847,217.418 80.473 C 219.805 83.742,220.686 95.327,218.769 98.252 C 217.589 100.053,212.221 100.603,209.550 99.196 C 207.213 97.965,206.925 97.259,206.760 92.366 C 206.539 85.808,205.213 81.431,203.095 80.269 C 202.509 79.948,200.982 79.054,199.701 78.284 L 197.373 76.883 172.654 76.883 L 147.935 76.883 146.552 77.798 C 145.791 78.302,144.462 79.068,143.600 79.501 C 140.044 81.288,138.860 84.258,138.616 92.004 C 138.504 95.553,138.334 96.825,137.881 97.516 C 135.678 100.879,127.651 100.849,126.200 97.473 C 124.991 94.660,125.666 83.433,127.152 81.615 C 127.548 81.131,128.346 79.711,128.926 78.459 C 129.506 77.207,130.168 75.788,130.397 75.306 C 131.101 73.830,134.920 70.292,137.133 69.068 C 138.286 68.430,139.939 67.448,140.806 66.886 C 141.695 66.309,143.221 65.726,144.308 65.547 C 147.531 65.018,198.335 65.090,201.114 65.628 M363.654 98.774 C 363.654 99.448,363.726 99.724,363.814 99.387 C 363.902 99.050,363.902 98.498,363.814 98.161 C 363.726 97.824,363.654 98.100,363.654 98.774 M364.973 110.946 C 365.431 111.572,365.861 112.084,365.928 112.084 C 366.194 112.084,365.325 110.770,364.751 110.304 C 364.372 109.997,364.457 110.241,364.973 110.946 M244.649 111.077 C 246.582 111.364,247.837 111.798,249.304 112.686 C 250.409 113.354,252.156 114.218,253.185 114.606 C 255.683 115.547,258.362 117.783,260.047 120.332 C 260.804 121.479,262.102 123.441,262.931 124.694 C 265.241 128.186,265.149 125.847,265.149 180.911 C 265.149 237.571,265.366 233.359,262.189 238.330 C 260.949 240.270,259.650 242.313,259.302 242.871 C 258.668 243.887,252.973 247.754,250.171 249.072 C 247.321 250.412,244.465 250.458,170.403 250.358 C 88.607 250.247,97.121 250.595,91.769 247.137 C 86.539 243.756,86.206 243.485,85.446 241.995 C 85.035 241.190,83.854 239.277,82.822 237.744 C 81.598 235.926,80.815 234.328,80.570 233.147 C 79.947 230.147,80.240 128.281,80.875 127.145 C 85.063 119.650,88.905 115.539,92.820 114.363 C 93.301 114.218,94.622 113.532,95.755 112.839 C 97.095 112.018,98.624 111.434,100.133 111.164 C 103.374 110.586,240.788 110.502,244.649 111.077 M100.175 124.414 C 97.073 125.240,95.539 126.296,94.521 128.304 C 94.111 129.112,93.285 130.460,92.685 131.300 L 91.594 132.828 91.594 180.687 L 91.594 228.546 93.407 231.534 C 95.386 234.792,96.816 236.047,100.585 237.830 L 102.802 238.879 172.735 238.879 L 242.668 238.879 245.446 237.391 C 249.286 235.332,249.780 234.868,251.839 231.382 L 253.649 228.317 253.623 180.921 C 253.609 154.854,253.488 133.233,253.355 132.875 C 253.221 132.517,252.624 131.436,252.027 130.473 C 251.430 129.510,250.710 128.264,250.427 127.705 C 249.663 126.194,248.432 125.442,245.175 124.495 L 242.243 123.643 172.522 123.679 C 104.005 123.714,102.757 123.727,100.175 124.414 M369.224 139.229 C 369.487 139.615,369.787 140.009,369.889 140.105 C 369.992 140.201,370.426 140.735,370.853 141.291 C 371.280 141.846,371.629 142.143,371.629 141.949 C 371.629 141.755,370.980 140.906,370.188 140.063 C 369.395 139.219,368.962 138.844,369.224 139.229 M369.124 141.010 C 369.472 141.705,370.578 142.823,370.578 142.479 C 370.578 142.389,370.169 141.858,369.669 141.298 C 369.062 140.619,368.881 140.523,369.124 141.010 M181.017 146.031 C 184.342 146.674,185.046 148.807,184.882 157.737 C 184.747 165.075,185.026 166.882,186.524 168.380 L 187.671 169.527 195.343 169.527 C 207.580 169.527,207.599 169.544,207.764 180.560 C 207.896 189.411,207.972 189.153,204.592 191.393 L 202.705 192.644 195.445 192.644 C 184.867 192.644,184.805 192.716,184.780 204.904 C 184.758 215.662,184.652 215.757,172.680 215.756 C 160.639 215.756,160.420 215.554,160.420 204.437 C 160.420 192.768,160.528 192.887,149.789 192.644 L 142.032 192.469 140.370 191.273 C 137.424 189.152,137.467 189.320,137.598 180.560 C 137.763 169.525,137.751 169.536,149.953 169.531 C 160.621 169.526,160.094 170.126,160.406 157.618 C 160.715 145.212,160.084 145.830,172.504 145.772 C 176.357 145.754,180.188 145.871,181.017 146.031 M398.680 312.434 C 398.680 313.109,398.752 313.384,398.840 313.047 C 398.928 312.710,398.928 312.158,398.840 311.821 C 398.752 311.484,398.680 311.760,398.680 312.434 " stroke="none" fill="#0056bf" fill-rule="evenodd"></path></g></svg>