<svg id="svg" xmlns="http://www.w3.org/2000/svg" xmlns:xlink="http://www.w3.org/1999/xlink" width="400" height="350" viewBox="0, 0, 400,350"><g id="svgg"><path id="path0" d="M0.000 175.131 L 0.000 350.263 200.000 350.263 L 400.000 350.263 400.000 336.427 C 400.000 324.363,399.933 322.592,399.475 322.592 C 399.047 322.592,398.945 321.989,398.929 319.352 C 398.806 299.953,397.663 292.820,394.681 292.820 C 394.109 292.820,394.044 292.458,394.033 289.229 C 393.968 269.917,393.024 263.672,390.081 263.072 L 388.967 262.845 388.720 252.701 C 388.275 234.451,388.110 233.503,385.258 232.829 L 384.014 232.535 383.620 220.033 C 383.133 204.617,382.856 203.280,380.008 202.629 L 379.104 202.423 378.715 189.565 C 378.326 176.736,378.073 174.406,376.932 173.145 C 376.613 172.793,376.150 172.049,375.902 171.492 C 375.655 170.936,375.090 170.195,374.646 169.847 C 373.846 169.217,373.839 169.142,373.605 158.249 C 373.348 146.321,373.109 144.038,372.004 142.932 C 371.605 142.533,371.275 142.088,371.272 141.944 C 371.268 141.799,370.734 141.073,370.084 140.328 L 368.903 138.976 368.684 129.996 C 368.312 114.821,367.940 112.905,364.773 109.846 C 364.030 109.129,363.996 108.745,363.632 97.023 C 363.426 90.377,363.098 84.387,362.904 83.713 C 362.710 83.039,362.453 82.014,362.334 81.436 C 362.209 80.836,361.465 79.778,360.597 78.970 L 359.079 77.554 358.832 68.111 C 358.442 53.192,357.842 50.098,355.000 48.342 L 353.765 47.579 353.747 42.791 C 353.682 25.316,352.850 19.723,350.119 18.427 L 348.862 17.831 348.862 15.276 C 348.862 13.871,348.758 9.859,348.631 6.361 L 348.401 0.000 174.200 0.000 L 0.000 0.000 0.000 175.131 M333.140 5.259 C 339.092 6.379,339.695 7.605,340.281 19.790 C 340.579 25.960,341.271 30.110,342.783 34.780 C 344.318 39.521,344.934 43.261,345.364 50.438 C 345.800 57.718,346.522 62.129,347.816 65.404 C 349.112 68.683,349.790 72.593,350.081 78.459 C 350.516 87.230,351.074 90.576,353.237 97.373 C 354.473 101.261,355.017 105.025,355.335 111.908 C 355.603 117.690,356.415 122.454,357.867 126.757 C 359.358 131.178,360.042 134.826,360.058 138.456 C 360.086 144.766,361.389 153.775,362.741 157.008 C 364.110 160.283,364.610 163.153,365.152 170.855 C 365.742 179.236,366.389 183.385,367.648 186.858 C 369.069 190.775,369.490 192.858,369.880 197.898 C 370.982 212.154,371.160 213.297,373.223 219.440 C 374.494 223.224,374.959 226.351,375.305 233.450 C 375.599 239.472,376.631 245.600,377.914 248.948 C 379.422 252.885,379.650 254.244,380.228 262.734 C 380.847 271.822,381.438 275.508,382.856 279.112 C 384.122 282.330,384.803 286.546,385.267 294.046 C 385.679 300.714,386.724 307.124,387.883 310.101 C 389.610 314.535,389.732 315.249,390.181 323.544 C 390.598 331.255,390.930 333.532,392.361 338.485 C 393.635 342.896,393.607 343.009,390.898 344.396 L 389.016 345.359 198.191 345.359 L 7.367 345.359 6.223 344.337 L 5.079 343.315 5.079 175.358 L 5.079 7.402 6.090 6.346 C 6.647 5.765,7.435 5.225,7.842 5.145 C 9.576 4.803,331.321 4.916,333.140 5.259 M163.278 101.224 C 162.634 101.376,161.610 101.972,161.001 102.547 C 159.574 103.897,159.081 104.137,155.125 105.404 C 153.312 105.985,151.176 106.940,150.378 107.527 C 149.580 108.114,147.271 109.208,145.246 109.959 C 143.221 110.711,140.487 111.975,139.171 112.770 C 137.855 113.565,135.438 114.615,133.800 115.105 C 131.950 115.658,129.961 116.572,128.546 117.520 C 127.116 118.479,124.857 119.513,122.471 120.303 C 120.100 121.088,118.084 122.009,117.106 122.756 C 115.585 123.917,114.439 124.385,110.259 125.549 C 109.159 125.856,107.250 126.797,106.018 127.640 C 104.615 128.600,102.667 129.513,100.809 130.080 C 99.176 130.578,97.263 131.382,96.556 131.867 C 95.850 132.353,94.741 133.114,94.094 133.559 C 93.446 134.005,91.542 134.732,89.864 135.176 C 86.361 136.101,82.102 138.703,80.896 140.654 C 79.812 142.408,79.760 267.178,80.843 268.637 C 82.195 270.459,80.768 270.392,118.185 270.398 C 155.441 270.403,156.879 270.346,158.440 268.785 C 159.692 267.533,159.791 265.894,159.661 248.520 C 159.532 231.263,159.407 232.247,161.891 230.962 C 163.796 229.977,171.401 230.674,172.979 231.978 C 174.083 232.891,174.168 234.281,174.117 250.613 C 174.061 268.624,174.012 268.162,176.151 269.604 L 177.337 270.403 212.170 270.403 C 250.320 270.403,248.687 270.491,249.776 268.372 C 250.573 266.823,250.681 143.572,249.888 140.846 C 249.068 138.023,247.435 136.529,244.125 135.572 C 240.421 134.501,239.799 134.226,237.181 132.507 C 235.900 131.665,233.827 130.666,232.574 130.287 C 231.322 129.908,229.667 129.211,228.897 128.739 C 225.991 126.960,224.241 126.159,220.841 125.053 C 218.914 124.427,216.786 123.485,216.112 122.960 C 214.363 121.598,213.631 121.252,209.665 119.919 C 207.721 119.265,205.314 118.169,204.317 117.484 C 202.615 116.314,198.367 114.560,197.197 114.543 C 196.908 114.539,195.332 113.747,193.694 112.783 C 192.057 111.819,189.457 110.626,187.916 110.132 C 186.375 109.638,184.197 108.623,183.076 107.878 C 181.956 107.132,179.749 106.096,178.173 105.576 C 175.396 104.660,172.959 103.508,170.053 101.740 C 168.572 100.839,165.800 100.628,163.278 101.224 M170.053 118.394 C 171.016 118.932,173.380 119.855,175.306 120.447 C 177.901 121.244,179.232 121.873,180.439 122.873 C 181.519 123.769,182.937 124.487,184.642 125.004 C 188.921 126.301,190.128 126.805,191.949 128.057 C 192.908 128.717,195.128 129.722,196.884 130.291 C 198.828 130.921,200.984 131.941,202.402 132.901 C 203.981 133.970,205.629 134.718,207.531 135.230 C 210.679 136.077,211.320 136.367,213.908 138.109 C 214.911 138.784,217.216 139.831,219.032 140.436 C 220.847 141.041,223.209 142.064,224.282 142.710 C 225.354 143.355,227.856 144.492,229.841 145.234 C 233.193 146.489,233.631 146.767,235.987 149.142 C 238.931 152.109,239.094 152.546,238.570 156.068 C 238.006 159.857,238.023 245.511,238.588 249.755 C 239.214 254.456,237.428 257.794,233.738 258.819 C 230.849 259.621,193.096 259.306,191.359 258.465 C 188.821 257.236,187.271 253.609,187.779 250.088 C 188.028 248.364,188.075 244.328,187.916 238.354 C 187.782 233.345,187.693 227.724,187.718 225.863 C 187.777 221.399,186.668 218.322,184.477 216.873 L 183.061 215.937 165.637 215.937 C 148.495 215.937,148.196 215.949,147.223 216.671 C 145.268 218.123,145.220 218.576,144.998 237.653 C 144.786 255.935,144.693 257.019,143.219 258.354 C 142.515 258.991,141.525 259.023,120.135 259.117 L 97.785 259.214 96.866 258.416 C 94.872 256.685,94.930 258.339,94.925 203.026 L 94.921 152.287 96.043 150.182 C 97.428 147.584,98.599 146.776,103.252 145.209 C 105.216 144.548,107.494 143.526,108.315 142.937 C 109.136 142.349,111.147 141.416,112.785 140.863 C 116.058 139.759,118.355 138.671,119.965 137.466 C 120.543 137.033,122.828 136.108,125.044 135.410 C 127.396 134.670,129.509 133.772,130.123 133.252 C 131.572 132.023,133.150 131.252,136.427 130.170 C 137.968 129.662,140.130 128.634,141.230 127.887 C 142.415 127.082,144.667 126.066,146.752 125.397 C 148.689 124.775,150.784 123.895,151.407 123.443 C 153.295 122.071,155.091 121.191,157.552 120.433 C 158.841 120.036,160.525 119.385,161.296 118.986 C 165.214 116.960,167.239 116.823,170.053 118.394 M370.578 142.479 C 370.578 142.823,369.472 141.705,369.124 141.010 C 368.881 140.523,369.062 140.619,369.669 141.298 C 370.169 141.858,370.578 142.389,370.578 142.479 M112.253 159.497 C 108.531 161.155,107.567 166.807,110.344 170.685 C 112.298 173.413,112.500 173.453,123.707 173.318 L 133.053 173.205 135.090 171.770 C 140.072 168.261,140.220 162.773,135.400 160.272 L 133.321 159.194 123.316 159.110 C 115.545 159.045,113.074 159.131,112.253 159.497 M156.662 159.388 C 152.181 160.273,150.963 161.657,150.963 165.866 C 150.963 169.414,151.491 170.284,154.641 171.926 L 157.093 173.205 167.301 173.205 C 177.017 173.205,177.546 173.171,178.284 172.504 C 181.814 169.316,181.672 161.273,178.056 159.546 C 176.817 158.955,159.506 158.827,156.662 159.388 M198.178 159.268 C 194.925 159.765,193.724 166.090,196.017 170.653 C 197.298 173.202,197.185 173.179,208.231 173.193 C 223.021 173.211,224.869 172.396,224.869 165.852 C 224.869 161.186,223.956 160.116,219.372 159.408 C 217.030 159.047,200.355 158.937,198.178 159.268 M375.482 172.088 C 375.482 172.280,375.166 172.153,374.781 171.804 C 374.396 171.455,374.081 171.012,374.081 170.820 C 374.081 170.627,374.396 170.755,374.781 171.103 C 375.166 171.452,375.482 171.895,375.482 172.088 M111.754 188.303 C 107.960 191.495,107.712 198.081,111.294 200.515 L 112.597 201.401 122.794 201.401 L 132.991 201.401 135.235 200.263 C 140.636 197.522,139.956 191.076,133.952 188.097 C 132.626 187.439,131.852 187.391,122.683 187.391 L 112.838 187.391 111.754 188.303 M155.342 188.281 C 149.126 190.827,148.968 198.815,155.096 200.707 C 158.601 201.790,177.142 201.763,178.673 200.673 C 181.732 198.495,181.558 191.169,178.378 188.222 L 177.481 187.391 167.462 187.405 C 157.641 187.420,157.402 187.437,155.342 188.281 M198.424 187.641 C 194.436 188.606,193.469 198.947,197.186 200.870 C 198.034 201.308,199.948 201.401,208.098 201.401 C 223.457 201.401,224.597 201.009,224.817 195.644 C 225.122 188.223,223.437 187.368,208.632 187.431 C 203.403 187.454,198.809 187.548,198.424 187.641 M112.659 216.122 C 108.334 217.418,107.340 227.709,111.343 229.752 C 113.613 230.910,132.201 230.856,134.494 229.685 C 139.879 226.933,138.525 217.484,132.547 216.097 C 130.819 215.696,114.010 215.717,112.659 216.122 M200.175 216.104 C 195.929 216.501,195.125 217.794,195.105 224.267 C 195.085 230.486,195.275 230.566,209.596 230.395 C 224.391 230.219,224.691 230.089,224.693 223.881 C 224.695 216.710,222.816 215.716,209.457 215.821 C 205.701 215.851,201.524 215.978,200.175 216.104 " stroke="none" fill="#ffffff" fill-rule="evenodd"></path><path id="path1" d="M7.842 5.145 C 7.435 5.225,6.647 5.765,6.090 6.346 L 5.079 7.402 5.079 175.358 L 5.079 343.315 6.223 344.337 L 7.367 345.359 198.191 345.359 L 389.016 345.359 390.898 344.396 C 393.607 343.009,393.635 342.896,392.361 338.485 C 390.930 333.532,390.598 331.255,390.181 323.544 C 389.732 315.249,389.610 314.535,387.883 310.101 C 386.724 307.124,385.679 300.714,385.267 294.046 C 384.803 286.546,384.122 282.330,382.856 279.112 C 381.438 275.508,380.847 271.822,380.228 262.734 C 379.650 254.244,379.422 252.885,377.914 248.948 C 376.631 245.600,375.599 239.472,375.305 233.450 C 374.959 226.351,374.494 223.224,373.223 219.440 C 371.160 213.297,370.982 212.154,369.880 197.898 C 369.490 192.858,369.069 190.775,367.648 186.858 C 366.389 183.385,365.742 179.236,365.152 170.855 C 364.610 163.153,364.110 160.283,362.741 157.008 C 361.389 153.775,360.086 144.766,360.058 138.456 C 360.042 134.826,359.358 131.178,357.867 126.757 C 356.415 122.454,355.603 117.690,355.335 111.908 C 355.017 105.025,354.473 101.261,353.237 97.373 C 351.074 90.576,350.516 87.230,350.081 78.459 C 349.790 72.593,349.112 68.683,347.816 65.404 C 346.522 62.129,345.800 57.718,345.364 50.438 C 344.934 43.261,344.318 39.521,342.783 34.780 C 341.271 30.110,340.579 25.960,340.281 19.790 C 339.695 7.605,339.092 6.379,333.140 5.259 C 331.321 4.916,9.576 4.803,7.842 5.145 M353.496 34.676 C 353.496 35.350,353.568 35.626,353.657 35.289 C 353.745 34.952,353.745 34.400,353.657 34.063 C 353.568 33.726,353.496 34.002,353.496 34.676 M170.053 101.740 C 172.959 103.508,175.396 104.660,178.173 105.576 C 179.749 106.096,181.956 107.132,183.076 107.878 C 184.197 108.623,186.375 109.638,187.916 110.132 C 189.457 110.626,192.057 111.819,193.694 112.783 C 195.332 113.747,196.908 114.539,197.197 114.543 C 198.367 114.560,202.615 116.314,204.317 117.484 C 205.314 118.169,207.721 119.265,209.665 119.919 C 213.631 121.252,214.363 121.598,216.112 122.960 C 216.786 123.485,218.914 124.427,220.841 125.053 C 224.241 126.159,225.991 126.960,228.897 128.739 C 229.667 129.211,231.322 129.908,232.574 130.287 C 233.827 130.666,235.900 131.665,237.181 132.507 C 239.799 134.226,240.421 134.501,244.125 135.572 C 247.435 136.529,249.068 138.023,249.888 140.846 C 250.681 143.572,250.573 266.823,249.776 268.372 C 248.687 270.491,250.320 270.403,212.170 270.403 L 177.337 270.403 176.151 269.604 C 174.012 268.162,174.061 268.624,174.117 250.613 C 174.168 234.281,174.083 232.891,172.979 231.978 C 171.401 230.674,163.796 229.977,161.891 230.962 C 159.407 232.247,159.532 231.263,159.661 248.520 C 159.791 265.894,159.692 267.533,158.440 268.785 C 156.879 270.346,155.441 270.403,118.185 270.398 C 80.768 270.392,82.195 270.459,80.843 268.637 C 79.760 267.178,79.812 142.408,80.896 140.654 C 82.102 138.703,86.361 136.101,89.864 135.176 C 91.542 134.732,93.446 134.005,94.094 133.559 C 94.741 133.114,95.850 132.353,96.556 131.867 C 97.263 131.382,99.176 130.578,100.809 130.080 C 102.667 129.513,104.615 128.600,106.018 127.640 C 107.250 126.797,109.159 125.856,110.259 125.549 C 114.439 124.385,115.585 123.917,117.106 122.756 C 118.084 122.009,120.100 121.088,122.471 120.303 C 124.857 119.513,127.116 118.479,128.546 117.520 C 129.961 116.572,131.950 115.658,133.800 115.105 C 135.438 114.615,137.855 113.565,139.171 112.770 C 140.487 111.975,143.221 110.711,145.246 109.959 C 147.271 109.208,149.580 108.114,150.378 107.527 C 151.176 106.940,153.312 105.985,155.125 105.404 C 159.081 104.137,159.574 103.897,161.001 102.547 C 162.973 100.682,167.631 100.266,170.053 101.740 M364.715 109.824 C 365.247 110.393,365.931 111.173,366.235 111.559 C 366.607 112.030,366.577 111.871,366.143 111.074 C 365.789 110.421,365.105 109.641,364.623 109.339 C 363.771 108.804,363.773 108.817,364.715 109.824 M164.799 117.653 C 163.643 117.988,162.067 118.588,161.296 118.986 C 160.525 119.385,158.841 120.036,157.552 120.433 C 155.091 121.191,153.295 122.071,151.407 123.443 C 150.784 123.895,148.689 124.775,146.752 125.397 C 144.667 126.066,142.415 127.082,141.230 127.887 C 140.130 128.634,137.968 129.662,136.427 130.170 C 133.150 131.252,131.572 132.023,130.123 133.252 C 129.509 133.772,127.396 134.670,125.044 135.410 C 122.828 136.108,120.543 137.033,119.965 137.466 C 118.355 138.671,116.058 139.759,112.785 140.863 C 111.147 141.416,109.136 142.349,108.315 142.937 C 107.494 143.526,105.216 144.548,103.252 145.209 C 98.599 146.776,97.428 147.584,96.043 150.182 L 94.921 152.287 94.925 203.026 C 94.930 258.339,94.872 256.685,96.866 258.416 L 97.785 259.214 120.135 259.117 C 141.525 259.023,142.515 258.991,143.219 258.354 C 144.693 257.019,144.786 255.935,144.998 237.653 C 145.220 218.576,145.268 218.123,147.223 216.671 C 148.196 215.949,148.495 215.937,165.637 215.937 L 183.061 215.937 184.477 216.873 C 186.668 218.322,187.777 221.399,187.718 225.863 C 187.693 227.724,187.782 233.345,187.916 238.354 C 188.075 244.328,188.028 248.364,187.779 250.088 C 187.271 253.609,188.821 257.236,191.359 258.465 C 193.096 259.306,230.849 259.621,233.738 258.819 C 237.428 257.794,239.214 254.456,238.588 249.755 C 238.023 245.511,238.006 159.857,238.570 156.068 C 239.094 152.546,238.931 152.109,235.987 149.142 C 233.631 146.767,233.193 146.489,229.841 145.234 C 227.856 144.492,225.354 143.355,224.282 142.710 C 223.209 142.064,220.847 141.041,219.032 140.436 C 217.216 139.831,214.911 138.784,213.908 138.109 C 211.320 136.367,210.679 136.077,207.531 135.230 C 205.629 134.718,203.981 133.970,202.402 132.901 C 200.984 131.941,198.828 130.921,196.884 130.291 C 195.128 129.722,192.908 128.717,191.949 128.057 C 190.128 126.805,188.921 126.301,184.642 125.004 C 182.937 124.487,181.519 123.769,180.439 122.873 C 179.232 121.873,177.901 121.244,175.306 120.447 C 173.380 119.855,171.016 118.932,170.053 118.394 C 167.601 117.026,167.173 116.965,164.799 117.653 M369.224 139.229 C 369.487 139.615,369.787 140.009,369.889 140.105 C 369.992 140.201,370.426 140.735,370.853 141.291 C 371.280 141.846,371.629 142.143,371.629 141.949 C 371.629 141.755,370.980 140.906,370.188 140.063 C 369.395 139.219,368.962 138.844,369.224 139.229 M369.124 141.010 C 369.472 141.705,370.578 142.823,370.578 142.479 C 370.578 142.389,370.169 141.858,369.669 141.298 C 369.062 140.619,368.881 140.523,369.124 141.010 M135.400 160.272 C 140.220 162.773,140.072 168.261,135.090 171.770 L 133.053 173.205 123.707 173.318 C 112.500 173.453,112.298 173.413,110.344 170.685 C 108.346 167.895,108.211 163.367,110.064 161.257 C 112.002 159.049,112.202 159.017,123.316 159.110 L 133.321 159.194 135.400 160.272 M178.056 159.546 C 181.672 161.273,181.814 169.316,178.284 172.504 C 177.546 173.171,177.017 173.205,167.301 173.205 L 157.093 173.205 154.641 171.926 C 151.491 170.284,150.963 169.414,150.963 165.866 C 150.963 159.825,152.686 159.118,167.548 159.058 C 175.255 159.026,177.151 159.114,178.056 159.546 M219.372 159.408 C 223.956 160.116,224.869 161.186,224.869 165.852 C 224.869 172.396,223.021 173.211,208.231 173.193 C 197.185 173.179,197.298 173.202,196.017 170.653 C 193.724 166.090,194.925 159.765,198.178 159.268 C 200.355 158.937,217.030 159.047,219.372 159.408 M374.334 169.553 C 374.762 169.999,375.200 170.276,375.308 170.168 C 375.415 170.060,375.065 169.696,374.529 169.357 L 373.555 168.742 374.334 169.553 M374.081 170.820 C 374.081 171.012,374.396 171.455,374.781 171.804 C 375.166 172.153,375.482 172.280,375.482 172.088 C 375.482 171.895,375.166 171.452,374.781 171.103 C 374.396 170.755,374.081 170.627,374.081 170.820 M375.765 171.103 C 375.942 171.489,376.175 172.040,376.282 172.329 C 376.451 172.783,376.481 172.780,376.505 172.309 C 376.520 172.008,376.287 171.457,375.988 171.083 C 375.452 170.414,375.448 170.414,375.765 171.103 M133.952 188.097 C 139.956 191.076,140.636 197.522,135.235 200.263 L 132.991 201.401 122.794 201.401 L 112.597 201.401 111.294 200.515 C 107.712 198.081,107.960 191.495,111.754 188.303 L 112.838 187.391 122.683 187.391 C 131.852 187.391,132.626 187.439,133.952 188.097 M178.378 188.222 C 181.558 191.169,181.732 198.495,178.673 200.673 C 177.694 201.370,177.217 201.401,167.496 201.401 C 153.270 201.401,151.492 200.810,150.976 195.903 C 150.229 188.788,152.868 187.427,167.462 187.405 L 177.481 187.391 178.378 188.222 M220.427 188.097 C 224.207 189.264,225.022 190.666,224.817 195.644 C 224.597 201.009,223.457 201.401,208.098 201.401 C 199.948 201.401,198.034 201.308,197.186 200.870 C 193.469 198.947,194.436 188.606,198.424 187.641 C 200.845 187.056,218.221 187.416,220.427 188.097 M378.715 190.193 C 378.715 190.867,378.787 191.143,378.875 190.806 C 378.964 190.468,378.964 189.917,378.875 189.580 C 378.787 189.243,378.715 189.518,378.715 190.193 M132.547 216.097 C 138.525 217.484,139.879 226.933,134.494 229.685 C 132.201 230.856,113.613 230.910,111.343 229.752 C 107.340 227.709,108.334 217.418,112.659 216.122 C 114.010 215.717,130.819 215.696,132.547 216.097 M218.564 216.132 C 223.550 216.933,224.694 218.379,224.693 223.881 C 224.691 230.089,224.391 230.219,209.596 230.395 C 197.215 230.543,196.535 230.437,195.609 228.220 C 194.345 225.194,195.383 217.406,197.160 216.591 C 198.790 215.844,214.649 215.504,218.564 216.132 " stroke="none" fill="#0056bf" fill-rule="evenodd"></path></g></svg>