<svg id="svg" xmlns="http://www.w3.org/2000/svg" xmlns:xlink="http://www.w3.org/1999/xlink" width="400" height="350" viewBox="0, 0, 400,350"><g id="svgg"><path id="path0" d="M0.000 175.131 L 0.000 350.263 200.000 350.263 L 400.000 350.263 400.000 336.427 C 400.000 324.363,399.933 322.592,399.475 322.592 C 399.036 322.592,398.949 321.878,398.949 318.272 C 398.949 315.896,398.843 313.846,398.714 313.717 C 398.585 313.588,398.452 310.370,398.419 306.566 C 398.335 296.956,397.210 292.820,394.681 292.820 C 394.097 292.820,394.046 292.413,394.046 287.799 C 394.046 285.038,393.957 282.690,393.848 282.581 C 393.739 282.473,393.595 279.176,393.528 275.255 C 393.393 267.417,392.960 264.783,391.626 263.703 C 390.705 262.958,389.685 262.819,390.023 263.485 C 390.145 263.726,390.019 263.647,389.742 263.310 C 389.466 262.973,389.100 262.697,388.928 262.697 C 388.757 262.697,388.605 259.584,388.591 255.779 C 388.519 235.808,387.953 232.401,384.807 233.002 L 383.950 233.166 383.905 227.560 C 383.880 224.476,383.778 221.822,383.679 221.662 C 383.580 221.501,383.445 218.098,383.379 214.100 C 383.264 207.115,383.057 205.077,382.498 205.422 C 382.355 205.511,382.306 205.229,382.388 204.796 C 382.563 203.882,381.756 203.052,380.210 202.556 L 379.159 202.219 379.063 196.731 C 379.010 193.713,378.834 191.243,378.673 191.243 C 378.511 191.243,378.453 189.076,378.544 186.427 C 378.792 179.204,377.808 172.680,376.472 172.680 C 376.290 172.680,376.253 172.861,376.391 173.084 C 376.547 173.336,376.487 173.393,376.231 173.235 C 376.005 173.095,375.917 172.825,376.035 172.634 C 376.389 172.061,375.532 170.443,374.511 169.757 L 373.555 169.115 373.651 160.827 C 373.711 155.692,373.625 152.725,373.425 153.027 C 373.220 153.337,373.166 152.701,373.277 151.275 C 373.535 147.968,372.896 144.012,371.960 143.113 L 371.199 142.382 371.632 143.257 C 371.982 143.965,371.979 144.052,371.620 143.713 C 371.375 143.482,371.159 142.919,371.139 142.460 C 371.103 141.618,369.248 138.969,368.861 139.208 C 368.651 139.338,368.553 134.909,368.521 123.818 C 368.508 119.691,368.395 118.025,368.149 118.389 C 367.895 118.767,367.854 118.553,368.004 117.620 C 368.244 116.121,367.878 113.731,367.447 113.997 C 367.286 114.097,367.176 113.908,367.202 113.577 C 367.229 113.247,367.067 112.973,366.842 112.968 C 366.617 112.964,366.302 112.816,366.141 112.641 C 365.972 112.456,366.033 112.428,366.287 112.574 C 367.303 113.159,365.736 110.565,364.550 109.700 C 364.002 109.300,363.923 108.657,363.923 104.592 C 363.923 102.034,363.828 99.847,363.713 99.732 C 363.597 99.616,363.460 96.398,363.409 92.580 C 363.312 85.455,362.803 81.752,361.687 80.048 C 361.122 79.185,359.212 77.681,358.980 77.916 C 358.905 77.991,358.893 76.235,358.954 74.012 C 359.014 71.790,358.946 69.714,358.804 69.399 C 358.661 69.084,358.579 66.699,358.621 64.098 C 358.721 58.007,357.990 52.321,356.837 50.209 C 356.506 49.601,355.685 48.765,355.015 48.351 L 353.796 47.597 353.657 41.224 C 353.339 26.520,353.214 23.955,352.754 22.592 C 351.750 19.621,351.370 19.021,350.119 18.427 L 348.862 17.831 348.862 13.139 C 348.862 10.559,348.725 8.363,348.557 8.260 C 348.390 8.156,348.322 6.216,348.407 3.948 C 348.518 0.992,348.457 -0.026,348.192 0.350 C 347.941 0.706,347.820 0.734,347.816 0.438 C 347.812 0.088,312.793 0.000,173.905 0.000 L 0.000 0.000 0.000 175.131 M335.656 5.958 C 339.199 7.284,339.504 8.121,340.118 18.214 C 340.633 26.676,341.377 31.350,342.956 36.034 C 344.393 40.299,345.359 46.406,345.359 51.226 C 345.359 55.826,346.614 62.743,348.171 66.725 C 349.335 69.702,349.814 72.921,350.254 80.736 C 350.677 88.235,351.362 92.280,353.070 97.373 C 354.479 101.573,354.921 104.566,355.330 112.681 C 355.583 117.713,356.329 121.953,357.659 125.918 C 359.345 130.948,359.695 132.896,360.078 139.405 C 360.645 149.049,361.547 154.786,363.021 158.119 C 364.084 160.522,364.881 165.189,365.147 170.578 C 365.588 179.501,366.341 183.839,368.446 189.582 C 369.345 192.035,369.731 194.850,370.237 202.627 C 370.714 209.949,371.268 213.223,372.858 218.106 C 374.354 222.700,374.635 224.461,375.303 233.450 C 375.929 241.868,376.603 245.934,377.919 249.226 C 379.314 252.717,379.617 254.543,380.204 262.987 C 380.832 272.016,381.459 275.840,382.899 279.423 C 384.119 282.460,384.719 286.257,385.269 294.427 C 385.728 301.262,386.797 307.380,388.138 310.858 C 389.450 314.260,389.732 316.078,390.177 324.034 C 390.594 331.490,391.008 334.313,392.341 338.802 C 393.515 342.758,393.426 343.175,391.144 344.395 L 389.667 345.184 198.486 345.273 L 7.304 345.362 6.309 344.366 C 4.805 342.862,4.869 351.145,4.977 173.789 L 5.079 7.298 6.223 6.276 L 7.367 5.254 170.570 5.254 C 333.193 5.254,333.781 5.256,335.656 5.958 M169.177 78.093 C 160.273 79.208,153.815 80.799,151.370 82.481 C 150.390 83.155,148.254 84.323,146.623 85.076 C 142.666 86.905,136.427 92.955,134.485 96.848 C 132.846 100.132,129.510 102.102,125.954 101.886 C 118.899 101.456,115.958 101.729,111.559 103.221 C 109.247 104.005,106.190 104.924,104.765 105.263 C 102.980 105.688,101.509 106.335,100.036 107.341 C 98.860 108.144,96.888 109.339,95.654 109.996 C 92.788 111.521,86.832 117.278,84.437 120.841 C 83.465 122.285,82.203 124.072,81.631 124.811 C 81.060 125.550,80.340 127.024,80.031 128.086 C 79.722 129.149,78.839 131.345,78.069 132.966 C 76.328 136.631,75.677 139.625,75.641 144.133 C 75.572 152.895,75.177 153.887,70.905 156.043 C 66.884 158.071,62.019 161.719,60.838 163.590 C 55.425 172.176,55.544 171.851,55.563 177.933 C 55.581 183.382,55.943 185.050,57.576 187.191 C 58.026 187.783,59.055 189.345,59.862 190.664 C 60.669 191.983,62.330 194.032,63.553 195.218 C 66.377 197.955,66.550 198.823,66.550 210.243 C 66.550 221.441,68.217 225.896,73.846 229.740 C 74.938 230.485,76.209 231.501,76.670 231.998 L 77.507 232.900 76.903 235.102 C 76.571 236.312,75.918 238.376,75.452 239.688 C 74.436 242.553,74.268 247.367,75.126 249.027 C 76.308 251.311,81.310 252.906,83.593 251.726 C 87.609 249.649,88.969 247.770,90.397 242.330 C 91.424 238.412,92.367 236.188,93.343 235.379 C 93.658 235.117,94.142 234.465,94.419 233.932 C 94.695 233.398,95.451 232.556,96.099 232.062 L 97.278 231.162 175.088 231.162 C 247.346 231.162,252.962 231.204,253.795 231.750 C 254.601 232.278,256.468 234.690,258.277 237.538 C 258.640 238.109,259.392 240.331,259.950 242.476 C 261.337 247.812,262.584 249.522,266.696 251.721 C 269.185 253.053,274.324 251.096,275.337 248.431 C 275.828 247.139,275.687 242.374,275.112 240.806 C 272.385 233.377,272.449 232.697,276.130 229.975 C 282.303 225.410,283.713 221.769,283.713 210.394 C 283.713 198.899,283.896 197.968,286.698 195.255 C 288.770 193.250,293.126 187.038,294.056 184.764 C 295.186 182.000,294.927 172.791,293.654 170.476 C 289.315 162.581,285.544 158.823,278.995 155.866 C 275.317 154.205,275.016 153.511,274.766 146.118 C 274.557 139.942,274.069 137.365,272.377 133.497 C 271.734 132.026,270.860 129.771,270.435 128.486 C 269.968 127.070,269.144 125.551,268.347 124.633 C 267.623 123.799,266.428 122.093,265.692 120.841 C 263.736 117.513,257.405 111.376,254.333 109.829 C 253.021 109.168,251.489 108.245,250.930 107.778 C 249.354 106.463,248.107 105.932,244.133 104.888 C 242.110 104.357,239.810 103.647,239.022 103.311 C 235.834 101.951,232.353 101.460,227.866 101.737 C 222.219 102.085,222.451 102.116,219.611 100.650 C 217.244 99.429,217.052 99.237,215.878 96.907 C 213.800 92.780,208.100 87.234,203.853 85.207 C 202.023 84.334,199.816 83.110,198.949 82.488 C 194.866 79.557,177.710 77.025,169.177 78.093 M181.436 92.964 C 182.496 93.274,185.619 94.098,188.376 94.794 C 192.827 95.919,193.593 96.224,195.206 97.518 C 196.205 98.320,197.838 99.491,198.835 100.120 C 202.154 102.216,204.553 105.369,204.553 107.634 C 204.553 108.786,200.519 112.932,197.065 115.331 C 196.574 115.672,195.479 117.012,194.633 118.308 C 193.786 119.605,192.658 121.060,192.125 121.541 C 191.592 122.023,190.475 123.835,189.642 125.569 C 188.809 127.303,187.607 129.408,186.971 130.247 C 182.857 135.672,188.983 143.052,195.714 140.779 C 198.354 139.887,199.569 138.693,200.673 135.904 C 201.140 134.726,202.103 133.101,202.813 132.292 C 203.523 131.484,204.674 129.930,205.371 128.839 C 206.068 127.747,207.154 126.502,207.785 126.071 C 208.416 125.640,209.799 124.450,210.858 123.426 C 212.820 121.530,214.448 120.762,223.643 117.392 C 227.321 116.044,232.884 116.059,235.989 117.426 C 237.194 117.955,239.164 118.783,240.368 119.264 C 246.804 121.837,252.706 126.799,255.044 131.604 C 255.867 133.294,256.997 135.333,257.556 136.137 C 259.666 139.169,261.076 149.303,259.890 152.909 C 259.306 154.685,255.485 158.669,252.804 160.297 C 251.636 161.007,250.537 161.991,250.213 162.618 C 249.903 163.217,248.902 164.504,247.988 165.479 C 246.032 167.563,245.603 168.362,244.307 172.329 C 242.692 177.277,239.890 181.392,238.099 181.451 C 237.854 181.459,209.382 181.472,174.828 181.479 L 112.003 181.493 110.730 180.476 C 108.791 178.927,107.273 176.415,106.260 173.076 C 105.049 169.083,104.274 167.606,102.277 165.479 C 101.362 164.504,100.360 163.217,100.050 162.618 C 99.725 161.991,98.627 161.007,97.459 160.297 C 94.499 158.500,90.885 154.631,90.356 152.694 C 89.388 149.152,90.535 140.017,92.312 137.104 C 92.775 136.347,93.640 134.702,94.235 133.450 C 96.099 129.526,97.273 128.038,101.144 124.694 C 104.881 121.467,105.623 121.009,109.982 119.241 C 111.235 118.733,113.205 117.901,114.361 117.390 C 117.402 116.048,123.017 116.046,126.620 117.386 C 136.502 121.062,137.041 121.316,139.213 123.315 C 140.378 124.386,141.895 125.604,142.584 126.020 C 143.337 126.475,144.236 127.511,144.837 128.615 C 145.387 129.625,146.437 131.103,147.170 131.898 C 147.903 132.693,149.038 134.511,149.692 135.937 C 152.082 141.150,156.397 142.790,160.795 140.158 C 164.934 137.681,165.943 132.200,162.787 129.345 C 162.408 129.002,161.331 127.120,160.393 125.162 C 159.302 122.883,158.329 121.347,157.687 120.889 C 157.135 120.497,156.182 119.233,155.568 118.082 C 154.753 116.552,154.006 115.705,152.795 114.936 C 144.144 109.440,143.846 105.474,151.664 99.888 C 152.916 98.993,154.603 97.761,155.413 97.149 C 156.542 96.297,157.930 95.782,161.367 94.940 C 163.832 94.336,167.268 93.453,169.002 92.977 C 172.665 91.973,178.032 91.967,181.436 92.964 M365.096 111.675 C 365.566 112.195,365.582 112.318,365.176 112.318 C 364.900 112.318,364.599 112.029,364.507 111.675 C 364.414 111.322,364.378 111.033,364.427 111.033 C 364.475 111.033,364.776 111.322,365.096 111.675 M370.109 141.611 C 370.367 141.765,370.578 142.080,370.578 142.312 C 370.577 142.543,370.124 142.259,369.571 141.681 C 369.017 141.103,368.645 140.492,368.744 140.323 C 368.843 140.154,369.085 140.311,369.282 140.673 C 369.479 141.035,369.851 141.457,370.109 141.611 M274.679 170.609 C 279.205 172.900,280.685 176.078,279.338 180.615 C 278.168 184.554,273.581 185.690,269.618 183.021 C 268.610 182.342,267.515 181.786,267.186 181.786 C 266.120 181.786,260.721 183.896,259.522 184.780 C 257.838 186.023,257.199 185.900,256.701 184.238 C 255.919 181.627,257.288 178.240,261.492 172.381 C 263.277 169.893,271.169 168.833,274.679 170.609 M85.289 170.492 C 88.156 171.326,88.225 171.384,90.555 174.942 C 94.189 180.491,94.672 186.250,91.356 184.500 C 90.076 183.825,83.846 181.802,83.015 181.793 C 82.728 181.789,81.634 182.377,80.585 183.100 C 77.708 185.081,73.211 184.717,71.795 182.388 C 67.087 174.646,75.147 167.540,85.289 170.492 M375.482 172.083 C 375.482 172.553,374.466 171.653,374.014 170.782 C 373.676 170.131,373.735 170.144,374.558 170.902 C 375.066 171.369,375.482 171.900,375.482 172.083 M259.569 191.772 C 260.509 193.335,261.424 194.272,263.153 195.447 C 268.165 198.849,269.461 201.597,269.293 208.472 C 269.155 214.171,268.753 214.898,265.184 215.899 C 262.108 216.762,88.154 216.762,85.078 215.899 C 81.471 214.887,81.122 214.225,81.003 208.188 C 80.870 201.379,82.231 198.656,87.517 195.158 C 88.770 194.329,89.962 193.132,90.809 191.851 C 91.540 190.746,92.356 189.842,92.623 189.842 C 93.113 189.842,94.921 191.760,94.921 192.280 C 94.921 193.141,97.277 194.719,99.583 195.403 L 102.102 196.149 175.182 196.148 L 248.262 196.147 250.664 195.414 C 253.183 194.644,254.693 193.527,255.590 191.769 C 257.054 188.902,257.841 188.902,259.569 191.772 " stroke="none" fill="#ffffff" fill-rule="evenodd"></path><path id="path1" d="M6.223 6.276 L 5.079 7.298 4.977 173.789 C 4.869 351.145,4.805 342.862,6.309 344.366 L 7.304 345.362 198.486 345.273 L 389.667 345.184 391.144 344.395 C 393.426 343.175,393.515 342.758,392.341 338.802 C 391.008 334.313,390.594 331.490,390.177 324.034 C 389.732 316.078,389.450 314.260,388.138 310.858 C 386.797 307.380,385.728 301.262,385.269 294.427 C 384.719 286.257,384.119 282.460,382.899 279.423 C 381.459 275.840,380.832 272.016,380.204 262.987 C 379.617 254.543,379.314 252.717,377.919 249.226 C 376.603 245.934,375.929 241.868,375.303 233.450 C 374.635 224.461,374.354 222.700,372.858 218.106 C 371.268 213.223,370.714 209.949,370.237 202.627 C 369.731 194.850,369.345 192.035,368.446 189.582 C 366.341 183.839,365.588 179.501,365.147 170.578 C 364.881 165.189,364.084 160.522,363.021 158.119 C 361.547 154.786,360.645 149.049,360.078 139.405 C 359.695 132.896,359.345 130.948,357.659 125.918 C 356.329 121.953,355.583 117.713,355.330 112.681 C 354.921 104.566,354.479 101.573,353.070 97.373 C 351.362 92.280,350.677 88.235,350.254 80.736 C 349.814 72.921,349.335 69.702,348.171 66.725 C 346.614 62.743,345.359 55.826,345.359 51.226 C 345.359 46.406,344.393 40.299,342.956 36.034 C 341.377 31.350,340.633 26.676,340.118 18.214 C 339.504 8.121,339.199 7.284,335.656 5.958 C 333.781 5.256,333.193 5.254,170.570 5.254 L 7.367 5.254 6.223 6.276 M348.161 7.139 C 348.161 7.621,348.319 8.112,348.511 8.231 C 348.709 8.353,348.862 8.067,348.862 7.572 C 348.862 7.090,348.704 6.599,348.511 6.480 C 348.314 6.358,348.161 6.644,348.161 7.139 M353.070 33.867 C 353.073 34.216,353.228 34.737,353.415 35.026 C 353.681 35.437,353.756 35.346,353.760 34.609 C 353.763 34.091,353.608 33.569,353.415 33.450 C 353.222 33.331,353.067 33.519,353.070 33.867 M358.319 68.085 C 358.319 68.566,358.476 69.058,358.669 69.177 C 358.867 69.299,359.019 69.012,359.019 68.518 C 359.019 68.036,358.862 67.545,358.669 67.426 C 358.471 67.303,358.319 67.590,358.319 68.085 M187.741 79.156 C 195.079 80.465,196.874 80.998,198.949 82.488 C 199.816 83.110,202.023 84.334,203.853 85.207 C 208.100 87.234,213.800 92.780,215.878 96.907 C 217.052 99.237,217.244 99.429,219.611 100.650 C 222.451 102.116,222.219 102.085,227.866 101.737 C 232.353 101.460,235.834 101.951,239.022 103.311 C 239.810 103.647,242.110 104.357,244.133 104.888 C 248.107 105.932,249.354 106.463,250.930 107.778 C 251.489 108.245,253.021 109.168,254.333 109.829 C 257.405 111.376,263.736 117.513,265.692 120.841 C 266.428 122.093,267.623 123.799,268.347 124.633 C 269.144 125.551,269.968 127.070,270.435 128.486 C 270.860 129.771,271.734 132.026,272.377 133.497 C 274.069 137.365,274.557 139.942,274.766 146.118 C 275.016 153.511,275.317 154.205,278.995 155.866 C 285.544 158.823,289.315 162.581,293.654 170.476 C 294.927 172.791,295.186 182.000,294.056 184.764 C 293.126 187.038,288.770 193.250,286.698 195.255 C 283.896 197.968,283.713 198.899,283.713 210.394 C 283.713 221.769,282.303 225.410,276.130 229.975 C 272.449 232.697,272.385 233.377,275.112 240.806 C 275.687 242.374,275.828 247.139,275.337 248.431 C 274.324 251.096,269.185 253.053,266.696 251.721 C 262.584 249.522,261.337 247.812,259.950 242.476 C 259.392 240.331,258.640 238.109,258.277 237.538 C 256.468 234.690,254.601 232.278,253.795 231.750 C 252.962 231.204,247.346 231.162,175.088 231.162 L 97.278 231.162 96.099 232.062 C 95.451 232.556,94.695 233.398,94.419 233.932 C 94.142 234.465,93.658 235.117,93.343 235.379 C 92.367 236.188,91.424 238.412,90.397 242.330 C 88.969 247.770,87.609 249.649,83.593 251.726 C 81.310 252.906,76.308 251.311,75.126 249.027 C 74.268 247.367,74.436 242.553,75.452 239.688 C 75.918 238.376,76.571 236.312,76.903 235.102 L 77.507 232.900 76.670 231.998 C 76.209 231.501,74.938 230.485,73.846 229.740 C 68.217 225.896,66.550 221.441,66.550 210.243 C 66.550 198.823,66.377 197.955,63.553 195.218 C 62.330 194.032,60.669 191.983,59.862 190.664 C 59.055 189.345,58.026 187.783,57.576 187.191 C 55.943 185.050,55.581 183.382,55.563 177.933 C 55.544 171.851,55.425 172.176,60.838 163.590 C 62.019 161.719,66.884 158.071,70.905 156.043 C 75.177 153.887,75.572 152.895,75.641 144.133 C 75.677 139.625,76.328 136.631,78.069 132.966 C 78.839 131.345,79.722 129.149,80.031 128.086 C 80.340 127.024,81.060 125.550,81.631 124.811 C 82.203 124.072,83.465 122.285,84.437 120.841 C 86.832 117.278,92.788 111.521,95.654 109.996 C 96.888 109.339,98.860 108.144,100.036 107.341 C 101.509 106.335,102.980 105.688,104.765 105.263 C 106.190 104.924,109.247 104.005,111.559 103.221 C 115.958 101.729,118.899 101.456,125.954 101.886 C 129.510 102.102,132.846 100.132,134.485 96.848 C 136.427 92.955,142.666 86.905,146.623 85.076 C 148.254 84.323,150.390 83.155,151.370 82.481 C 153.519 81.003,155.194 80.492,161.821 79.295 C 172.242 77.413,177.806 77.383,187.741 79.156 M169.002 92.977 C 167.268 93.453,163.832 94.336,161.367 94.940 C 157.930 95.782,156.542 96.297,155.413 97.149 C 154.603 97.761,152.916 98.993,151.664 99.888 C 143.846 105.474,144.144 109.440,152.795 114.936 C 154.006 115.705,154.753 116.552,155.568 118.082 C 156.182 119.233,157.135 120.497,157.687 120.889 C 158.329 121.347,159.302 122.883,160.393 125.162 C 161.331 127.120,162.408 129.002,162.787 129.345 C 165.943 132.200,164.934 137.681,160.795 140.158 C 156.397 142.790,152.082 141.150,149.692 135.937 C 149.038 134.511,147.903 132.693,147.170 131.898 C 146.437 131.103,145.387 129.625,144.837 128.615 C 144.236 127.511,143.337 126.475,142.584 126.020 C 141.895 125.604,140.378 124.386,139.213 123.315 C 137.041 121.316,136.502 121.062,126.620 117.386 C 123.017 116.046,117.402 116.048,114.361 117.390 C 113.205 117.901,111.235 118.733,109.982 119.241 C 105.623 121.009,104.881 121.467,101.144 124.694 C 97.273 128.038,96.099 129.526,94.235 133.450 C 93.640 134.702,92.775 136.347,92.312 137.104 C 90.535 140.017,89.388 149.152,90.356 152.694 C 90.885 154.631,94.499 158.500,97.459 160.297 C 98.627 161.007,99.725 161.991,100.050 162.618 C 100.360 163.217,101.362 164.504,102.277 165.479 C 104.274 167.606,105.049 169.083,106.260 173.076 C 107.273 176.415,108.791 178.927,110.730 180.476 L 112.003 181.493 174.828 181.479 C 209.382 181.472,237.854 181.459,238.099 181.451 C 239.890 181.392,242.692 177.277,244.307 172.329 C 245.603 168.362,246.032 167.563,247.988 165.479 C 248.902 164.504,249.903 163.217,250.213 162.618 C 250.537 161.991,251.636 161.007,252.804 160.297 C 255.485 158.669,259.306 154.685,259.890 152.909 C 261.076 149.303,259.666 139.169,257.556 136.137 C 256.997 135.333,255.867 133.294,255.044 131.604 C 252.706 126.799,246.804 121.837,240.368 119.264 C 239.164 118.783,237.194 117.955,235.989 117.426 C 232.884 116.059,227.321 116.044,223.643 117.392 C 214.448 120.762,212.820 121.530,210.858 123.426 C 209.799 124.450,208.416 125.640,207.785 126.071 C 207.154 126.502,206.068 127.747,205.371 128.839 C 204.674 129.930,203.523 131.484,202.813 132.292 C 202.103 133.101,201.140 134.726,200.673 135.904 C 197.364 144.259,186.095 142.620,185.866 133.749 C 185.821 132.012,185.955 131.587,186.971 130.247 C 187.607 129.408,188.809 127.303,189.642 125.569 C 190.475 123.835,191.592 122.023,192.125 121.541 C 192.658 121.060,193.786 119.605,194.633 118.308 C 195.479 117.012,196.574 115.672,197.065 115.331 C 200.519 112.932,204.553 108.786,204.553 107.634 C 204.553 105.369,202.154 102.216,198.835 100.120 C 197.838 99.491,196.205 98.320,195.206 97.518 C 193.593 96.224,192.827 95.919,188.376 94.794 C 185.619 94.098,182.496 93.274,181.436 92.964 C 178.032 91.967,172.665 91.973,169.002 92.977 M363.222 98.558 C 363.222 99.039,363.380 99.531,363.573 99.650 C 363.771 99.772,363.923 99.485,363.923 98.991 C 363.923 98.509,363.765 98.017,363.573 97.898 C 363.375 97.776,363.222 98.063,363.222 98.558 M364.715 109.824 C 365.247 110.393,365.931 111.173,366.235 111.559 C 366.607 112.030,366.577 111.871,366.143 111.074 C 365.789 110.421,365.105 109.641,364.623 109.339 C 363.771 108.804,363.773 108.817,364.715 109.824 M364.507 111.675 C 364.599 112.029,364.900 112.318,365.176 112.318 C 365.582 112.318,365.566 112.195,365.096 111.675 C 364.776 111.322,364.475 111.033,364.427 111.033 C 364.378 111.033,364.414 111.322,364.507 111.675 M368.175 128.021 C 368.175 128.599,368.311 129.387,368.476 129.772 C 368.733 130.370,368.777 130.318,368.777 129.422 C 368.777 128.844,368.642 128.056,368.476 127.671 C 368.220 127.074,368.175 127.125,368.175 128.021 M368.636 139.080 C 368.478 139.335,368.512 139.424,368.719 139.296 C 369.213 138.991,371.096 141.454,371.139 142.460 C 371.159 142.919,371.365 143.482,371.598 143.713 C 371.927 144.041,371.963 143.979,371.759 143.433 C 371.518 142.787,371.551 142.773,372.176 143.251 C 372.820 143.745,372.827 143.736,372.314 143.076 C 372.017 142.694,371.561 141.956,371.301 141.437 C 370.575 139.983,368.960 138.555,368.636 139.080 M368.744 140.323 C 368.645 140.492,369.017 141.103,369.571 141.681 C 370.124 142.259,370.577 142.543,370.578 142.312 C 370.578 142.080,370.367 141.765,370.109 141.611 C 369.851 141.457,369.479 141.035,369.282 140.673 C 369.085 140.311,368.843 140.154,368.744 140.323 M373.205 152.364 C 373.073 152.779,373.045 153.196,373.141 153.293 C 373.237 153.389,373.424 153.129,373.555 152.715 C 373.687 152.300,373.715 151.882,373.619 151.786 C 373.523 151.690,373.336 151.950,373.205 152.364 M373.391 168.604 C 373.402 169.009,375.084 170.397,375.294 170.175 C 375.358 170.107,374.953 169.637,374.395 169.130 C 373.837 168.622,373.385 168.386,373.391 168.604 M266.718 170.020 C 263.796 170.687,262.186 171.413,261.492 172.381 C 257.288 178.240,255.919 181.627,256.701 184.238 C 257.199 185.900,257.838 186.023,259.522 184.780 C 260.721 183.896,266.120 181.786,267.186 181.786 C 267.515 181.786,268.610 182.342,269.618 183.021 C 273.581 185.690,278.168 184.554,279.338 180.615 C 281.452 173.495,275.051 168.121,266.718 170.020 M74.993 170.965 C 70.595 173.163,69.205 178.129,71.795 182.388 C 73.211 184.717,77.708 185.081,80.585 183.100 C 81.634 182.377,82.728 181.789,83.015 181.793 C 83.846 181.802,90.076 183.825,91.356 184.500 C 95.507 186.690,92.231 174.160,87.945 171.454 C 84.995 169.591,78.252 169.336,74.993 170.965 M374.014 170.782 C 374.466 171.653,375.482 172.553,375.482 172.083 C 375.482 171.900,375.066 171.369,374.558 170.902 C 373.735 170.144,373.676 170.131,374.014 170.782 M375.816 171.218 C 376.047 171.667,376.152 172.253,376.049 172.521 C 375.947 172.788,375.997 173.091,376.162 173.193 C 376.645 173.491,376.362 171.316,375.856 170.838 C 375.477 170.480,375.470 170.547,375.816 171.218 M378.284 190.172 C 378.284 190.761,378.441 191.243,378.634 191.243 C 378.827 191.243,378.984 190.859,378.984 190.388 C 378.984 189.918,378.827 189.436,378.634 189.317 C 378.430 189.191,378.284 189.547,378.284 190.172 M256.676 190.092 C 256.374 190.436,255.885 191.191,255.590 191.769 C 254.693 193.527,253.183 194.644,250.664 195.414 L 248.262 196.147 175.182 196.148 L 102.102 196.149 99.583 195.403 C 97.277 194.719,94.921 193.141,94.921 192.280 C 94.921 191.760,93.113 189.842,92.623 189.842 C 92.356 189.842,91.540 190.746,90.809 191.851 C 89.962 193.132,88.770 194.329,87.517 195.158 C 82.231 198.656,80.870 201.379,81.003 208.188 C 81.122 214.225,81.471 214.887,85.078 215.899 C 88.154 216.762,262.108 216.762,265.184 215.899 C 268.753 214.898,269.155 214.171,269.293 208.472 C 269.461 201.597,268.165 198.849,263.153 195.447 C 261.424 194.272,260.509 193.335,259.569 191.772 C 258.204 189.505,257.533 189.115,256.676 190.092 M383.187 220.645 C 383.187 221.019,383.345 221.422,383.538 221.541 C 383.736 221.664,383.888 221.370,383.888 220.861 C 383.888 220.368,383.730 219.965,383.538 219.965 C 383.345 219.965,383.187 220.271,383.187 220.645 M388.102 247.285 C 388.102 247.767,388.255 248.398,388.441 248.687 C 388.710 249.102,388.781 249.029,388.781 248.336 C 388.781 247.855,388.628 247.224,388.441 246.935 C 388.173 246.519,388.102 246.592,388.102 247.285 M393.345 281.591 C 393.345 281.964,393.503 282.368,393.695 282.487 C 393.894 282.610,394.046 282.315,394.046 281.807 C 394.046 281.314,393.888 280.911,393.695 280.911 C 393.503 280.911,393.345 281.217,393.345 281.591 M398.254 312.151 C 398.251 312.862,398.406 313.541,398.599 313.660 C 399.051 313.939,399.051 312.083,398.599 311.384 C 398.346 310.992,398.258 311.187,398.254 312.151 " stroke="none" fill="#0056bf" fill-rule="evenodd"></path></g></svg>