<svg id="svg" xmlns="http://www.w3.org/2000/svg" xmlns:xlink="http://www.w3.org/1999/xlink" width="400" height="350" viewBox="0, 0, 400,350"><g id="svgg"><path id="path0" d="M0.000 175.131 L 0.000 350.263 200.000 350.263 L 400.000 350.263 400.000 336.778 L 400.000 323.292 398.774 323.292 L 397.548 323.292 397.540 310.070 C 397.529 293.663,397.440 293.191,394.343 293.234 C 393.583 293.244,392.892 293.184,392.809 293.100 C 392.725 293.017,392.647 287.008,392.636 279.749 C 392.625 272.489,392.492 266.550,392.341 266.550 C 392.189 266.550,392.133 266.091,392.215 265.530 C 392.389 264.343,391.038 263.186,389.842 263.499 C 389.457 263.600,389.142 263.539,389.142 263.365 C 389.142 263.190,388.748 263.047,388.266 263.047 L 387.391 263.047 387.380 250.701 C 387.366 233.319,387.331 232.986,385.552 233.413 C 385.215 233.494,384.939 233.400,384.939 233.204 C 384.939 233.003,384.403 232.911,383.713 232.991 L 382.487 233.134 382.438 220.683 C 382.411 213.834,382.425 207.640,382.468 206.918 C 382.516 206.119,382.390 205.604,382.146 205.604 C 381.925 205.604,381.848 205.438,381.974 205.234 C 382.386 204.567,381.805 203.217,380.978 202.919 C 380.532 202.758,379.589 201.981,378.882 201.191 L 377.597 199.755 377.574 187.425 C 377.551 174.628,377.441 173.575,376.074 173.055 C 375.623 172.884,374.982 172.328,374.649 171.820 C 374.316 171.312,373.658 170.750,373.187 170.571 L 372.329 170.245 372.329 156.794 C 372.329 145.265,372.254 143.281,371.804 142.907 C 371.515 142.667,371.276 142.293,371.273 142.076 C 371.264 141.424,369.344 139.451,368.352 139.074 L 367.426 138.721 367.375 127.592 C 367.347 121.471,367.359 115.950,367.402 115.324 C 367.445 114.698,367.315 114.186,367.114 114.186 C 366.912 114.186,366.833 113.961,366.938 113.687 C 367.043 113.413,366.878 112.901,366.571 112.549 C 364.440 110.107,363.792 109.194,364.505 109.640 C 364.920 109.899,365.586 110.673,365.984 111.360 C 366.666 112.535,366.709 112.557,366.717 111.724 C 366.729 110.364,365.850 109.411,364.107 108.897 L 362.522 108.429 362.483 97.209 C 362.462 91.038,362.471 85.652,362.503 85.241 C 362.694 82.804,360.790 79.298,358.981 78.756 L 357.618 78.348 357.579 66.582 C 357.558 60.111,357.569 54.461,357.605 54.028 C 357.640 53.595,357.521 53.240,357.342 53.240 C 357.162 53.240,357.088 52.858,357.177 52.390 C 357.616 50.095,355.831 47.986,353.449 47.986 L 352.397 47.986 352.243 34.939 C 352.060 19.390,352.076 19.888,351.749 19.409 C 351.417 18.924,349.358 18.214,348.284 18.214 L 347.461 18.214 347.461 9.107 L 347.461 0.000 173.730 0.000 L 0.000 0.000 0.000 175.131 M336.492 6.289 L 339.008 7.499 339.592 10.667 C 339.913 12.410,340.307 16.988,340.468 20.841 C 340.628 24.694,340.841 28.161,340.941 28.546 C 341.041 28.932,341.378 30.350,341.690 31.699 C 342.003 33.047,342.543 34.781,342.890 35.552 C 344.238 38.539,344.882 42.404,345.348 50.312 C 345.543 53.614,345.782 56.530,345.880 56.792 C 345.979 57.054,346.197 58.648,346.366 60.335 C 346.608 62.747,346.945 63.959,347.943 66.005 C 348.641 67.437,349.213 69.130,349.214 69.768 C 349.215 70.406,349.374 71.874,349.567 73.030 C 349.760 74.186,350.072 77.732,350.261 80.911 C 350.450 84.089,350.846 87.872,351.142 89.317 C 351.437 90.762,351.830 92.907,352.013 94.085 C 352.197 95.262,352.741 96.996,353.222 97.938 C 354.479 100.397,355.080 103.895,355.143 109.107 C 355.236 116.728,356.221 122.718,358.284 128.196 C 359.577 131.629,359.996 134.465,360.584 143.783 C 361.095 151.874,361.947 156.506,363.266 158.373 C 363.627 158.884,363.923 159.672,363.923 160.124 C 363.923 160.576,364.148 162.049,364.423 163.398 C 364.697 164.746,365.092 168.608,365.301 171.979 C 365.738 179.025,367.098 188.091,367.718 188.091 C 368.496 188.091,369.422 191.486,369.675 195.271 C 370.189 202.952,370.629 208.083,370.935 209.982 C 371.738 214.968,372.647 218.987,373.141 219.742 C 374.363 221.606,375.043 226.080,375.466 235.026 C 375.791 241.911,376.283 244.691,377.944 249.027 C 379.286 252.529,379.575 253.976,380.010 259.370 C 380.213 261.874,380.552 266.051,380.765 268.651 C 381.254 274.626,381.944 278.172,383.012 280.196 C 384.076 282.214,384.851 286.912,385.269 293.877 C 385.448 296.859,385.850 300.639,386.162 302.277 C 386.473 303.914,386.865 306.159,387.032 307.266 C 387.200 308.372,387.741 310.106,388.234 311.118 C 389.436 313.584,389.739 315.439,390.020 322.067 C 390.364 330.202,391.537 337.760,393.050 341.594 C 393.532 342.815,393.130 343.337,390.740 344.598 L 388.967 345.534 198.203 345.623 L 7.439 345.712 6.172 344.308 L 4.904 342.905 4.904 175.233 L 4.904 7.560 6.202 6.230 L 7.501 4.901 170.738 4.990 L 333.975 5.079 336.492 6.289 M359.720 80.053 C 359.720 80.149,359.247 79.984,358.669 79.685 C 358.091 79.386,357.618 79.063,357.618 78.966 C 357.618 78.870,358.091 79.036,358.669 79.335 C 359.247 79.633,359.720 79.957,359.720 80.053 M68.651 105.335 C 67.977 105.417,66.913 105.874,66.287 106.350 L 65.149 107.216 65.149 175.263 L 65.149 243.310 65.937 244.028 C 67.560 245.506,67.830 245.534,80.584 245.534 C 93.351 245.534,95.271 245.761,95.271 247.270 C 95.271 247.423,96.292 248.686,97.538 250.077 C 99.051 251.764,99.882 253.011,100.035 253.827 C 100.304 255.265,105.615 261.091,106.965 261.430 C 107.419 261.544,108.213 262.191,108.729 262.868 C 109.246 263.544,109.857 264.099,110.088 264.100 C 110.319 264.101,110.981 264.372,111.559 264.701 C 112.489 265.231,113.912 265.301,123.993 265.312 C 137.082 265.326,137.736 265.226,139.930 262.888 C 140.701 262.067,141.683 261.284,142.114 261.148 C 143.087 260.842,145.564 258.297,146.147 257.004 C 146.386 256.474,147.093 255.798,147.718 255.501 C 148.552 255.105,149.097 254.429,149.762 252.962 C 151.820 248.422,152.519 247.203,153.212 246.945 C 157.143 245.480,155.893 245.531,187.803 245.532 C 214.322 245.534,218.230 245.601,218.689 246.060 C 218.978 246.349,219.378 246.585,219.577 246.585 C 219.777 246.585,220.119 246.918,220.336 247.325 C 220.554 247.732,221.584 248.991,222.625 250.124 C 223.667 251.256,224.518 252.475,224.518 252.832 C 224.518 254.375,230.222 261.296,231.494 261.296 C 231.711 261.296,232.556 261.898,233.370 262.634 C 236.214 265.202,236.519 265.264,247.226 265.434 C 259.840 265.635,263.765 265.035,264.959 262.725 C 265.283 262.099,265.955 261.550,266.696 261.306 C 268.086 260.847,270.243 258.613,270.966 256.882 C 271.281 256.128,271.872 255.523,272.595 255.216 C 273.820 254.695,274.356 253.823,275.855 249.912 C 277.367 245.970,277.596 245.896,289.205 245.585 C 299.117 245.320,299.421 245.224,299.932 242.180 C 300.089 241.242,300.166 227.073,300.103 210.693 L 299.989 180.911 299.193 178.929 C 298.756 177.838,298.177 176.763,297.907 176.539 C 297.329 176.060,295.571 170.532,294.729 166.550 C 294.047 163.319,293.550 161.821,293.162 161.821 C 292.454 161.821,291.389 159.020,290.607 155.100 C 289.767 150.887,289.003 148.868,286.809 145.057 C 286.024 143.694,285.649 142.476,285.440 140.608 C 285.141 137.939,284.489 136.525,283.225 135.800 C 282.670 135.482,274.995 135.333,252.306 135.201 C 235.706 135.105,222.062 134.947,221.986 134.851 C 220.190 132.587,220.315 133.665,220.315 120.460 C 220.315 107.554,220.272 107.181,218.628 105.954 C 217.746 105.297,73.845 104.702,68.651 105.335 M203.272 120.879 C 204.951 121.644,204.904 120.053,204.904 175.525 L 204.904 228.075 203.880 229.099 L 202.856 230.123 180.074 230.123 C 161.576 230.123,157.010 230.031,155.792 229.636 C 154.966 229.368,153.864 229.051,153.342 228.932 C 152.594 228.761,152.187 228.256,151.416 226.541 C 149.434 222.135,148.667 220.831,147.811 220.415 C 147.329 220.180,146.147 218.967,145.184 217.719 C 144.094 216.305,142.932 215.221,142.106 214.846 C 141.377 214.514,140.116 213.583,139.304 212.778 C 133.706 207.220,115.359 207.377,109.027 213.037 C 108.213 213.765,107.317 214.361,107.037 214.361 C 106.757 214.361,105.819 215.109,104.952 216.025 C 104.085 216.940,102.656 218.440,101.776 219.358 C 100.895 220.277,100.175 221.270,100.175 221.565 C 100.175 222.509,99.178 224.075,97.045 226.477 C 93.803 230.129,93.832 230.118,87.906 230.120 C 82.643 230.123,81.874 229.943,80.648 228.428 C 80.077 227.722,79.999 123.290,80.569 122.225 C 81.530 120.429,78.282 120.519,142.628 120.504 C 185.729 120.494,202.657 120.599,203.272 120.879 M176.361 139.129 C 175.978 139.351,175.385 139.794,175.042 140.113 C 174.699 140.432,173.988 140.916,173.462 141.187 C 172.935 141.459,172.275 141.996,171.995 142.382 C 170.971 143.790,152.813 161.821,152.420 161.821 C 152.197 161.821,152.014 162.029,152.014 162.284 C 152.014 162.538,150.714 164.013,149.124 165.562 C 146.564 168.058,144.446 170.489,143.134 172.442 C 141.537 174.818,136.778 174.453,135.375 171.846 C 135.009 171.168,134.207 170.341,133.591 170.009 C 132.975 169.678,131.822 168.576,131.029 167.560 C 130.236 166.544,128.922 165.267,128.109 164.721 C 127.296 164.175,126.441 163.339,126.208 162.862 C 125.705 161.830,122.623 159.019,121.994 159.019 C 121.752 159.019,121.164 158.252,120.689 157.314 C 119.348 154.668,118.225 153.916,115.186 153.631 L 112.609 153.390 110.595 155.591 C 109.487 156.803,108.042 158.345,107.383 159.019 C 105.080 161.377,104.779 164.498,106.793 165.137 C 107.168 165.256,108.367 166.443,109.456 167.774 C 110.545 169.106,112.016 170.478,112.724 170.824 C 113.456 171.182,114.216 171.907,114.488 172.504 C 114.915 173.445,118.329 176.532,118.943 176.532 C 119.342 176.532,120.117 177.713,120.129 178.339 C 120.135 178.659,120.813 179.346,121.636 179.866 C 122.459 180.387,123.898 181.791,124.834 182.986 C 125.770 184.181,126.992 185.360,127.549 185.607 C 128.107 185.853,128.782 186.474,129.050 186.986 C 129.705 188.236,131.576 190.103,133.213 191.138 C 133.949 191.604,134.700 192.409,134.882 192.928 C 135.066 193.450,135.816 194.215,136.563 194.643 L 137.913 195.415 140.639 194.766 C 142.475 194.328,143.477 193.905,143.707 193.468 C 143.895 193.111,145.210 191.637,146.629 190.193 C 158.636 177.967,162.952 173.730,163.400 173.730 C 163.688 173.730,163.923 173.482,163.923 173.179 C 163.923 172.636,168.719 167.776,169.254 167.776 C 169.404 167.776,169.527 167.603,169.527 167.392 C 169.527 167.181,171.379 165.217,173.643 163.027 C 175.906 160.837,177.995 158.806,178.284 158.513 C 182.188 154.559,184.014 152.477,185.413 150.384 L 187.089 147.878 186.359 146.448 C 183.696 141.228,178.855 137.684,176.361 139.129 M369.381 140.987 C 370.039 141.665,370.573 142.414,370.566 142.651 C 370.560 142.888,370.231 142.688,369.835 142.207 C 369.440 141.725,368.696 140.982,368.183 140.556 C 367.670 140.129,367.460 139.774,367.717 139.767 C 367.974 139.760,368.723 140.309,369.381 140.987 M271.966 150.568 C 273.457 150.888,274.428 152.559,274.930 155.671 C 275.429 158.763,276.344 161.124,278.245 164.227 C 279.433 166.168,279.646 166.848,279.921 169.583 C 280.204 172.412,281.261 176.070,281.926 176.529 C 282.068 176.627,282.521 177.417,282.931 178.284 C 285.356 183.410,285.450 184.503,285.458 207.726 C 285.465 229.514,285.561 228.426,283.513 229.589 C 282.502 230.163,282.271 230.165,279.676 229.629 C 276.520 228.976,276.630 229.086,275.511 225.493 C 274.563 222.446,273.519 220.768,272.282 220.297 C 271.819 220.121,271.293 219.589,271.113 219.114 C 270.602 217.771,268.261 215.363,266.852 214.730 C 266.151 214.416,265.153 213.653,264.634 213.036 C 259.808 207.301,238.995 207.364,233.625 213.131 C 233.144 213.649,232.237 214.286,231.611 214.549 C 230.985 214.811,230.473 215.160,230.473 215.324 C 230.473 215.489,229.268 216.875,227.796 218.406 C 226.324 219.936,224.834 221.819,224.485 222.591 C 223.158 225.519,222.658 225.741,221.278 224.012 L 220.315 222.805 220.315 187.755 L 220.315 152.705 221.103 151.488 L 221.891 150.271 246.410 150.308 C 259.895 150.329,271.395 150.446,271.966 150.568 M254.842 225.059 C 256.205 225.725,257.532 226.270,257.792 226.270 C 258.402 226.270,259.545 227.304,259.545 227.856 C 259.545 228.525,261.336 231.561,261.847 231.757 C 262.722 232.093,264.540 237.115,264.309 238.558 C 263.998 240.504,262.945 242.741,261.342 244.858 C 260.558 245.895,259.822 247.169,259.708 247.690 C 259.444 248.894,259.164 249.096,256.392 250.088 C 255.140 250.536,253.897 251.071,253.630 251.278 C 250.798 253.469,240.879 251.120,239.304 247.885 C 239.055 247.376,238.396 246.689,237.838 246.360 C 234.019 244.104,234.010 232.092,237.825 229.506 C 238.468 229.071,239.166 228.368,239.377 227.945 C 239.865 226.966,242.238 225.324,243.608 225.018 C 244.186 224.889,245.343 224.437,246.181 224.014 C 248.240 222.975,251.341 223.349,254.842 225.059 M128.448 224.373 C 128.875 224.647,130.136 225.205,131.250 225.614 C 133.424 226.413,134.851 227.479,134.851 228.305 C 134.851 228.587,135.689 229.799,136.712 230.998 C 140.004 234.854,140.291 241.061,137.328 244.308 C 136.624 245.079,135.685 246.461,135.241 247.379 C 134.338 249.243,134.025 249.462,130.501 250.689 C 124.269 252.859,115.805 251.500,114.521 248.123 C 114.351 247.676,113.656 246.949,112.977 246.509 C 112.298 246.069,111.741 245.576,111.738 245.413 C 111.736 245.250,111.379 244.620,110.946 244.012 C 110.214 242.987,110.158 242.541,110.166 237.828 L 110.174 232.750 111.285 231.151 C 111.896 230.271,112.786 229.374,113.262 229.157 C 113.738 228.941,114.338 228.325,114.594 227.789 C 114.851 227.254,115.399 226.647,115.812 226.441 C 116.225 226.236,116.777 225.895,117.038 225.684 C 117.299 225.472,118.021 225.191,118.642 225.059 C 119.263 224.926,120.366 224.512,121.094 224.138 C 122.632 223.349,127.067 223.491,128.448 224.373 " stroke="none" fill="#ffffff" fill-rule="evenodd"></path><path id="path1" d="M6.202 6.230 L 4.904 7.560 4.904 175.233 L 4.904 342.905 6.172 344.308 L 7.439 345.712 198.203 345.623 L 388.967 345.534 390.740 344.598 C 393.130 343.337,393.532 342.815,393.050 341.594 C 391.537 337.760,390.364 330.202,390.020 322.067 C 389.739 315.439,389.436 313.584,388.234 311.118 C 387.741 310.106,387.200 308.372,387.032 307.266 C 386.865 306.159,386.473 303.914,386.162 302.277 C 385.850 300.639,385.448 296.859,385.269 293.877 C 384.851 286.912,384.076 282.214,383.012 280.196 C 381.944 278.172,381.254 274.626,380.765 268.651 C 380.552 266.051,380.213 261.874,380.010 259.370 C 379.575 253.976,379.286 252.529,377.944 249.027 C 376.283 244.691,375.791 241.911,375.466 235.026 C 375.043 226.080,374.363 221.606,373.141 219.742 C 372.647 218.987,371.738 214.968,370.935 209.982 C 370.629 208.083,370.189 202.952,369.675 195.271 C 369.422 191.486,368.496 188.091,367.718 188.091 C 367.098 188.091,365.738 179.025,365.301 171.979 C 365.092 168.608,364.697 164.746,364.423 163.398 C 364.148 162.049,363.923 160.576,363.923 160.124 C 363.923 159.672,363.627 158.884,363.266 158.373 C 361.947 156.506,361.095 151.874,360.584 143.783 C 359.996 134.465,359.577 131.629,358.284 128.196 C 356.221 122.718,355.236 116.728,355.143 109.107 C 355.080 103.895,354.479 100.397,353.222 97.938 C 352.741 96.996,352.197 95.262,352.013 94.085 C 351.830 92.907,351.437 90.762,351.142 89.317 C 350.846 87.872,350.450 84.089,350.261 80.911 C 350.072 77.732,349.760 74.186,349.567 73.030 C 349.374 71.874,349.215 70.406,349.214 69.768 C 349.213 69.130,348.641 67.437,347.943 66.005 C 346.945 63.959,346.608 62.747,346.366 60.335 C 346.197 58.648,345.979 57.054,345.880 56.792 C 345.782 56.530,345.543 53.614,345.348 50.312 C 344.882 42.404,344.238 38.539,342.890 35.552 C 342.543 34.781,342.003 33.047,341.690 31.699 C 341.378 30.350,341.041 28.932,340.941 28.546 C 340.841 28.161,340.628 24.694,340.468 20.841 C 340.307 16.988,339.913 12.410,339.592 10.667 L 339.008 7.499 336.492 6.289 L 333.975 5.079 170.738 4.990 L 7.501 4.901 6.202 6.230 M357.618 78.966 C 357.618 79.063,358.091 79.386,358.669 79.685 C 359.247 79.984,359.720 80.149,359.720 80.053 C 359.720 79.957,359.247 79.633,358.669 79.335 C 358.091 79.036,357.618 78.870,357.618 78.966 M218.628 105.954 C 220.272 107.181,220.315 107.554,220.315 120.460 C 220.315 133.665,220.190 132.587,221.986 134.851 C 222.062 134.947,235.706 135.105,252.306 135.201 C 274.995 135.333,282.670 135.482,283.225 135.800 C 284.489 136.525,285.141 137.939,285.440 140.608 C 285.649 142.476,286.024 143.694,286.809 145.057 C 289.003 148.868,289.767 150.887,290.607 155.100 C 291.389 159.020,292.454 161.821,293.162 161.821 C 293.550 161.821,294.047 163.319,294.729 166.550 C 295.571 170.532,297.329 176.060,297.907 176.539 C 298.177 176.763,298.756 177.838,299.193 178.929 L 299.989 180.911 300.103 210.693 C 300.166 227.073,300.089 241.242,299.932 242.180 C 299.421 245.224,299.117 245.320,289.205 245.585 C 277.596 245.896,277.367 245.970,275.855 249.912 C 274.356 253.823,273.820 254.695,272.595 255.216 C 271.872 255.523,271.281 256.128,270.966 256.882 C 270.243 258.613,268.086 260.847,266.696 261.306 C 265.955 261.550,265.283 262.099,264.959 262.725 C 263.765 265.035,259.840 265.635,247.226 265.434 C 236.519 265.264,236.214 265.202,233.370 262.634 C 232.556 261.898,231.711 261.296,231.494 261.296 C 230.222 261.296,224.518 254.375,224.518 252.832 C 224.518 252.475,223.667 251.256,222.625 250.124 C 221.584 248.991,220.554 247.732,220.336 247.325 C 220.119 246.918,219.777 246.585,219.577 246.585 C 219.378 246.585,218.978 246.349,218.689 246.060 C 218.230 245.601,214.322 245.534,187.803 245.532 C 155.893 245.531,157.143 245.480,153.212 246.945 C 152.519 247.203,151.820 248.422,149.762 252.962 C 149.097 254.429,148.552 255.105,147.718 255.501 C 147.093 255.798,146.386 256.474,146.147 257.004 C 145.564 258.297,143.087 260.842,142.114 261.148 C 141.683 261.284,140.701 262.067,139.930 262.888 C 137.736 265.226,137.082 265.326,123.993 265.312 C 113.912 265.301,112.489 265.231,111.559 264.701 C 110.981 264.372,110.319 264.101,110.088 264.100 C 109.857 264.099,109.246 263.544,108.729 262.868 C 108.213 262.191,107.419 261.544,106.965 261.430 C 105.615 261.091,100.304 255.265,100.035 253.827 C 99.882 253.011,99.051 251.764,97.538 250.077 C 96.292 248.686,95.271 247.423,95.271 247.270 C 95.271 245.761,93.351 245.534,80.584 245.534 C 67.830 245.534,67.560 245.506,65.937 244.028 L 65.149 243.310 65.149 175.263 L 65.149 107.216 66.287 106.350 C 67.911 105.115,63.267 105.182,143.783 105.220 C 217.115 105.254,217.696 105.259,218.628 105.954 M364.668 110.201 C 365.174 110.755,365.771 111.563,365.994 111.996 C 366.217 112.430,366.591 112.782,366.825 112.779 C 367.115 112.776,367.130 112.692,366.874 112.517 C 366.667 112.375,366.215 111.773,365.870 111.180 C 365.525 110.586,364.906 109.896,364.495 109.647 C 363.877 109.272,363.907 109.368,364.668 110.201 M81.883 121.036 C 81.358 121.321,80.767 121.856,80.569 122.225 C 79.999 123.290,80.077 227.722,80.648 228.428 C 81.874 229.943,82.643 230.123,87.906 230.120 C 93.832 230.118,93.803 230.129,97.045 226.477 C 99.178 224.075,100.175 222.509,100.175 221.565 C 100.175 221.270,100.895 220.277,101.776 219.358 C 102.656 218.440,104.085 216.940,104.952 216.025 C 105.819 215.109,106.757 214.361,107.037 214.361 C 107.317 214.361,108.213 213.765,109.027 213.037 C 115.359 207.377,133.706 207.220,139.304 212.778 C 140.116 213.583,141.377 214.514,142.106 214.846 C 142.932 215.221,144.094 216.305,145.184 217.719 C 146.147 218.967,147.329 220.180,147.811 220.415 C 148.667 220.831,149.434 222.135,151.416 226.541 C 152.187 228.256,152.594 228.761,153.342 228.932 C 153.864 229.051,154.966 229.368,155.792 229.636 C 157.010 230.031,161.576 230.123,180.074 230.123 L 202.856 230.123 203.880 229.099 L 204.904 228.075 204.904 175.525 C 204.904 120.053,204.951 121.644,203.272 120.879 C 201.809 120.213,83.118 120.366,81.883 121.036 M180.947 140.246 C 183.618 141.810,184.520 142.843,186.359 146.448 L 187.089 147.878 185.413 150.384 C 184.014 152.477,182.188 154.559,178.284 158.513 C 177.995 158.806,175.906 160.837,173.643 163.027 C 171.379 165.217,169.527 167.181,169.527 167.392 C 169.527 167.603,169.404 167.776,169.254 167.776 C 168.719 167.776,163.923 172.636,163.923 173.179 C 163.923 173.482,163.688 173.730,163.400 173.730 C 162.952 173.730,158.636 177.967,146.629 190.193 C 145.210 191.637,143.895 193.111,143.707 193.468 C 143.477 193.905,142.475 194.328,140.639 194.766 L 137.913 195.415 136.563 194.643 C 135.816 194.215,135.066 193.450,134.882 192.928 C 134.700 192.409,133.949 191.604,133.213 191.138 C 131.576 190.103,129.705 188.236,129.050 186.986 C 128.782 186.474,128.107 185.853,127.549 185.607 C 126.992 185.360,125.770 184.181,124.834 182.986 C 123.898 181.791,122.459 180.387,121.636 179.866 C 120.813 179.346,120.135 178.659,120.129 178.339 C 120.117 177.713,119.342 176.532,118.943 176.532 C 118.329 176.532,114.915 173.445,114.488 172.504 C 114.216 171.907,113.456 171.182,112.724 170.824 C 112.016 170.478,110.545 169.106,109.456 167.774 C 108.367 166.443,107.168 165.256,106.793 165.137 C 104.779 164.498,105.080 161.377,107.383 159.019 C 108.042 158.345,109.487 156.803,110.595 155.591 L 112.609 153.390 115.186 153.631 C 118.225 153.916,119.348 154.668,120.689 157.314 C 121.164 158.252,121.752 159.019,121.994 159.019 C 122.623 159.019,125.705 161.830,126.208 162.862 C 126.441 163.339,127.296 164.175,128.109 164.721 C 128.922 165.267,130.236 166.544,131.029 167.560 C 131.822 168.576,132.975 169.678,133.591 170.009 C 134.207 170.341,135.009 171.168,135.375 171.846 C 136.778 174.453,141.537 174.818,143.134 172.442 C 144.446 170.489,146.564 168.058,149.124 165.562 C 150.714 164.013,152.014 162.538,152.014 162.284 C 152.014 162.029,152.197 161.821,152.420 161.821 C 152.813 161.821,170.971 143.790,171.995 142.382 C 172.275 141.996,172.935 141.459,173.462 141.187 C 173.988 140.916,174.699 140.432,175.042 140.113 C 176.968 138.319,177.683 138.335,180.947 140.246 M368.443 139.085 C 369.378 139.459,370.817 140.952,371.282 142.032 C 371.532 142.610,371.588 142.628,371.607 142.134 C 371.637 141.306,369.084 138.699,368.268 138.726 C 367.720 138.744,367.752 138.809,368.443 139.085 M368.183 140.556 C 368.696 140.982,369.440 141.725,369.835 142.207 C 370.231 142.688,370.560 142.888,370.566 142.651 C 370.582 142.063,368.298 139.752,367.717 139.767 C 367.460 139.774,367.670 140.129,368.183 140.556 M221.103 151.488 L 220.315 152.705 220.315 187.755 L 220.315 222.805 221.278 224.012 C 222.658 225.741,223.158 225.519,224.485 222.591 C 224.834 221.819,226.324 219.936,227.796 218.406 C 229.268 216.875,230.473 215.489,230.473 215.324 C 230.473 215.160,230.985 214.811,231.611 214.549 C 232.237 214.286,233.144 213.649,233.625 213.131 C 238.995 207.364,259.808 207.301,264.634 213.036 C 265.153 213.653,266.151 214.416,266.852 214.730 C 268.261 215.363,270.602 217.771,271.113 219.114 C 271.293 219.589,271.819 220.121,272.282 220.297 C 273.519 220.768,274.563 222.446,275.511 225.493 C 276.630 229.086,276.520 228.976,279.676 229.629 C 282.271 230.165,282.502 230.163,283.513 229.589 C 285.561 228.426,285.465 229.514,285.458 207.726 C 285.450 184.503,285.356 183.410,282.931 178.284 C 282.521 177.417,282.068 176.627,281.926 176.529 C 281.261 176.070,280.204 172.412,279.921 169.583 C 279.646 166.848,279.433 166.168,278.245 164.227 C 276.344 161.124,275.429 158.763,274.930 155.671 C 274.428 152.559,273.457 150.888,271.966 150.568 C 271.395 150.446,259.895 150.329,246.410 150.308 L 221.891 150.271 221.103 151.488 M246.181 224.014 C 245.343 224.437,244.186 224.889,243.608 225.018 C 242.238 225.324,239.865 226.966,239.377 227.945 C 239.166 228.368,238.468 229.071,237.825 229.506 C 234.010 232.092,234.019 244.104,237.838 246.360 C 238.396 246.689,239.055 247.376,239.304 247.885 C 240.879 251.120,250.798 253.469,253.630 251.278 C 253.897 251.071,255.140 250.536,256.392 250.088 C 259.164 249.096,259.444 248.894,259.708 247.690 C 259.822 247.169,260.558 245.895,261.342 244.858 C 262.945 242.741,263.998 240.504,264.309 238.558 C 264.540 237.115,262.722 232.093,261.847 231.757 C 261.336 231.561,259.545 228.525,259.545 227.856 C 259.545 227.304,258.402 226.270,257.792 226.270 C 257.532 226.270,256.205 225.725,254.842 225.059 C 251.341 223.349,248.240 222.975,246.181 224.014 M121.094 224.138 C 120.366 224.512,119.263 224.926,118.642 225.059 C 118.021 225.191,117.299 225.472,117.038 225.684 C 116.777 225.895,116.225 226.236,115.812 226.441 C 115.399 226.647,114.851 227.254,114.594 227.789 C 114.338 228.325,113.738 228.941,113.262 229.157 C 112.786 229.374,111.896 230.271,111.285 231.151 L 110.174 232.750 110.166 237.828 C 110.158 242.541,110.214 242.987,110.946 244.012 C 111.379 244.620,111.736 245.250,111.738 245.413 C 111.741 245.576,112.298 246.069,112.977 246.509 C 113.656 246.949,114.351 247.676,114.521 248.123 C 115.805 251.500,124.269 252.859,130.501 250.689 C 134.025 249.462,134.338 249.243,135.241 247.379 C 135.685 246.461,136.624 245.079,137.328 244.308 C 140.291 241.061,140.004 234.854,136.712 230.998 C 135.689 229.799,134.851 228.587,134.851 228.305 C 134.851 227.479,133.424 226.413,131.250 225.614 C 130.136 225.205,128.875 224.647,128.448 224.373 C 127.067 223.491,122.632 223.349,121.094 224.138 " stroke="none" fill="#0056bf" fill-rule="evenodd"></path></g></svg>