<svg id="svg" xmlns="http://www.w3.org/2000/svg" xmlns:xlink="http://www.w3.org/1999/xlink" width="400" height="350" viewBox="0, 0, 400,350"><g id="svgg"><path id="path0" d="M0.000 175.131 L 0.000 350.263 200.000 350.263 L 400.000 350.263 400.000 336.427 C 400.000 324.363,399.933 322.592,399.475 322.592 C 399.034 322.592,398.949 321.840,398.949 317.922 C 398.949 315.353,398.846 313.148,398.719 313.022 C 398.593 312.895,398.461 309.835,398.427 306.221 C 398.339 296.982,397.175 292.820,394.681 292.820 C 394.098 292.820,394.046 292.419,394.046 287.974 C 394.046 285.309,393.951 283.035,393.836 282.920 C 393.721 282.805,393.588 279.508,393.540 275.594 C 393.443 267.706,393.032 265.075,391.700 263.835 C 390.793 262.990,389.651 262.752,390.023 263.485 C 390.145 263.726,390.019 263.647,389.742 263.310 C 389.466 262.973,389.100 262.697,388.928 262.697 C 388.757 262.697,388.605 259.584,388.592 255.779 C 388.524 236.452,388.263 234.413,385.639 232.652 C 384.000 231.552,383.941 231.331,383.913 226.241 C 383.899 223.816,383.771 221.716,383.629 221.574 C 383.486 221.431,383.418 219.159,383.477 216.524 C 383.667 208.052,382.805 203.396,380.899 202.600 C 379.169 201.877,378.984 201.246,378.984 196.053 C 378.984 193.472,378.883 191.259,378.760 191.136 C 378.637 191.013,378.509 187.795,378.477 183.985 C 378.416 176.867,377.946 173.516,377.055 173.858 C 376.807 173.953,376.638 173.773,376.663 173.440 C 376.693 173.051,376.450 172.863,375.940 172.880 C 375.518 172.894,375.200 172.815,375.234 172.705 C 375.268 172.595,374.906 171.981,374.429 171.341 L 373.561 170.177 373.682 161.402 C 373.749 156.576,373.669 152.711,373.504 152.812 C 373.340 152.913,373.196 151.159,373.184 148.915 C 373.164 144.832,372.638 142.626,371.729 142.808 C 371.521 142.849,371.421 142.612,371.508 142.280 C 371.671 141.658,369.318 138.576,368.885 138.843 C 368.652 138.987,368.537 134.309,368.519 123.993 C 368.513 120.740,368.386 118.746,368.200 119.017 C 368.010 119.295,367.947 118.754,368.037 117.616 C 368.202 115.513,367.466 112.904,366.751 113.062 C 366.456 113.127,366.367 112.961,366.504 112.602 C 366.895 111.583,364.732 108.604,363.953 109.089 C 363.840 109.159,363.797 107.321,363.857 105.004 C 363.916 102.687,363.861 100.534,363.734 100.220 C 363.607 99.907,363.462 96.497,363.411 92.644 C 363.317 85.451,362.813 81.766,361.687 80.048 C 361.122 79.185,359.212 77.681,358.980 77.916 C 358.905 77.991,358.893 76.235,358.954 74.012 C 359.014 71.790,358.960 69.714,358.833 69.399 C 358.707 69.084,358.571 65.753,358.530 61.996 C 358.434 53.072,357.700 50.175,355.094 48.431 L 353.795 47.562 353.661 41.382 C 353.272 23.594,353.270 23.566,351.829 20.108 C 351.554 19.448,350.886 18.791,350.119 18.427 L 348.862 17.831 348.862 13.314 C 348.862 10.830,348.726 8.714,348.561 8.612 C 348.396 8.510,348.328 6.491,348.411 4.126 C 348.518 1.048,348.456 -0.026,348.191 0.350 C 347.941 0.706,347.820 0.734,347.816 0.438 C 347.812 0.088,312.793 0.000,173.905 0.000 L 0.000 0.000 0.000 175.131 M333.727 5.268 C 339.271 6.546,339.816 7.637,340.283 18.389 C 340.589 25.453,341.355 30.448,342.756 34.529 C 344.335 39.126,344.940 42.397,345.190 47.694 C 345.550 55.327,346.879 64.194,347.837 65.354 C 349.081 66.860,349.773 71.061,350.266 80.087 C 350.644 87.019,351.473 92.030,352.923 96.147 C 354.475 100.551,354.788 102.361,355.165 109.107 C 355.619 117.222,356.542 123.029,357.936 126.539 C 359.224 129.780,359.960 133.990,360.248 139.755 C 360.697 148.767,361.508 153.424,363.713 159.661 C 364.485 161.846,364.699 163.389,365.148 169.994 C 365.808 179.713,366.481 183.934,367.991 187.822 C 369.395 191.439,369.749 193.618,370.229 201.576 C 370.740 210.048,371.395 213.714,373.246 218.467 C 374.461 221.587,374.736 223.397,375.309 232.057 C 375.973 242.080,376.891 247.182,378.610 250.394 C 379.183 251.463,379.965 257.154,380.215 262.069 C 380.615 269.935,381.617 275.958,383.043 279.082 C 384.185 281.582,384.850 285.678,385.282 292.870 C 385.857 302.440,386.446 305.702,388.762 312.132 C 389.484 314.135,389.893 317.647,390.535 327.367 C 390.801 331.390,391.147 333.628,391.970 336.649 C 393.862 343.592,393.737 343.945,388.953 345.170 C 385.403 346.079,7.938 345.811,6.594 344.898 C 6.078 344.548,5.487 343.776,5.280 343.182 C 4.595 341.216,4.765 8.290,5.452 6.961 C 5.753 6.379,6.502 5.683,7.115 5.416 C 8.504 4.813,331.118 4.666,333.727 5.268 M76.147 71.243 L 74.956 72.434 74.958 165.026 C 74.959 268.620,74.734 259.295,77.256 260.254 C 78.456 260.710,261.616 260.723,262.816 260.267 C 263.291 260.086,264.011 259.583,264.415 259.150 L 265.149 258.362 265.149 165.410 C 265.149 102.328,265.033 72.242,264.788 71.784 C 263.802 69.942,269.843 70.053,169.860 70.053 L 77.338 70.053 76.147 71.243 M253.969 81.529 L 254.991 82.673 254.991 165.356 L 254.991 248.040 253.967 249.064 L 252.944 250.088 170.412 250.088 C 82.207 250.088,86.322 250.165,85.682 248.496 C 85.129 247.056,85.448 82.490,86.005 81.695 C 87.007 80.264,86.719 80.269,170.869 80.328 L 252.947 80.385 253.969 81.529 M98.119 90.366 C 95.357 91.023,94.958 92.410,94.936 101.441 C 94.919 108.518,94.849 108.754,92.280 110.342 C 89.960 111.775,90.018 111.268,90.018 130.298 C 90.018 149.539,89.936 148.881,92.500 150.322 C 94.944 151.696,94.921 151.553,94.921 165.434 C 94.921 179.245,94.977 178.913,92.423 180.234 C 89.971 181.502,90.020 181.091,90.019 200.122 C 90.017 219.295,89.965 218.866,92.486 220.282 C 94.707 221.531,94.832 222.035,94.977 230.298 C 95.115 238.191,95.287 238.957,97.160 240.032 C 97.979 240.502,231.290 240.888,238.827 240.442 C 242.530 240.223,242.879 240.139,243.906 239.221 L 245.009 238.236 245.100 186.231 C 245.200 129.099,245.306 132.022,243.082 130.911 C 239.709 129.226,236.306 130.273,234.940 133.417 C 234.556 134.302,233.858 135.539,233.390 136.165 C 231.213 139.076,231.358 136.224,231.252 178.176 C 231.153 217.408,231.160 217.659,232.414 221.934 C 232.652 222.743,231.227 224.634,229.402 225.934 C 228.420 226.633,227.962 226.639,170.030 226.639 L 111.647 226.639 109.863 225.631 C 108.882 225.076,107.771 224.211,107.395 223.707 L 106.712 222.791 108.310 221.083 C 109.188 220.143,110.174 218.838,110.500 218.181 C 110.825 217.525,111.985 216.178,113.077 215.187 L 115.061 213.387 115.166 200.658 C 115.282 186.525,115.230 186.121,112.970 183.571 C 109.823 180.020,107.881 174.175,108.535 170.218 C 109.039 167.166,109.042 163.147,108.541 160.118 C 107.917 156.337,109.636 151.010,112.634 147.439 C 115.250 144.323,115.220 144.511,115.227 130.998 C 115.233 117.296,115.154 116.706,113.112 115.355 C 112.348 114.850,111.186 113.552,110.527 112.472 C 109.869 111.392,108.768 109.965,108.081 109.301 C 106.121 107.410,106.473 106.677,110.256 104.762 L 111.755 104.003 170.076 104.003 C 202.153 104.003,228.589 104.117,228.822 104.257 C 232.233 106.296,232.754 107.419,231.877 110.848 C 230.570 115.955,231.378 120.227,234.251 123.404 C 236.593 125.994,243.485 126.162,244.823 123.662 C 245.054 123.230,245.184 117.629,245.184 108.062 C 245.184 91.988,245.151 91.675,243.341 90.641 C 242.438 90.125,100.264 89.856,98.119 90.366 M365.362 111.471 L 366.149 112.609 365.211 111.760 C 364.695 111.293,364.273 110.781,364.273 110.622 C 364.273 110.092,364.569 110.322,365.362 111.471 M159.019 125.369 C 156.924 125.678,156.179 126.132,155.016 127.810 C 153.978 129.308,153.012 129.763,150.088 130.129 C 147.493 130.454,146.707 130.872,145.421 132.613 C 144.781 133.479,143.476 134.669,142.520 135.258 C 141.431 135.928,140.527 136.826,140.099 137.665 C 139.724 138.400,138.640 139.658,137.690 140.458 C 135.769 142.078,135.352 142.894,135.008 145.709 C 134.722 148.051,134.115 149.158,132.519 150.252 C 130.226 151.822,130.152 152.191,130.008 162.692 C 129.937 167.891,129.987 173.486,130.119 175.126 L 130.359 178.109 132.197 179.863 C 134.429 181.993,134.700 182.479,135.025 184.939 C 135.389 187.698,135.963 188.825,137.612 190.018 C 138.412 190.595,139.530 191.809,140.097 192.715 C 140.664 193.621,141.568 194.627,142.105 194.951 C 142.643 195.274,144.028 196.544,145.184 197.772 C 147.108 199.817,147.433 200.021,149.037 200.197 C 153.114 200.642,153.152 200.659,155.220 202.873 L 157.201 204.994 160.650 205.330 C 165.321 205.785,181.663 205.468,182.896 204.898 C 183.411 204.661,184.312 203.797,184.900 202.979 C 186.134 201.260,187.800 200.351,189.720 200.348 C 192.328 200.345,193.637 199.732,194.952 197.902 C 195.626 196.963,196.867 195.792,197.708 195.299 C 198.550 194.806,199.592 193.810,200.025 193.085 C 200.458 192.361,201.716 190.902,202.822 189.842 C 204.748 187.996,204.850 187.810,205.248 185.385 C 205.676 182.784,206.294 181.664,208.191 180.051 C 210.088 178.439,210.158 177.923,210.158 165.388 C 210.158 152.484,210.129 152.299,207.848 150.430 C 205.938 148.865,205.415 147.875,205.092 145.218 C 204.762 142.509,204.334 141.644,202.880 140.745 C 202.218 140.336,201.134 139.154,200.471 138.117 C 199.758 137.003,198.628 135.835,197.708 135.263 C 196.852 134.730,195.660 133.626,195.060 132.810 C 193.721 130.989,192.726 130.461,190.018 130.132 C 187.335 129.806,186.855 129.549,184.923 127.404 C 183.500 125.824,183.129 125.608,181.421 125.366 C 179.118 125.039,161.244 125.042,159.019 125.369 M174.242 136.049 C 175.505 136.577,178.490 140.297,178.875 141.823 C 179.477 144.209,177.126 144.631,175.151 142.492 L 173.755 140.981 170.255 140.981 L 166.755 140.981 165.238 142.469 C 161.165 146.466,159.717 142.274,163.630 137.816 C 165.585 135.590,170.989 134.690,174.242 136.049 M370.914 142.294 C 370.937 142.716,369.619 141.285,369.165 140.394 C 368.895 139.864,369.125 140.007,369.825 140.806 C 370.416 141.480,370.906 142.150,370.914 142.294 M149.241 151.051 C 151.410 154.485,148.947 162.082,144.842 164.618 C 140.820 167.104,138.989 162.233,142.540 158.494 C 143.653 157.322,145.005 154.935,145.016 154.121 C 145.062 150.972,147.892 148.915,149.241 151.051 M193.740 150.478 C 194.084 150.789,194.772 152.265,195.269 153.758 C 195.800 155.351,196.652 157.033,197.334 157.833 C 199.747 160.660,200.295 163.016,198.888 164.513 C 196.461 167.097,190.701 161.640,190.276 156.354 C 189.901 151.678,191.698 148.630,193.740 150.478 M176.061 156.484 C 182.113 159.661,181.337 172.013,174.936 174.408 C 171.303 175.767,163.772 175.013,162.088 173.121 C 159.909 170.673,159.815 159.875,161.952 157.391 C 163.636 155.434,172.923 154.837,176.061 156.484 M153.976 181.475 C 154.381 181.852,154.899 182.785,155.128 183.547 C 155.596 185.111,155.659 185.136,159.895 185.463 C 164.024 185.782,165.166 186.816,164.129 189.296 C 162.927 192.173,156.113 190.670,154.662 187.208 C 154.300 186.346,153.836 186.030,152.153 185.502 C 146.644 183.776,145.718 181.991,149.760 180.889 C 151.760 180.344,152.940 180.508,153.976 181.475 M190.125 180.785 C 194.332 181.808,193.879 183.502,188.934 185.236 C 186.491 186.093,186.118 186.344,185.479 187.565 C 184.558 189.327,183.248 190.064,180.072 190.609 L 177.506 191.049 176.669 190.076 C 174.184 187.186,176.199 185.444,182.312 185.198 L 184.413 185.114 185.395 183.145 C 186.712 180.504,187.452 180.135,190.125 180.785 " stroke="none" fill="#ffffff" fill-rule="evenodd"></path><path id="path1" d="M7.115 5.416 C 6.502 5.683,5.753 6.379,5.452 6.961 C 4.765 8.290,4.595 341.216,5.280 343.182 C 5.487 343.776,6.078 344.548,6.594 344.898 C 7.938 345.811,385.403 346.079,388.953 345.170 C 393.737 343.945,393.862 343.592,391.970 336.649 C 391.147 333.628,390.801 331.390,390.535 327.367 C 389.893 317.647,389.484 314.135,388.762 312.132 C 386.446 305.702,385.857 302.440,385.282 292.870 C 384.850 285.678,384.185 281.582,383.043 279.082 C 381.617 275.958,380.615 269.935,380.215 262.069 C 379.965 257.154,379.183 251.463,378.610 250.394 C 376.891 247.182,375.973 242.080,375.309 232.057 C 374.736 223.397,374.461 221.587,373.246 218.467 C 371.395 213.714,370.740 210.048,370.229 201.576 C 369.749 193.618,369.395 191.439,367.991 187.822 C 366.481 183.934,365.808 179.713,365.148 169.994 C 364.699 163.389,364.485 161.846,363.713 159.661 C 361.508 153.424,360.697 148.767,360.248 139.755 C 359.960 133.990,359.224 129.780,357.936 126.539 C 356.542 123.029,355.619 117.222,355.165 109.107 C 354.788 102.361,354.475 100.551,352.923 96.147 C 351.473 92.030,350.644 87.019,350.266 80.087 C 349.773 71.061,349.081 66.860,347.837 65.354 C 346.879 64.194,345.550 55.327,345.190 47.694 C 344.940 42.397,344.335 39.126,342.756 34.529 C 341.355 30.448,340.589 25.453,340.283 18.389 C 339.816 7.637,339.271 6.546,333.727 5.268 C 331.118 4.666,8.504 4.813,7.115 5.416 M348.161 7.489 C 348.161 7.971,348.319 8.462,348.511 8.581 C 348.709 8.704,348.862 8.417,348.862 7.922 C 348.862 7.441,348.704 6.949,348.511 6.830 C 348.314 6.708,348.161 6.995,348.161 7.489 M353.070 33.867 C 353.073 34.216,353.228 34.737,353.415 35.026 C 353.681 35.437,353.756 35.346,353.760 34.609 C 353.763 34.091,353.608 33.569,353.415 33.450 C 353.222 33.331,353.067 33.519,353.070 33.867 M358.319 68.085 C 358.319 68.566,358.476 69.058,358.669 69.177 C 358.867 69.299,359.019 69.012,359.019 68.518 C 359.019 68.036,358.862 67.545,358.669 67.426 C 358.471 67.303,358.319 67.590,358.319 68.085 M263.405 70.582 C 263.967 70.873,264.590 71.414,264.788 71.784 C 265.033 72.242,265.149 102.328,265.149 165.410 L 265.149 258.362 264.415 259.150 C 264.011 259.583,263.291 260.086,262.816 260.267 C 261.616 260.723,78.456 260.710,77.256 260.254 C 74.734 259.295,74.959 268.620,74.958 165.026 L 74.956 72.434 76.147 71.243 L 77.338 70.053 169.860 70.053 C 251.698 70.053,262.500 70.114,263.405 70.582 M87.669 80.596 C 85.268 81.294,85.464 73.772,85.464 165.198 C 85.464 210.700,85.562 248.184,85.682 248.496 C 86.322 250.165,82.207 250.088,170.412 250.088 L 252.944 250.088 253.967 249.064 L 254.991 248.040 254.991 165.356 L 254.991 82.673 253.969 81.529 L 252.947 80.385 170.869 80.328 C 121.055 80.293,88.350 80.399,87.669 80.596 M243.341 90.641 C 245.151 91.675,245.184 91.988,245.184 108.062 C 245.184 125.983,245.362 125.394,239.933 125.394 C 233.228 125.394,229.758 119.129,231.877 110.848 C 232.754 107.419,232.233 106.296,228.822 104.257 C 228.589 104.117,202.153 104.003,170.076 104.003 L 111.755 104.003 110.256 104.762 C 106.473 106.677,106.121 107.410,108.081 109.301 C 108.768 109.965,109.869 111.392,110.527 112.472 C 111.186 113.552,112.348 114.850,113.112 115.355 C 115.154 116.706,115.233 117.296,115.227 130.998 C 115.220 144.511,115.250 144.323,112.634 147.439 C 109.636 151.010,107.917 156.337,108.541 160.118 C 109.042 163.147,109.039 167.166,108.535 170.218 C 107.881 174.175,109.823 180.020,112.970 183.571 C 115.230 186.121,115.282 186.525,115.166 200.658 L 115.061 213.387 113.077 215.187 C 111.985 216.178,110.825 217.525,110.500 218.181 C 110.174 218.838,109.188 220.143,108.310 221.083 L 106.712 222.791 107.395 223.707 C 107.771 224.211,108.882 225.076,109.863 225.631 L 111.647 226.639 170.030 226.639 C 227.962 226.639,228.420 226.633,229.402 225.934 C 231.227 224.634,232.652 222.743,232.414 221.934 C 231.160 217.659,231.153 217.408,231.252 178.176 C 231.358 136.224,231.213 139.076,233.390 136.165 C 233.858 135.539,234.556 134.302,234.940 133.417 C 236.306 130.273,239.709 129.226,243.082 130.911 C 245.306 132.022,245.200 129.099,245.100 186.231 L 245.009 238.236 243.906 239.221 C 242.879 240.139,242.530 240.223,238.827 240.442 C 231.290 240.888,97.979 240.502,97.160 240.032 C 95.287 238.957,95.115 238.191,94.977 230.298 C 94.832 222.035,94.707 221.531,92.486 220.282 C 89.965 218.866,90.017 219.295,90.019 200.122 C 90.020 181.091,89.971 181.502,92.423 180.234 C 94.977 178.913,94.921 179.245,94.921 165.434 C 94.921 151.553,94.944 151.696,92.500 150.322 C 89.936 148.881,90.018 149.539,90.018 130.298 C 90.018 111.268,89.960 111.775,92.280 110.342 C 94.849 108.754,94.919 108.518,94.936 101.441 C 94.958 92.410,95.357 91.023,98.119 90.366 C 100.264 89.856,242.438 90.125,243.341 90.641 M363.222 98.733 C 363.222 99.311,363.380 99.881,363.573 100.000 C 363.776 100.126,363.923 99.777,363.923 99.166 C 363.923 98.588,363.765 98.017,363.573 97.898 C 363.369 97.772,363.222 98.121,363.222 98.733 M365.538 109.965 C 365.751 110.264,366.101 110.823,366.315 111.208 C 366.529 111.594,366.709 111.721,366.714 111.491 C 366.720 111.261,366.370 110.701,365.937 110.248 C 365.504 109.794,365.324 109.667,365.538 109.965 M364.273 110.622 C 364.273 110.781,364.695 111.293,365.211 111.760 L 366.149 112.609 365.362 111.471 C 364.569 110.322,364.273 110.092,364.273 110.622 M181.421 125.366 C 183.129 125.608,183.500 125.824,184.923 127.404 C 186.855 129.549,187.335 129.806,190.018 130.132 C 192.726 130.461,193.721 130.989,195.060 132.810 C 195.660 133.626,196.852 134.730,197.708 135.263 C 198.628 135.835,199.758 137.003,200.471 138.117 C 201.134 139.154,202.218 140.336,202.880 140.745 C 204.334 141.644,204.762 142.509,205.092 145.218 C 205.415 147.875,205.938 148.865,207.848 150.430 C 210.129 152.299,210.158 152.484,210.158 165.388 C 210.158 177.923,210.088 178.439,208.191 180.051 C 206.294 181.664,205.676 182.784,205.248 185.385 C 204.850 187.810,204.748 187.996,202.822 189.842 C 201.716 190.902,200.458 192.361,200.025 193.085 C 199.592 193.810,198.550 194.806,197.708 195.299 C 196.867 195.792,195.626 196.963,194.952 197.902 C 193.637 199.732,192.328 200.345,189.720 200.348 C 187.800 200.351,186.134 201.260,184.900 202.979 C 184.312 203.797,183.411 204.661,182.896 204.898 C 181.663 205.468,165.321 205.785,160.650 205.330 L 157.201 204.994 155.220 202.873 C 153.152 200.659,153.114 200.642,149.037 200.197 C 147.433 200.021,147.108 199.817,145.184 197.772 C 144.028 196.544,142.643 195.274,142.105 194.951 C 141.568 194.627,140.664 193.621,140.097 192.715 C 139.530 191.809,138.412 190.595,137.612 190.018 C 135.963 188.825,135.389 187.698,135.025 184.939 C 134.700 182.479,134.429 181.993,132.197 179.863 L 130.359 178.109 130.119 175.126 C 129.987 173.486,129.937 167.891,130.008 162.692 C 130.152 152.191,130.226 151.822,132.519 150.252 C 134.115 149.158,134.722 148.051,135.008 145.709 C 135.352 142.894,135.769 142.078,137.690 140.458 C 138.640 139.658,139.724 138.400,140.099 137.665 C 140.527 136.826,141.431 135.928,142.520 135.258 C 143.476 134.669,144.781 133.479,145.421 132.613 C 146.707 130.872,147.493 130.454,150.088 130.129 C 153.012 129.763,153.978 129.308,155.016 127.810 C 156.179 126.132,156.924 125.678,159.019 125.369 C 161.244 125.042,179.118 125.039,181.421 125.366 M368.156 128.021 C 368.145 128.599,368.290 129.308,368.476 129.597 C 368.919 130.282,368.919 128.701,368.476 127.671 C 368.218 127.069,368.173 127.119,368.156 128.021 M165.843 136.040 C 163.455 137.080,160.676 141.477,161.401 143.068 C 162.039 144.468,163.421 144.253,165.238 142.469 L 166.755 140.981 170.255 140.981 L 173.755 140.981 175.151 142.492 C 178.639 146.270,180.233 143.137,177.048 138.764 C 174.785 135.656,169.610 134.399,165.843 136.040 M370.050 139.756 C 371.711 141.697,371.733 141.718,371.353 140.981 C 371.155 140.595,370.545 139.887,369.997 139.406 L 369.002 138.531 370.050 139.756 M369.165 140.394 C 369.619 141.285,370.937 142.716,370.914 142.294 C 370.906 142.150,370.416 141.480,369.825 140.806 C 369.125 140.007,368.895 139.864,369.165 140.394 M146.865 150.190 C 146.369 150.506,145.028 153.358,145.016 154.121 C 145.005 154.935,143.653 157.322,142.540 158.494 C 138.989 162.233,140.820 167.104,144.842 164.618 C 147.875 162.744,149.623 159.482,149.814 155.343 C 150.008 151.147,148.768 148.981,146.865 150.190 M191.278 150.824 C 188.461 154.406,191.043 162.287,195.867 164.826 C 199.923 166.961,200.949 162.070,197.334 157.833 C 196.652 157.033,195.800 155.351,195.269 153.758 C 193.986 149.904,192.728 148.980,191.278 150.824 M373.282 151.780 C 372.892 152.772,372.955 153.279,373.413 152.822 C 373.624 152.611,373.737 152.146,373.665 151.789 C 373.539 151.161,373.526 151.161,373.282 151.780 M164.634 156.022 C 161.322 156.852,160.420 158.833,160.420 165.278 C 160.420 173.031,162.479 175.131,170.076 175.131 C 178.051 175.131,181.980 169.198,179.510 160.882 C 178.125 156.216,171.930 154.192,164.634 156.022 M373.468 169.002 C 373.472 169.772,373.544 170.046,373.628 169.611 C 373.712 169.175,373.708 168.544,373.621 168.210 C 373.533 167.875,373.464 168.231,373.468 169.002 M149.760 180.889 C 145.718 181.991,146.644 183.776,152.153 185.502 C 153.836 186.030,154.300 186.346,154.662 187.208 C 155.438 189.061,156.611 189.831,159.600 190.449 C 162.861 191.123,163.426 190.979,164.129 189.296 C 165.166 186.816,164.024 185.782,159.895 185.463 C 155.659 185.136,155.596 185.111,155.128 183.547 C 154.343 180.928,152.665 180.097,149.760 180.889 M187.146 180.805 C 186.723 181.009,185.935 182.062,185.395 183.145 L 184.413 185.114 182.312 185.198 C 176.199 185.444,174.184 187.186,176.669 190.076 L 177.506 191.049 180.072 190.609 C 183.248 190.064,184.558 189.327,185.479 187.565 C 186.118 186.344,186.491 186.093,188.934 185.236 C 193.879 183.502,194.332 181.808,190.125 180.785 C 188.204 180.318,188.153 180.318,187.146 180.805 M378.284 189.801 C 378.284 190.379,378.441 190.949,378.634 191.068 C 378.838 191.194,378.984 190.845,378.984 190.234 C 378.984 189.656,378.827 189.086,378.634 188.967 C 378.430 188.841,378.284 189.190,378.284 189.801 M383.187 220.624 C 383.187 221.009,383.345 221.422,383.538 221.541 C 383.730 221.660,383.888 221.442,383.888 221.057 C 383.888 220.672,383.730 220.259,383.538 220.140 C 383.345 220.021,383.187 220.239,383.187 220.624 M388.102 247.285 C 388.102 247.767,388.255 248.398,388.441 248.687 C 388.710 249.102,388.781 249.029,388.781 248.336 C 388.781 247.855,388.628 247.224,388.441 246.935 C 388.173 246.519,388.102 246.592,388.102 247.285 M393.345 281.745 C 393.345 282.227,393.503 282.718,393.695 282.837 C 393.893 282.959,394.046 282.673,394.046 282.178 C 394.046 281.696,393.888 281.205,393.695 281.086 C 393.497 280.964,393.345 281.250,393.345 281.745 M398.249 311.692 C 398.249 312.270,398.406 312.841,398.599 312.960 C 398.803 313.086,398.949 312.737,398.949 312.125 C 398.949 311.547,398.792 310.977,398.599 310.858 C 398.395 310.732,398.249 311.081,398.249 311.692 " stroke="none" fill="#0056bf" fill-rule="evenodd"></path></g></svg>