<svg id="svg" xmlns="http://www.w3.org/2000/svg" xmlns:xlink="http://www.w3.org/1999/xlink" width="400" height="350" viewBox="0, 0, 400,350"><g id="svgg"><path id="path0" d="M0.000 175.131 L 0.000 350.263 200.000 350.263 L 400.000 350.263 400.000 336.778 L 400.000 323.292 399.181 323.292 L 398.361 323.292 398.118 313.923 C 397.595 293.830,397.434 292.792,394.903 293.263 C 394.507 293.336,394.021 293.223,393.822 293.010 C 393.484 292.648,392.836 275.770,392.978 271.016 C 393.011 269.908,392.902 269.002,392.736 269.002 C 392.571 269.002,392.499 268.450,392.578 267.776 C 392.657 267.102,392.574 266.550,392.393 266.550 C 392.213 266.550,392.133 266.091,392.215 265.530 C 392.389 264.343,391.038 263.186,389.842 263.499 C 389.457 263.600,389.142 263.539,389.142 263.365 C 389.142 263.190,388.931 263.047,388.672 263.047 C 388.216 263.047,387.537 245.941,387.723 239.142 C 387.758 237.842,387.647 236.778,387.475 236.778 C 387.302 236.778,387.231 236.305,387.316 235.727 C 387.401 235.149,387.312 234.676,387.119 234.676 C 386.926 234.676,386.790 234.409,386.817 234.084 C 386.843 233.758,386.481 233.295,386.012 233.055 C 385.542 232.816,384.741 232.173,384.231 231.628 L 383.304 230.635 383.041 221.360 C 382.896 216.258,382.799 211.178,382.826 210.070 C 382.852 208.962,382.723 208.056,382.539 208.056 C 382.350 208.056,382.285 207.445,382.391 206.655 C 382.506 205.800,382.438 205.254,382.216 205.254 C 382.016 205.254,381.928 204.962,382.021 204.606 C 382.225 203.827,381.190 202.687,380.515 202.946 C 380.251 203.047,380.035 202.990,380.035 202.818 C 380.035 202.646,379.665 202.060,379.212 201.515 C 378.381 200.517,377.677 188.692,377.917 179.772 C 377.958 178.249,377.844 177.233,377.631 177.233 C 377.422 177.233,377.358 176.731,377.476 176.007 C 377.594 175.277,377.530 174.781,377.318 174.781 C 377.121 174.781,376.982 174.514,377.009 174.189 C 377.036 173.863,376.727 173.427,376.324 173.220 C 375.920 173.013,375.012 172.232,374.307 171.483 L 373.024 170.123 372.875 159.055 C 372.793 152.967,372.722 147.265,372.717 146.383 C 372.707 144.563,372.137 142.768,371.662 143.062 C 371.487 143.170,371.426 142.943,371.527 142.557 C 371.744 141.729,370.198 139.536,369.021 138.999 C 368.249 138.648,368.233 138.502,368.000 130.004 C 367.625 116.258,367.542 114.750,367.160 114.622 C 366.961 114.556,366.880 114.195,366.978 113.819 C 367.077 113.443,366.996 113.135,366.799 113.135 C 366.602 113.135,366.513 112.856,366.602 112.515 C 366.837 111.619,365.324 109.577,364.098 109.135 L 363.047 108.757 363.033 102.627 C 363.008 92.345,362.810 86.165,362.506 86.165 C 362.346 86.165,362.305 85.613,362.415 84.939 C 362.526 84.251,362.466 83.713,362.277 83.713 C 362.092 83.713,361.942 83.437,361.944 83.100 C 361.952 81.240,361.725 80.531,360.805 79.547 C 360.226 78.927,359.435 78.459,358.966 78.459 L 358.144 78.459 358.131 72.242 C 358.110 61.580,357.911 55.342,357.592 55.342 C 357.423 55.342,357.380 54.869,357.496 54.291 C 357.615 53.691,357.557 53.240,357.360 53.240 C 357.170 53.240,357.088 52.858,357.177 52.390 C 357.581 50.280,355.842 47.986,353.838 47.986 C 353.185 47.986,352.449 33.882,352.692 26.007 C 352.730 24.803,352.619 23.818,352.448 23.818 C 352.276 23.818,352.205 23.345,352.290 22.767 C 352.380 22.152,352.287 21.716,352.065 21.716 C 351.856 21.716,351.777 21.480,351.888 21.190 C 352.384 19.897,351.711 18.991,349.914 18.530 L 348.161 18.081 348.160 12.981 C 348.159 10.176,348.056 6.108,347.931 3.940 L 347.704 0.000 173.852 0.000 L 0.000 0.000 0.000 175.131 M336.339 6.198 C 339.511 7.701,339.854 8.776,340.286 18.564 C 340.643 26.664,341.418 31.844,342.720 34.851 C 344.208 38.287,344.910 42.199,345.360 49.562 C 345.884 58.145,346.900 64.409,348.029 66.014 C 349.127 67.576,349.749 71.582,350.248 80.303 C 350.642 87.194,351.929 94.637,353.219 97.491 C 354.431 100.171,354.803 102.442,355.179 109.442 C 355.697 119.079,356.292 122.657,358.136 127.193 C 359.351 130.183,359.992 134.265,360.413 141.680 C 360.610 145.146,360.861 148.535,360.971 149.210 C 361.656 153.414,362.350 156.241,363.035 157.618 C 364.249 160.060,364.552 161.800,365.137 169.710 C 365.945 180.617,366.780 186.060,367.920 187.836 C 368.972 189.474,369.534 192.728,370.050 200.175 C 370.344 204.413,370.674 208.433,370.783 209.107 C 371.474 213.385,372.475 217.518,373.193 219.056 C 374.641 222.158,374.930 223.946,375.319 232.224 C 375.700 240.332,376.558 245.639,378.101 249.436 C 379.141 251.996,379.908 256.256,380.204 261.121 C 380.849 271.714,381.720 277.448,383.022 279.670 C 384.071 281.460,384.795 285.853,385.275 293.345 C 385.818 301.822,386.918 308.306,388.275 311.033 C 389.437 313.366,389.804 315.721,390.185 323.292 C 390.615 331.808,391.495 337.027,393.186 341.073 C 393.862 342.690,393.455 343.331,390.982 344.545 L 388.967 345.534 198.134 345.534 L 7.302 345.534 6.103 344.226 L 4.904 342.917 4.904 175.239 L 4.904 7.560 6.202 6.231 L 7.500 4.901 170.738 4.990 L 333.975 5.079 336.339 6.198 M91.343 80.823 C 90.216 82.114,90.059 82.792,90.588 84.068 C 91.175 85.485,94.602 88.800,96.173 89.470 C 99.741 90.994,100.381 92.748,98.754 96.545 C 97.620 99.189,97.890 146.553,99.056 149.562 C 100.043 152.111,100.011 152.845,98.857 154.137 L 97.889 155.220 87.736 155.281 C 76.477 155.348,76.096 155.426,74.798 157.936 C 74.524 158.465,73.501 159.702,72.524 160.684 L 70.748 162.469 70.753 207.417 C 70.756 232.138,70.757 252.655,70.756 253.011 C 70.754 253.367,69.718 254.731,68.453 256.041 C 64.991 259.626,64.162 262.959,66.320 264.606 L 67.492 265.499 172.763 265.499 L 278.034 265.499 279.122 264.483 L 280.210 263.467 280.210 173.041 C 280.210 79.435,280.244 81.738,278.839 80.659 C 277.814 79.871,92.031 80.034,91.343 80.823 M267.975 89.755 C 268.255 89.996,268.840 90.600,269.275 91.098 L 270.066 92.004 270.066 172.632 C 270.066 221.465,269.938 253.500,269.741 253.867 C 268.657 255.893,269.838 255.794,247.730 255.719 C 226.117 255.646,226.499 255.677,225.567 253.936 C 225.305 253.447,225.149 240.815,225.060 212.869 C 224.920 169.052,224.819 171.561,226.824 168.933 L 227.706 167.776 232.680 167.787 C 235.415 167.794,238.751 167.940,240.092 168.113 C 242.514 168.425,242.541 168.419,244.127 167.255 C 245.004 166.611,246.390 165.816,247.206 165.490 C 248.022 165.164,249.083 164.429,249.563 163.858 L 250.438 162.818 250.438 127.547 C 250.438 95.010,250.484 92.208,251.030 91.409 C 252.028 89.948,252.502 89.848,259.370 89.656 C 263.030 89.553,266.349 89.435,266.746 89.393 C 267.142 89.351,267.696 89.514,267.975 89.755 M238.087 90.291 C 239.547 91.124,239.972 92.508,239.587 95.168 C 239.101 98.536,239.120 147.144,239.609 150.299 C 239.978 152.679,239.963 152.780,239.066 153.956 L 238.143 155.166 229.988 155.166 L 221.833 155.166 220.461 153.979 C 218.816 152.556,219.067 152.053,222.256 150.383 C 225.085 148.902,225.049 149.061,225.011 138.211 C 224.972 127.157,225.008 127.307,221.987 125.410 C 220.778 124.652,219.188 123.555,218.452 122.972 C 216.393 121.343,217.039 121.366,173.440 121.366 L 132.343 121.366 131.646 122.323 C 131.262 122.850,129.889 123.837,128.594 124.518 C 124.936 126.440,125.044 126.032,125.044 137.998 C 125.044 148.181,125.047 148.225,125.953 150.489 C 127.439 154.203,126.222 154.936,117.979 155.288 L 112.491 155.523 111.412 154.214 L 110.333 152.905 110.333 122.680 L 110.333 92.454 111.258 91.056 L 112.183 89.658 174.743 89.750 C 224.788 89.824,237.460 89.932,238.087 90.291 M364.670 110.563 C 364.980 110.918,365.421 111.602,365.649 112.084 C 366.045 112.922,366.039 112.929,365.508 112.259 C 365.202 111.874,364.448 111.021,363.831 110.365 C 363.122 109.609,362.966 109.308,363.408 109.544 C 363.792 109.750,364.360 110.208,364.670 110.563 M209.855 136.189 C 211.975 137.303,212.031 137.516,211.071 140.806 C 210.007 144.453,210.584 147.499,212.697 149.399 C 213.654 150.259,214.573 150.963,214.740 150.963 C 216.562 150.963,215.868 153.692,213.771 154.772 C 212.145 155.610,137.099 155.300,135.340 154.448 C 133.062 153.346,132.995 153.137,134.168 150.811 C 135.184 148.798,135.201 148.667,135.201 143.173 L 135.201 137.583 136.392 136.392 L 137.583 135.201 172.780 135.201 L 207.976 135.201 209.855 136.189 M370.197 141.358 C 370.655 142.026,370.928 142.674,370.804 142.798 C 370.679 142.922,370.578 142.834,370.578 142.601 C 370.578 142.369,369.942 141.556,369.165 140.794 C 368.177 139.825,367.994 139.519,368.558 139.776 C 369.002 139.978,369.739 140.690,370.197 141.358 M89.276 170.492 C 89.777 171.973,90.018 173.555,90.018 175.379 C 90.018 179.363,91.052 180.386,95.077 180.384 C 99.396 180.381,99.931 179.828,100.220 175.077 C 100.446 171.361,101.453 168.032,102.469 167.643 C 104.011 167.051,106.554 171.968,106.430 175.301 C 106.291 179.031,108.026 180.230,113.485 180.176 C 118.689 180.124,119.621 179.329,119.885 174.719 C 120.067 171.541,120.980 169.167,122.339 168.333 C 123.560 167.584,125.044 171.499,125.044 175.468 C 125.044 179.497,125.959 180.385,130.112 180.385 C 134.333 180.385,135.201 179.557,135.201 175.529 C 135.201 166.600,140.168 166.134,140.722 175.011 C 140.992 179.341,143.518 180.767,149.912 180.198 C 154.367 179.802,154.717 179.411,155.156 174.355 C 155.451 170.962,156.450 168.211,157.513 167.866 C 158.437 167.566,159.832 171.291,159.972 174.431 C 160.208 179.724,160.801 180.383,165.324 180.382 C 169.428 180.382,169.992 179.776,170.257 175.077 C 170.442 171.803,171.669 167.776,172.482 167.776 C 174.333 167.776,176.532 171.784,176.532 175.160 C 176.532 179.178,179.516 180.891,185.047 180.050 C 188.946 179.457,189.312 179.046,189.338 175.235 C 189.360 171.953,190.075 169.993,191.828 168.406 C 193.317 167.058,194.786 170.083,195.067 175.077 C 195.336 179.838,195.864 180.381,200.236 180.384 C 204.358 180.386,205.249 179.497,205.265 175.367 C 205.287 169.385,207.197 166.951,209.708 169.702 C 212.356 172.604,212.340 172.557,211.541 175.143 C 210.983 176.947,210.887 177.929,211.068 179.967 C 211.323 182.848,210.804 183.829,208.505 184.809 C 206.792 185.539,88.805 185.523,87.056 184.793 C 85.043 183.952,84.840 183.280,84.830 177.408 C 84.813 168.460,87.285 164.614,89.276 170.492 M209.201 196.335 C 210.553 197.254,210.657 197.452,210.290 198.408 C 209.655 200.063,212.155 200.000,147.462 200.000 L 86.833 200.000 85.949 199.116 C 84.837 198.004,84.975 197.262,86.482 196.247 L 87.669 195.447 147.781 195.447 L 207.893 195.447 209.201 196.335 M209.121 211.216 C 209.884 211.605,210.531 212.117,210.559 212.354 C 210.587 212.591,210.626 220.429,210.647 229.772 C 210.686 248.319,210.532 246.628,212.653 251.784 C 213.118 252.913,213.098 252.984,212.084 253.796 C 208.067 257.015,205.254 255.480,205.254 250.070 C 205.254 246.508,204.139 245.364,200.334 245.022 C 193.793 244.434,112.024 245.016,109.548 245.668 C 106.476 246.478,105.944 247.152,105.686 250.553 C 105.408 254.230,103.428 257.493,102.129 256.415 C 100.187 254.803,100.175 254.665,100.175 232.881 C 100.175 211.412,100.105 212.291,101.917 211.085 C 103.417 210.086,207.155 210.213,209.121 211.216 M89.158 211.718 L 90.018 212.578 90.010 232.821 C 90.002 254.703,90.042 254.195,88.128 256.567 C 87.570 257.259,87.551 257.254,86.666 256.217 C 85.036 254.308,85.043 254.397,85.059 232.925 L 85.075 212.434 85.990 211.646 C 87.171 210.628,88.089 210.649,89.158 211.718 " stroke="none" fill="#ffffff" fill-rule="evenodd"></path><path id="path1" d="M6.202 6.231 L 4.904 7.560 4.904 175.239 L 4.904 342.917 6.103 344.226 L 7.302 345.534 198.134 345.534 L 388.967 345.534 390.982 344.545 C 393.455 343.331,393.862 342.690,393.186 341.073 C 391.495 337.027,390.615 331.808,390.185 323.292 C 389.804 315.721,389.437 313.366,388.275 311.033 C 386.918 308.306,385.818 301.822,385.275 293.345 C 384.795 285.853,384.071 281.460,383.022 279.670 C 381.720 277.448,380.849 271.714,380.204 261.121 C 379.908 256.256,379.141 251.996,378.101 249.436 C 376.558 245.639,375.700 240.332,375.319 232.224 C 374.930 223.946,374.641 222.158,373.193 219.056 C 372.475 217.518,371.474 213.385,370.783 209.107 C 370.674 208.433,370.344 204.413,370.050 200.175 C 369.534 192.728,368.972 189.474,367.920 187.836 C 366.780 186.060,365.945 180.617,365.137 169.710 C 364.552 161.800,364.249 160.060,363.035 157.618 C 362.350 156.241,361.656 153.414,360.971 149.210 C 360.861 148.535,360.610 145.146,360.413 141.680 C 359.992 134.265,359.351 130.183,358.136 127.193 C 356.292 122.657,355.697 119.079,355.179 109.442 C 354.803 102.442,354.431 100.171,353.219 97.491 C 351.929 94.637,350.642 87.194,350.248 80.303 C 349.749 71.582,349.127 67.576,348.029 66.014 C 346.900 64.409,345.884 58.145,345.360 49.562 C 344.910 42.199,344.208 38.287,342.720 34.851 C 341.418 31.844,340.643 26.664,340.286 18.564 C 339.854 8.776,339.511 7.701,336.339 6.198 L 333.975 5.079 170.738 4.990 L 7.500 4.901 6.202 6.231 M352.796 34.676 C 352.796 35.350,352.868 35.626,352.956 35.289 C 353.044 34.952,353.044 34.400,352.956 34.063 C 352.868 33.726,352.796 34.002,352.796 34.676 M278.839 80.659 C 280.244 81.738,280.210 79.435,280.210 173.041 L 280.210 263.467 279.122 264.483 L 278.034 265.499 172.763 265.499 L 67.492 265.499 66.320 264.606 C 64.162 262.959,64.991 259.626,68.453 256.041 C 69.718 254.731,70.754 253.367,70.756 253.011 C 70.757 252.655,70.756 232.138,70.753 207.417 L 70.748 162.469 72.524 160.684 C 73.501 159.702,74.524 158.465,74.798 157.936 C 76.096 155.426,76.477 155.348,87.736 155.281 L 97.889 155.220 98.857 154.137 C 100.011 152.845,100.043 152.111,99.056 149.562 C 97.890 146.553,97.620 99.189,98.754 96.545 C 100.381 92.748,99.741 90.994,96.173 89.470 C 94.602 88.800,91.175 85.485,90.588 84.068 C 90.059 82.792,90.216 82.114,91.343 80.823 C 92.031 80.034,277.814 79.871,278.839 80.659 M259.370 89.656 C 252.502 89.848,252.028 89.948,251.030 91.409 C 250.484 92.208,250.438 95.010,250.438 127.547 L 250.438 162.818 249.563 163.858 C 249.083 164.429,248.022 165.164,247.206 165.490 C 246.390 165.816,245.004 166.611,244.127 167.255 C 242.541 168.419,242.514 168.425,240.092 168.113 C 238.751 167.940,235.415 167.794,232.680 167.787 L 227.706 167.776 226.824 168.933 C 224.819 171.561,224.920 169.052,225.060 212.869 C 225.149 240.815,225.305 253.447,225.567 253.936 C 226.499 255.677,226.117 255.646,247.730 255.719 C 269.838 255.794,268.657 255.893,269.741 253.867 C 269.938 253.500,270.066 221.465,270.066 172.632 L 270.066 92.004 269.275 91.098 C 268.004 89.644,267.512 89.312,266.746 89.393 C 266.349 89.435,263.030 89.553,259.370 89.656 M111.258 91.056 L 110.333 92.454 110.333 122.680 L 110.333 152.905 111.412 154.214 L 112.491 155.523 117.979 155.288 C 126.222 154.936,127.439 154.203,125.953 150.489 C 125.047 148.225,125.044 148.181,125.044 137.998 C 125.044 126.032,124.936 126.440,128.594 124.518 C 129.889 123.837,131.262 122.850,131.646 122.323 L 132.343 121.366 173.440 121.366 C 217.039 121.366,216.393 121.343,218.452 122.972 C 219.188 123.555,220.778 124.652,221.987 125.410 C 225.008 127.307,224.972 127.157,225.011 138.211 C 225.049 149.061,225.085 148.902,222.256 150.383 C 219.067 152.053,218.816 152.556,220.461 153.979 L 221.833 155.166 229.988 155.166 L 238.143 155.166 239.066 153.956 C 239.963 152.780,239.978 152.679,239.609 150.299 C 239.120 147.144,239.101 98.536,239.587 95.168 C 239.972 92.508,239.547 91.124,238.087 90.291 C 237.460 89.932,224.788 89.824,174.743 89.750 L 112.183 89.658 111.258 91.056 M363.831 110.365 C 364.448 111.021,365.202 111.874,365.508 112.259 C 366.039 112.929,366.045 112.922,365.649 112.084 C 365.113 110.952,364.284 110.013,363.408 109.544 C 362.966 109.308,363.122 109.609,363.831 110.365 M365.538 109.965 C 365.751 110.264,366.101 110.823,366.315 111.208 C 366.529 111.594,366.709 111.721,366.714 111.491 C 366.720 111.261,366.370 110.701,365.937 110.248 C 365.504 109.794,365.324 109.667,365.538 109.965 M136.392 136.392 L 135.201 137.583 135.201 143.173 C 135.201 148.667,135.184 148.798,134.168 150.811 C 132.995 153.137,133.062 153.346,135.340 154.448 C 137.099 155.300,212.145 155.610,213.771 154.772 C 215.868 153.692,216.562 150.963,214.740 150.963 C 214.573 150.963,213.654 150.259,212.697 149.399 C 210.584 147.499,210.007 144.453,211.071 140.806 C 212.031 137.516,211.975 137.303,209.855 136.189 L 207.976 135.201 172.780 135.201 L 137.583 135.201 136.392 136.392 M369.244 139.071 C 369.569 139.261,370.237 139.926,370.728 140.549 C 371.219 141.172,371.623 141.569,371.625 141.431 C 371.632 140.988,369.469 138.704,369.053 138.715 C 368.832 138.721,368.918 138.881,369.244 139.071 M369.165 140.794 C 369.942 141.556,370.578 142.369,370.578 142.601 C 370.578 142.834,370.679 142.922,370.804 142.798 C 371.149 142.453,369.469 140.191,368.558 139.776 C 367.994 139.519,368.177 139.825,369.165 140.794 M372.761 162.172 C 372.761 162.846,372.833 163.122,372.921 162.785 C 373.009 162.447,373.009 161.896,372.921 161.559 C 372.833 161.222,372.761 161.497,372.761 162.172 M87.181 167.783 C 85.600 168.682,84.819 171.876,84.830 177.408 C 84.840 183.280,85.043 183.952,87.056 184.793 C 88.805 185.523,206.792 185.539,208.505 184.809 C 210.804 183.829,211.323 182.848,211.068 179.967 C 210.887 177.929,210.983 176.947,211.541 175.143 C 212.340 172.557,212.356 172.604,209.708 169.702 C 207.197 166.951,205.287 169.385,205.265 175.367 C 205.249 179.497,204.358 180.386,200.236 180.384 C 195.864 180.381,195.336 179.838,195.067 175.077 C 194.786 170.083,193.317 167.058,191.828 168.406 C 190.075 169.993,189.360 171.953,189.338 175.235 C 189.312 179.046,188.946 179.457,185.047 180.050 C 179.516 180.891,176.532 179.178,176.532 175.160 C 176.532 171.784,174.333 167.776,172.482 167.776 C 171.669 167.776,170.442 171.803,170.257 175.077 C 169.992 179.776,169.428 180.382,165.324 180.382 C 160.801 180.383,160.208 179.724,159.972 174.431 C 159.605 166.182,155.871 166.123,155.156 174.355 C 154.717 179.411,154.367 179.802,149.912 180.198 C 143.518 180.767,140.992 179.341,140.722 175.011 C 140.168 166.134,135.201 166.600,135.201 175.529 C 135.201 179.557,134.333 180.385,130.112 180.385 C 125.959 180.385,125.044 179.497,125.044 175.468 C 125.044 171.499,123.560 167.584,122.339 168.333 C 120.980 169.167,120.067 171.541,119.885 174.719 C 119.621 179.329,118.689 180.124,113.485 180.176 C 108.026 180.230,106.291 179.031,106.430 175.301 C 106.554 171.968,104.011 167.051,102.469 167.643 C 101.453 168.032,100.446 171.361,100.220 175.077 C 99.931 179.828,99.396 180.381,95.077 180.384 C 91.052 180.386,90.018 179.363,90.018 175.379 C 90.018 171.239,88.457 167.058,87.181 167.783 M86.482 196.247 C 84.975 197.262,84.837 198.004,85.949 199.116 L 86.833 200.000 147.462 200.000 C 212.155 200.000,209.655 200.063,210.290 198.408 C 210.657 197.452,210.553 197.254,209.201 196.335 L 207.893 195.447 147.781 195.447 L 87.669 195.447 86.482 196.247 M101.917 211.085 C 100.105 212.291,100.175 211.412,100.175 232.881 C 100.175 254.665,100.187 254.803,102.129 256.415 C 103.428 257.493,105.408 254.230,105.686 250.553 C 105.944 247.152,106.476 246.478,109.548 245.668 C 112.024 245.016,193.793 244.434,200.334 245.022 C 204.139 245.364,205.254 246.508,205.254 250.070 C 205.254 255.480,208.067 257.015,212.084 253.796 C 213.098 252.984,213.118 252.913,212.653 251.784 C 210.532 246.628,210.686 248.319,210.647 229.772 C 210.626 220.429,210.587 212.591,210.559 212.354 C 210.531 212.117,209.884 211.605,209.121 211.216 C 207.155 210.213,103.417 210.086,101.917 211.085 M85.990 211.646 L 85.075 212.434 85.059 232.925 C 85.043 254.397,85.036 254.308,86.666 256.217 C 87.551 257.254,87.570 257.259,88.128 256.567 C 90.042 254.195,90.002 254.703,90.010 232.821 L 90.018 212.578 89.158 211.718 C 88.089 210.649,87.171 210.628,85.990 211.646 " stroke="none" fill="#0056bf" fill-rule="evenodd"></path></g></svg>