<svg id="svg" xmlns="http://www.w3.org/2000/svg" xmlns:xlink="http://www.w3.org/1999/xlink" width="400" height="350" viewBox="0, 0, 400,350"><g id="svgg"><path id="path0" d="M0.000 175.131 L 0.000 350.263 200.000 350.263 L 400.000 350.263 400.000 336.427 C 400.000 324.363,399.933 322.592,399.475 322.592 C 399.036 322.592,398.949 321.878,398.949 318.272 C 398.949 315.896,398.843 313.846,398.714 313.717 C 398.585 313.588,398.452 310.370,398.419 306.566 C 398.335 296.956,397.210 292.820,394.681 292.820 C 394.097 292.820,394.046 292.413,394.046 287.799 C 394.046 285.038,393.957 282.691,393.850 282.583 C 393.742 282.475,393.605 279.257,393.545 275.432 C 393.424 267.713,393.000 265.046,391.700 263.835 C 390.793 262.990,389.651 262.752,390.023 263.485 C 390.145 263.726,390.019 263.647,389.742 263.310 C 389.466 262.973,389.100 262.697,388.928 262.697 C 388.757 262.697,388.605 259.584,388.590 255.779 C 388.515 235.697,387.966 232.398,384.806 233.002 L 383.949 233.166 383.904 227.385 C 383.880 224.206,383.778 221.471,383.678 221.309 C 383.577 221.147,383.452 217.902,383.400 214.097 C 383.276 205.121,382.825 203.455,380.286 202.596 L 379.159 202.215 379.063 196.729 C 379.010 193.712,378.833 191.243,378.669 191.243 C 378.506 191.243,378.452 189.147,378.550 186.584 C 378.817 179.596,377.783 172.680,376.472 172.680 C 376.290 172.680,376.253 172.861,376.391 173.084 C 376.547 173.336,376.487 173.393,376.231 173.235 C 376.005 173.095,375.917 172.825,376.035 172.634 C 376.389 172.061,375.532 170.443,374.511 169.757 L 373.555 169.115 373.667 161.054 C 373.728 156.621,373.647 153.075,373.486 153.174 C 373.326 153.273,373.252 152.210,373.323 150.811 C 373.542 146.461,372.638 142.459,371.582 143.111 C 371.442 143.198,371.213 143.084,371.073 142.859 C 370.915 142.603,370.972 142.543,371.224 142.699 C 371.885 143.107,371.686 142.374,370.842 141.291 C 369.433 139.482,369.055 139.088,368.852 139.214 C 368.648 139.340,368.532 133.752,368.536 124.041 C 368.538 120.776,368.409 118.739,368.210 118.862 C 368.015 118.983,367.942 118.392,368.032 117.414 C 368.197 115.609,367.488 112.960,366.840 112.960 C 366.616 112.960,366.302 112.816,366.141 112.641 C 365.972 112.456,366.033 112.428,366.287 112.574 C 367.303 113.159,365.736 110.565,364.550 109.700 C 364.002 109.300,363.923 108.657,363.923 104.592 C 363.923 102.034,363.828 99.846,363.711 99.730 C 363.594 99.613,363.470 96.316,363.434 92.403 C 363.395 88.241,363.199 84.708,362.961 83.888 C 362.737 83.117,362.456 82.018,362.336 81.444 C 362.121 80.413,359.549 77.605,359.085 77.894 C 358.952 77.976,358.893 76.227,358.954 74.007 C 359.014 71.788,358.951 69.714,358.814 69.399 C 358.677 69.084,358.590 66.462,358.619 63.573 C 358.712 54.481,357.646 49.977,355.015 48.351 L 353.796 47.597 353.660 41.399 C 353.231 21.765,352.920 19.756,350.100 18.418 L 348.862 17.831 348.862 13.139 C 348.862 10.559,348.725 8.363,348.557 8.260 C 348.390 8.156,348.322 6.216,348.407 3.948 C 348.518 0.992,348.457 -0.026,348.192 0.350 C 347.941 0.706,347.820 0.734,347.816 0.438 C 347.812 0.088,312.793 0.000,173.905 0.000 L 0.000 0.000 0.000 175.131 M335.582 5.870 C 339.286 7.369,339.454 7.854,340.263 19.367 C 340.868 27.972,341.341 30.771,343.037 35.777 C 344.374 39.722,344.870 42.650,345.200 48.542 C 345.694 57.338,346.616 63.065,348.037 66.162 C 349.150 68.589,349.787 72.374,350.077 78.296 C 350.511 87.171,351.408 92.537,353.355 97.898 C 354.474 100.981,355.030 104.877,355.351 111.897 C 355.613 117.631,356.267 121.382,357.819 126.069 C 359.269 130.447,359.929 134.419,360.234 140.611 C 360.634 148.742,361.547 154.347,363.022 157.727 C 364.309 160.677,364.614 162.498,365.158 170.483 C 365.839 180.466,366.446 183.917,368.606 190.079 C 369.272 191.979,369.580 193.862,369.865 197.785 C 370.801 210.628,371.340 214.134,373.030 218.390 C 374.343 221.695,374.685 223.784,375.147 231.349 C 375.638 239.379,376.586 245.404,377.940 249.100 C 379.336 252.913,379.937 256.616,380.372 264.098 C 380.813 271.673,381.814 277.662,382.863 278.997 C 383.938 280.364,384.771 285.896,385.470 296.322 C 385.807 301.344,386.875 307.035,388.101 310.346 C 389.511 314.153,389.766 315.774,390.195 323.643 C 390.600 331.076,391.305 335.756,392.531 339.157 C 393.727 342.475,393.574 343.188,391.428 344.290 L 389.686 345.184 198.527 345.272 L 7.369 345.361 6.224 344.338 L 5.079 343.315 5.079 175.358 L 5.079 7.402 6.090 6.346 C 6.647 5.765,7.435 5.224,7.842 5.143 C 8.249 5.063,81.716 5.015,171.103 5.038 L 333.625 5.079 335.582 5.870 M89.195 75.810 C 87.085 76.377,86.249 77.230,84.537 80.560 L 83.187 83.187 83.187 175.306 L 83.187 267.426 84.542 270.053 C 86.185 273.239,86.936 274.100,88.580 274.683 C 90.572 275.391,119.813 275.322,121.698 274.606 C 124.438 273.565,124.285 275.099,124.480 246.739 C 124.708 213.439,123.494 216.637,135.902 216.637 C 148.394 216.637,150.016 215.727,149.297 209.115 C 148.853 205.027,148.129 203.317,146.996 203.676 C 143.773 204.697,142.403 204.878,137.531 204.931 C 128.536 205.030,127.687 203.966,127.917 192.902 C 127.974 190.160,127.890 186.801,127.729 185.438 C 127.390 182.565,128.036 181.400,130.780 179.932 C 132.702 178.904,143.085 178.811,145.666 179.799 C 147.703 180.579,147.772 180.564,148.320 179.247 C 148.937 177.764,149.227 175.224,149.371 170.053 C 149.551 163.575,150.102 162.300,153.733 159.963 C 154.390 159.540,155.493 158.301,156.185 157.210 C 156.877 156.119,157.758 154.785,158.144 154.246 C 158.794 153.337,158.844 152.706,158.844 145.499 C 158.844 135.081,158.890 135.026,167.601 135.026 C 176.106 135.026,176.180 135.111,176.187 144.824 C 176.191 149.676,176.326 152.109,176.625 152.715 C 178.256 156.015,187.799 156.277,189.397 153.065 C 189.932 151.988,190.048 84.600,189.517 82.750 C 189.112 81.337,184.819 76.547,183.320 75.835 C 181.769 75.099,91.929 75.075,89.195 75.810 M111.840 94.568 C 114.375 95.322,114.533 95.973,114.535 105.675 C 114.537 119.153,114.133 119.769,105.283 119.784 C 95.888 119.801,95.643 119.451,95.630 106.025 C 95.620 95.396,95.836 94.723,99.427 94.169 C 101.705 93.817,110.238 94.092,111.840 94.568 M143.593 94.788 C 145.645 96.514,145.711 96.870,145.694 106.200 C 145.670 119.877,145.721 119.790,137.634 119.790 C 128.229 119.790,127.856 119.243,127.916 105.527 L 127.952 97.394 128.862 96.354 C 131.246 93.630,140.986 92.594,143.593 94.788 M173.734 94.658 C 176.320 96.419,176.297 96.313,176.283 106.377 C 176.264 119.652,176.323 119.557,168.014 119.717 C 159.023 119.889,158.894 119.710,158.732 106.830 C 158.605 96.800,158.663 96.541,161.444 94.667 C 163.229 93.463,171.969 93.457,173.734 94.658 M365.096 111.675 C 365.566 112.195,365.582 112.318,365.176 112.318 C 364.900 112.318,364.599 112.029,364.507 111.675 C 364.414 111.322,364.378 111.033,364.427 111.033 C 364.475 111.033,364.776 111.322,365.096 111.675 M111.527 135.544 C 114.379 136.188,114.348 136.064,114.464 147.094 C 114.611 161.024,114.927 160.587,104.667 160.592 C 95.284 160.597,95.634 161.096,95.627 147.690 C 95.620 135.351,95.506 135.644,100.525 135.172 C 103.538 134.889,109.518 135.092,111.527 135.544 M142.622 135.214 C 143.332 135.411,144.326 136.063,144.831 136.663 L 145.748 137.753 145.641 147.790 C 145.498 161.183,145.787 160.728,137.375 160.790 C 128.151 160.857,127.846 160.437,127.846 147.687 C 127.846 137.929,127.938 137.386,129.776 136.250 C 131.890 134.943,139.452 134.333,142.622 135.214 M370.109 141.611 C 370.367 141.765,370.578 142.141,370.578 142.446 C 370.578 142.817,370.318 142.666,369.796 141.991 C 369.366 141.435,368.892 140.928,368.743 140.863 C 368.594 140.799,368.574 140.581,368.698 140.380 C 368.833 140.161,369.067 140.278,369.282 140.673 C 369.479 141.035,369.851 141.457,370.109 141.611 M211.208 163.639 C 197.820 163.809,185.210 163.970,183.187 163.996 C 181.165 164.022,175.882 163.915,171.449 163.757 C 162.313 163.431,162.247 163.444,159.446 166.147 C 156.758 168.739,156.928 165.158,156.894 219.930 L 156.864 268.828 158.104 270.887 C 160.885 275.505,160.103 275.307,175.558 275.305 C 193.318 275.303,191.769 276.809,191.769 259.543 C 191.769 245.262,191.635 245.910,194.904 244.362 C 197.944 242.922,207.391 242.943,210.168 244.396 C 213.493 246.135,213.331 245.377,213.413 259.624 C 213.512 276.809,211.969 275.368,230.123 275.229 C 245.052 275.115,244.089 275.358,246.064 271.198 L 247.319 268.555 247.294 220.015 C 247.266 164.275,247.441 167.691,244.483 165.202 C 242.185 163.269,241.795 163.251,211.208 163.639 M375.482 172.083 C 375.482 172.553,374.466 171.653,374.014 170.782 C 373.676 170.131,373.735 170.144,374.558 170.902 C 375.066 171.369,375.482 171.900,375.482 172.083 M179.879 173.744 C 186.670 176.072,186.506 185.693,179.639 187.779 C 172.811 189.853,168.838 187.192,168.830 180.541 C 168.822 174.137,173.190 171.450,179.879 173.744 M207.998 173.830 C 211.760 175.673,211.349 186.335,207.453 187.975 C 205.939 188.612,198.844 188.434,197.520 187.726 C 194.348 186.028,194.184 176.628,197.287 174.312 C 198.882 173.120,205.904 172.804,207.998 173.830 M233.809 174.135 C 237.469 177.349,237.390 184.180,233.653 187.544 C 232.271 188.789,224.930 188.550,222.860 187.194 C 219.744 185.152,219.599 175.561,222.665 174.248 C 226.221 172.726,232.136 172.666,233.809 174.135 M109.443 179.349 C 114.668 179.948,114.691 179.999,114.591 190.718 C 114.471 203.467,114.311 203.874,109.059 204.793 C 106.513 205.239,105.319 205.268,102.421 204.958 C 95.696 204.237,95.876 204.569,95.621 192.469 C 95.360 180.122,95.522 179.681,100.465 179.305 C 104.900 178.967,106.160 178.973,109.443 179.349 M181.524 197.382 C 184.769 198.978,185.641 207.363,182.757 209.252 C 180.387 210.805,174.002 211.274,171.615 210.070 C 168.089 208.292,167.767 200.763,171.077 197.453 L 172.114 196.416 176.162 196.576 C 179.135 196.694,180.559 196.908,181.524 197.382 M208.677 197.199 C 210.696 199.080,211.285 207.177,209.545 209.120 C 207.549 211.347,198.418 211.447,196.237 209.267 C 193.953 206.983,195.027 197.919,197.711 196.831 C 199.363 196.161,207.870 196.447,208.677 197.199 M234.076 197.202 C 236.386 199.019,237.285 206.900,235.410 208.896 C 232.784 211.691,222.980 211.440,221.288 208.534 C 219.943 206.225,220.473 200.026,222.186 198.035 C 223.596 196.396,232.278 195.787,234.076 197.202 M109.757 218.066 C 114.263 219.223,114.510 219.955,114.421 231.874 C 114.325 244.768,114.405 244.658,105.079 244.658 C 95.539 244.658,95.838 245.067,95.685 231.820 C 95.565 221.476,95.714 220.436,97.532 218.928 C 99.096 217.630,106.128 217.134,109.757 218.066 M180.224 221.206 C 183.627 222.088,184.241 223.246,184.251 228.798 C 184.260 233.913,183.823 234.437,178.740 235.400 C 170.587 236.943,167.731 233.862,169.169 225.076 C 169.852 220.906,173.770 219.534,180.224 221.206 M208.451 221.214 C 210.443 222.244,211.498 230.694,209.998 233.595 C 208.902 235.715,199.658 236.700,196.918 234.989 C 194.650 233.572,194.337 224.071,196.488 221.920 C 197.748 220.661,206.395 220.151,208.451 221.214 M233.850 221.238 C 235.816 222.171,236.201 223.345,236.228 228.483 L 236.252 232.973 234.967 234.154 C 232.756 236.184,223.822 236.240,221.818 234.236 C 220.220 232.638,220.061 225.629,221.557 222.737 C 222.529 220.857,230.897 219.837,233.850 221.238 M181.216 245.181 C 185.982 246.622,185.546 254.425,180.560 256.918 C 174.078 260.159,168.841 257.297,168.830 250.508 C 168.822 245.146,173.892 242.965,181.216 245.181 M234.255 245.523 C 237.454 247.841,237.334 253.366,234.005 257.005 C 232.315 258.854,224.763 258.377,222.459 256.276 C 219.782 253.835,219.978 246.292,222.746 245.215 C 225.780 244.034,232.446 244.213,234.255 245.523 " stroke="none" fill="#ffffff" fill-rule="evenodd"></path><path id="path1" d="M7.842 5.143 C 7.435 5.224,6.647 5.765,6.090 6.346 L 5.079 7.402 5.079 175.358 L 5.079 343.315 6.224 344.338 L 7.369 345.361 198.527 345.272 L 389.686 345.184 391.428 344.290 C 393.574 343.188,393.727 342.475,392.531 339.157 C 391.305 335.756,390.600 331.076,390.195 323.643 C 389.766 315.774,389.511 314.153,388.101 310.346 C 386.875 307.035,385.807 301.344,385.470 296.322 C 384.771 285.896,383.938 280.364,382.863 278.997 C 381.814 277.662,380.813 271.673,380.372 264.098 C 379.937 256.616,379.336 252.913,377.940 249.100 C 376.586 245.404,375.638 239.379,375.147 231.349 C 374.685 223.784,374.343 221.695,373.030 218.390 C 371.340 214.134,370.801 210.628,369.865 197.785 C 369.580 193.862,369.272 191.979,368.606 190.079 C 366.446 183.917,365.839 180.466,365.158 170.483 C 364.614 162.498,364.309 160.677,363.022 157.727 C 361.547 154.347,360.634 148.742,360.234 140.611 C 359.929 134.419,359.269 130.447,357.819 126.069 C 356.267 121.382,355.613 117.631,355.351 111.897 C 355.030 104.877,354.474 100.981,353.355 97.898 C 351.408 92.537,350.511 87.171,350.077 78.296 C 349.787 72.374,349.150 68.589,348.037 66.162 C 346.616 63.065,345.694 57.338,345.200 48.542 C 344.870 42.650,344.374 39.722,343.037 35.777 C 341.341 30.771,340.868 27.972,340.263 19.367 C 339.454 7.854,339.286 7.369,335.582 5.870 L 333.625 5.079 171.103 5.038 C 81.716 5.015,8.249 5.063,7.842 5.143 M348.161 7.139 C 348.161 7.621,348.319 8.112,348.511 8.231 C 348.709 8.353,348.862 8.067,348.862 7.572 C 348.862 7.090,348.704 6.599,348.511 6.480 C 348.314 6.358,348.161 6.644,348.161 7.139 M353.070 33.867 C 353.073 34.216,353.228 34.737,353.415 35.026 C 353.681 35.437,353.756 35.346,353.760 34.609 C 353.763 34.091,353.608 33.569,353.415 33.450 C 353.222 33.331,353.067 33.519,353.070 33.867 M358.319 68.260 C 358.319 68.645,358.476 69.058,358.669 69.177 C 358.862 69.296,359.019 69.078,359.019 68.693 C 359.019 68.308,358.862 67.895,358.669 67.776 C 358.476 67.657,358.319 67.875,358.319 68.260 M183.320 75.835 C 184.819 76.547,189.112 81.337,189.517 82.750 C 190.048 84.600,189.932 151.988,189.397 153.065 C 187.799 156.277,178.256 156.015,176.625 152.715 C 176.326 152.109,176.191 149.676,176.187 144.824 C 176.180 135.111,176.106 135.026,167.601 135.026 C 158.890 135.026,158.844 135.081,158.844 145.499 C 158.844 152.706,158.794 153.337,158.144 154.246 C 157.758 154.785,156.877 156.119,156.185 157.210 C 155.493 158.301,154.390 159.540,153.733 159.963 C 150.102 162.300,149.551 163.575,149.371 170.053 C 149.227 175.224,148.937 177.764,148.320 179.247 C 147.772 180.564,147.703 180.579,145.666 179.799 C 143.085 178.811,132.702 178.904,130.780 179.932 C 128.036 181.400,127.390 182.565,127.729 185.438 C 127.890 186.801,127.974 190.160,127.917 192.902 C 127.687 203.966,128.536 205.030,137.531 204.931 C 142.403 204.878,143.773 204.697,146.996 203.676 C 148.129 203.317,148.853 205.027,149.297 209.115 C 150.016 215.727,148.394 216.637,135.902 216.637 C 123.494 216.637,124.708 213.439,124.480 246.739 C 124.285 275.099,124.438 273.565,121.698 274.606 C 119.813 275.322,90.572 275.391,88.580 274.683 C 86.936 274.100,86.185 273.239,84.542 270.053 L 83.187 267.426 83.187 175.306 L 83.187 83.187 84.537 80.560 C 86.249 77.230,87.085 76.377,89.195 75.810 C 91.929 75.075,181.769 75.099,183.320 75.835 M99.427 94.169 C 95.836 94.723,95.620 95.396,95.630 106.025 C 95.643 119.451,95.888 119.801,105.283 119.784 C 114.133 119.769,114.537 119.153,114.535 105.675 C 114.533 94.073,114.692 94.284,105.779 94.045 C 103.179 93.975,100.320 94.031,99.427 94.169 M131.168 94.592 C 130.400 94.989,129.363 95.782,128.862 96.354 L 127.952 97.394 127.916 105.527 C 127.856 119.243,128.229 119.790,137.634 119.790 C 145.721 119.790,145.670 119.877,145.694 106.200 C 145.711 96.870,145.645 96.514,143.593 94.788 C 142.080 93.514,133.513 93.380,131.168 94.592 M161.444 94.667 C 158.663 96.541,158.605 96.800,158.732 106.830 C 158.894 119.710,159.023 119.889,168.014 119.717 C 176.323 119.557,176.264 119.652,176.283 106.377 C 176.297 96.313,176.320 96.419,173.734 94.658 C 171.969 93.457,163.229 93.463,161.444 94.667 M363.222 98.578 C 363.222 99.049,363.380 99.531,363.573 99.650 C 363.777 99.776,363.923 99.420,363.923 98.795 C 363.923 98.205,363.765 97.723,363.573 97.723 C 363.380 97.723,363.222 98.108,363.222 98.578 M364.715 109.824 C 365.247 110.393,365.931 111.173,366.235 111.559 C 366.607 112.030,366.577 111.871,366.143 111.074 C 365.789 110.421,365.105 109.641,364.623 109.339 C 363.771 108.804,363.773 108.817,364.715 109.824 M364.507 111.675 C 364.599 112.029,364.900 112.318,365.176 112.318 C 365.582 112.318,365.566 112.195,365.096 111.675 C 364.776 111.322,364.475 111.033,364.427 111.033 C 364.378 111.033,364.414 111.322,364.507 111.675 M368.175 127.671 C 368.175 128.249,368.311 129.037,368.476 129.422 C 368.733 130.019,368.777 129.968,368.777 129.072 C 368.777 128.494,368.642 127.706,368.476 127.320 C 368.220 126.723,368.175 126.775,368.175 127.671 M100.525 135.172 C 95.506 135.644,95.620 135.351,95.627 147.690 C 95.634 161.096,95.284 160.597,104.667 160.592 C 114.927 160.587,114.611 161.024,114.464 147.094 C 114.348 136.064,114.379 136.188,111.527 135.544 C 109.518 135.092,103.538 134.889,100.525 135.172 M132.255 135.243 C 128.034 136.233,127.846 136.765,127.846 147.687 C 127.846 160.437,128.151 160.857,137.375 160.790 C 145.787 160.728,145.498 161.183,145.641 147.790 L 145.748 137.753 144.831 136.663 C 143.384 134.943,136.733 134.193,132.255 135.243 M368.658 139.044 C 368.483 139.327,368.504 139.429,368.710 139.301 C 369.050 139.091,369.337 139.359,370.842 141.291 C 371.275 141.846,371.629 142.143,371.629 141.949 C 371.629 141.175,368.956 138.562,368.658 139.044 M368.698 140.380 C 368.574 140.581,368.594 140.799,368.743 140.863 C 368.892 140.928,369.366 141.435,369.796 141.991 C 370.318 142.666,370.578 142.817,370.578 142.446 C 370.578 142.141,370.367 141.765,370.109 141.611 C 369.851 141.457,369.479 141.035,369.282 140.673 C 369.067 140.278,368.833 140.161,368.698 140.380 M373.421 151.898 C 373.398 152.123,373.278 152.596,373.153 152.949 C 372.977 153.446,373.024 153.500,373.361 153.190 C 373.600 152.969,373.721 152.496,373.629 152.139 C 373.537 151.781,373.443 151.673,373.421 151.898 M242.103 163.949 C 244.628 164.616,246.590 167.040,247.053 170.064 C 247.172 170.840,247.280 193.319,247.294 220.015 L 247.319 268.555 246.064 271.198 C 244.089 275.358,245.052 275.115,230.123 275.229 C 211.969 275.368,213.512 276.809,213.413 259.624 C 213.331 245.377,213.493 246.135,210.168 244.396 C 207.391 242.943,197.944 242.922,194.904 244.362 C 191.635 245.910,191.769 245.262,191.769 259.543 C 191.769 276.809,193.318 275.303,175.558 275.305 C 160.103 275.307,160.885 275.505,158.104 270.887 L 156.864 268.828 156.894 219.930 C 156.928 165.158,156.758 168.739,159.446 166.147 C 162.247 163.444,162.313 163.431,171.449 163.757 C 175.882 163.915,181.165 164.022,183.187 163.996 C 238.676 163.273,239.544 163.272,242.103 163.949 M373.391 168.604 C 373.402 169.009,375.084 170.397,375.294 170.175 C 375.358 170.107,374.953 169.637,374.395 169.130 C 373.837 168.622,373.385 168.386,373.391 168.604 M374.014 170.782 C 374.466 171.653,375.482 172.553,375.482 172.083 C 375.482 171.900,375.066 171.369,374.558 170.902 C 373.735 170.144,373.676 170.131,374.014 170.782 M375.816 171.218 C 376.047 171.667,376.152 172.253,376.049 172.521 C 375.947 172.788,375.997 173.091,376.162 173.193 C 376.645 173.491,376.362 171.316,375.856 170.838 C 375.477 170.480,375.470 170.547,375.816 171.218 M171.804 173.793 C 167.829 176.919,167.731 184.059,171.614 187.556 C 173.541 189.291,181.049 188.259,182.952 185.998 C 185.325 183.177,185.075 176.853,182.513 174.882 C 180.160 173.072,173.572 172.402,171.804 173.793 M200.228 173.377 C 196.389 173.879,195.094 175.691,195.100 180.555 C 195.106 186.711,196.295 188.014,202.190 188.324 C 208.884 188.677,210.497 187.143,210.504 180.416 C 210.511 174.128,207.943 172.369,200.228 173.377 M225.394 173.539 C 221.309 174.395,220.495 175.562,220.495 180.560 C 220.495 185.786,221.734 187.411,226.249 188.112 C 233.348 189.213,236.416 186.958,236.424 180.634 C 236.432 174.160,232.991 171.946,225.394 173.539 M100.465 179.305 C 95.522 179.681,95.360 180.122,95.621 192.469 C 95.876 204.569,95.696 204.237,102.421 204.958 C 109.583 205.725,113.474 204.385,114.159 200.916 C 114.666 198.345,114.769 182.495,114.285 181.607 C 113.042 179.331,108.988 178.656,100.465 179.305 M378.284 190.172 C 378.284 190.761,378.441 191.243,378.634 191.243 C 378.827 191.243,378.984 190.859,378.984 190.388 C 378.984 189.918,378.827 189.436,378.634 189.317 C 378.430 189.191,378.284 189.547,378.284 190.172 M171.077 197.453 C 169.018 199.512,168.110 205.394,169.440 208.056 C 170.729 210.636,174.170 211.419,179.391 210.321 C 183.686 209.417,184.275 208.672,184.361 204.028 C 184.467 198.340,182.815 196.840,176.162 196.576 L 172.114 196.416 171.077 197.453 M197.711 196.831 C 195.027 197.919,193.953 206.983,196.237 209.267 C 198.418 211.447,207.549 211.347,209.545 209.120 C 211.285 207.177,210.696 199.080,208.677 197.199 C 207.870 196.447,199.363 196.161,197.711 196.831 M224.363 196.844 C 219.829 197.717,218.865 208.619,223.196 210.052 C 227.478 211.470,233.530 210.897,235.410 208.896 C 237.285 206.900,236.386 199.019,234.076 197.202 C 233.117 196.447,227.499 196.240,224.363 196.844 M100.097 218.024 C 95.763 218.973,95.544 219.656,95.685 231.820 C 95.838 245.067,95.539 244.658,105.079 244.658 C 111.206 244.658,112.843 244.200,113.831 242.207 C 114.451 240.956,114.726 223.351,114.155 221.511 C 113.116 218.166,106.707 216.576,100.097 218.024 M383.187 220.274 C 383.187 220.659,383.345 221.072,383.538 221.191 C 383.730 221.310,383.888 221.092,383.888 220.707 C 383.888 220.322,383.730 219.909,383.538 219.790 C 383.345 219.671,383.187 219.889,383.187 220.274 M171.804 221.000 C 168.153 222.510,167.597 232.300,171.020 234.810 C 172.711 236.050,177.825 235.962,182.083 234.619 C 184.625 233.817,185.272 224.681,182.950 222.379 C 181.584 221.026,174.008 220.088,171.804 221.000 M198.671 220.998 C 195.919 221.445,195.096 223.363,195.096 229.329 C 195.096 234.764,195.819 235.399,202.282 235.646 C 209.730 235.930,210.508 235.243,210.508 228.377 C 210.508 220.879,208.211 219.447,198.671 220.998 M225.569 220.893 C 221.240 221.545,219.901 224.235,220.649 230.779 C 221.091 234.645,221.573 235.010,226.845 235.476 C 231.901 235.922,233.287 235.697,234.967 234.154 L 236.252 232.973 236.228 228.483 C 236.189 221.131,234.059 219.614,225.569 220.893 M171.195 245.343 C 167.829 247.687,168.017 253.896,171.555 257.218 C 173.849 259.372,181.411 257.757,183.450 254.677 C 184.641 252.879,184.613 247.792,183.406 246.489 C 181.553 244.491,173.504 243.735,171.195 245.343 M224.518 244.722 C 221.482 245.221,220.665 246.427,220.665 250.416 C 220.665 255.009,221.752 256.640,225.445 257.590 C 232.706 259.458,236.427 257.048,236.427 250.479 C 236.427 245.272,232.561 243.402,224.518 244.722 M388.102 247.285 C 388.102 247.767,388.255 248.398,388.441 248.687 C 388.710 249.102,388.781 249.029,388.781 248.336 C 388.781 247.855,388.628 247.224,388.441 246.935 C 388.173 246.519,388.102 246.592,388.102 247.285 M393.345 281.591 C 393.345 281.964,393.503 282.368,393.695 282.487 C 393.894 282.610,394.046 282.315,394.046 281.807 C 394.046 281.314,393.888 280.911,393.695 280.911 C 393.503 280.911,393.345 281.217,393.345 281.591 M398.254 312.151 C 398.251 312.862,398.406 313.541,398.599 313.660 C 399.051 313.939,399.051 312.083,398.599 311.384 C 398.346 310.992,398.258 311.187,398.254 312.151 " stroke="none" fill="#0056bf" fill-rule="evenodd"></path></g></svg>