<svg id="svg" xmlns="http://www.w3.org/2000/svg" xmlns:xlink="http://www.w3.org/1999/xlink" width="400" height="350" viewBox="0, 0, 400,350"><g id="svgg"><path id="path0" d="M0.000 175.131 L 0.000 350.263 200.000 350.263 L 400.000 350.263 400.005 322.680 C 400.013 280.899,399.105 269.152,395.379 262.837 C 394.858 261.954,394.601 260.830,394.516 259.073 C 393.642 240.877,393.357 238.849,390.887 233.275 L 389.568 230.298 389.169 222.592 C 388.582 211.264,387.952 207.578,385.823 203.006 C 384.675 200.539,384.666 200.480,384.260 192.374 C 383.663 180.480,382.710 175.230,380.540 171.904 C 379.746 170.687,379.669 170.129,379.334 163.148 C 378.709 150.116,378.177 146.823,375.952 142.221 L 374.689 139.608 374.229 131.003 C 373.610 119.426,373.072 116.341,370.932 112.084 C 369.719 109.673,369.616 108.980,369.164 100.175 C 368.669 90.536,367.964 85.633,366.645 82.657 C 364.937 78.803,364.652 77.295,364.275 70.132 C 363.673 58.697,363.265 56.335,360.903 50.613 C 359.632 47.536,359.594 47.315,359.323 41.331 C 358.790 29.581,358.219 25.643,356.470 21.675 C 354.581 17.388,354.519 17.097,354.307 11.559 C 354.193 8.573,354.002 4.750,353.882 3.065 L 353.665 0.000 176.832 0.000 L 0.000 0.000 0.000 175.131 M333.625 5.330 C 338.979 7.167,339.820 8.666,340.640 17.838 C 341.190 23.983,341.984 28.619,343.404 33.975 C 344.406 37.755,345.212 42.195,345.503 45.534 C 346.402 55.845,346.991 59.644,348.329 63.748 C 349.109 66.141,349.854 70.907,350.628 78.459 C 351.344 85.450,352.294 91.169,353.194 93.906 C 354.250 97.117,354.880 100.910,355.545 108.043 C 356.317 116.334,356.703 118.653,358.435 125.396 C 359.738 130.468,359.821 130.983,360.418 137.653 C 360.969 143.820,362.056 150.617,363.058 154.163 C 364.015 157.553,365.172 164.412,365.501 168.651 C 366.074 176.036,366.982 181.268,368.691 187.040 C 369.313 189.140,370.279 195.998,370.888 202.627 C 371.294 207.047,372.256 212.525,373.348 216.637 C 374.470 220.857,375.096 224.827,375.668 231.335 C 376.210 237.493,377.150 243.301,377.940 245.372 C 379.163 248.577,380.307 255.704,380.918 263.923 C 381.177 267.413,382.355 273.706,383.704 278.809 C 384.205 280.703,384.885 285.004,385.282 288.792 C 386.296 298.457,386.938 302.486,388.433 308.581 C 389.787 314.103,390.265 317.150,390.905 324.343 C 391.296 328.734,391.701 331.400,392.643 335.770 C 394.036 342.231,391.952 344.967,385.062 345.729 C 378.806 346.421,10.554 345.989,9.070 345.288 C 7.477 344.535,5.819 342.664,5.203 340.923 C 4.500 338.934,4.493 11.698,5.196 9.711 C 6.117 7.108,8.059 5.497,10.972 4.918 C 14.249 4.266,331.707 4.671,333.625 5.330 M149.037 75.558 C 138.877 76.971,126.121 83.341,118.732 90.691 C 97.952 111.360,97.195 142.203,116.939 163.698 C 122.895 170.182,122.630 172.035,115.158 176.167 C 101.608 183.660,88.697 197.200,81.473 211.489 C 73.028 228.196,72.361 246.835,80.162 248.153 C 85.339 249.028,87.937 245.605,89.848 235.392 C 93.702 214.804,107.296 197.286,126.550 188.096 C 137.944 182.658,141.937 182.771,144.912 188.616 C 147.179 193.069,149.167 194.683,153.305 195.429 C 159.067 196.467,162.787 194.541,165.517 189.107 C 168.310 183.545,170.864 182.813,178.284 185.449 C 201.037 193.533,218.464 214.707,221.516 237.978 C 222.529 245.703,224.845 248.383,230.538 248.419 C 240.547 248.482,240.932 237.877,231.704 216.364 C 224.318 199.146,211.873 185.291,195.435 175.983 C 188.449 172.028,188.132 169.989,193.587 164.113 C 206.640 150.052,211.052 132.771,206.297 114.330 C 200.089 90.255,173.382 72.171,149.037 75.558 M161.905 91.565 C 174.373 93.951,186.676 104.430,190.311 115.762 C 198.227 140.430,180.899 165.149,155.692 165.149 C 129.379 165.149,112.010 139.804,121.009 114.539 C 126.453 99.256,145.672 88.459,161.905 91.565 M152.362 204.530 C 148.388 205.739,146.896 207.899,145.895 213.893 C 145.578 215.788,144.936 219.466,144.468 222.067 C 143.999 224.667,143.379 228.511,143.089 230.608 C 142.798 232.704,142.245 235.751,141.858 237.378 C 139.560 247.056,141.707 248.862,155.517 248.862 C 170.347 248.862,171.636 247.105,168.111 231.699 C 167.362 228.424,166.349 222.658,165.860 218.886 C 164.731 210.175,164.290 208.654,162.355 206.790 C 160.036 204.558,155.582 203.551,152.362 204.530 " stroke="none" fill="#ffffff" fill-rule="evenodd"></path><path id="path1" d="M353.874 1.926 C 353.876 3.082,353.941 3.513,354.019 2.883 C 354.097 2.254,354.096 1.308,354.016 0.782 C 353.936 0.255,353.872 0.771,353.874 1.926 M10.972 4.918 C 8.059 5.497,6.117 7.108,5.196 9.711 C 4.493 11.698,4.500 338.934,5.203 340.923 C 5.819 342.664,7.477 344.535,9.070 345.288 C 10.554 345.989,378.806 346.421,385.062 345.729 C 391.952 344.967,394.036 342.231,392.643 335.770 C 391.701 331.400,391.296 328.734,390.905 324.343 C 390.265 317.150,389.787 314.103,388.433 308.581 C 386.938 302.486,386.296 298.457,385.282 288.792 C 384.885 285.004,384.205 280.703,383.704 278.809 C 382.355 273.706,381.177 267.413,380.918 263.923 C 380.307 255.704,379.163 248.577,377.940 245.372 C 377.150 243.301,376.210 237.493,375.668 231.335 C 375.096 224.827,374.470 220.857,373.348 216.637 C 372.256 212.525,371.294 207.047,370.888 202.627 C 370.279 195.998,369.313 189.140,368.691 187.040 C 366.982 181.268,366.074 176.036,365.501 168.651 C 365.172 164.412,364.015 157.553,363.058 154.163 C 362.056 150.617,360.969 143.820,360.418 137.653 C 359.821 130.983,359.738 130.468,358.435 125.396 C 356.703 118.653,356.317 116.334,355.545 108.043 C 354.880 100.910,354.250 97.117,353.194 93.906 C 352.294 91.169,351.344 85.450,350.628 78.459 C 349.854 70.907,349.109 66.141,348.329 63.748 C 346.991 59.644,346.402 55.845,345.503 45.534 C 345.212 42.195,344.406 37.755,343.404 33.975 C 341.984 28.619,341.190 23.983,340.640 17.838 C 339.820 8.666,338.979 7.167,333.625 5.330 C 331.707 4.671,14.249 4.266,10.972 4.918 M354.197 9.457 C 354.197 10.131,354.269 10.407,354.357 10.070 C 354.445 9.733,354.445 9.181,354.357 8.844 C 354.269 8.507,354.197 8.783,354.197 9.457 M359.101 38.179 C 359.101 38.853,359.173 39.129,359.261 38.792 C 359.349 38.454,359.349 37.903,359.261 37.566 C 359.173 37.229,359.101 37.504,359.101 38.179 M364.354 72.154 C 364.354 72.828,364.427 73.104,364.515 72.767 C 364.603 72.430,364.603 71.878,364.515 71.541 C 364.427 71.204,364.354 71.480,364.354 72.154 M163.372 75.837 C 186.430 79.858,205.398 99.567,207.688 121.884 C 209.405 138.613,204.993 151.826,193.587 164.113 C 188.132 169.989,188.449 172.028,195.435 175.983 C 211.873 185.291,224.318 199.146,231.704 216.364 C 240.932 237.877,240.547 248.482,230.538 248.419 C 224.845 248.383,222.529 245.703,221.516 237.978 C 218.464 214.707,201.037 193.533,178.284 185.449 C 170.864 182.813,168.310 183.545,165.517 189.107 C 162.787 194.541,159.067 196.467,153.305 195.429 C 149.167 194.683,147.179 193.069,144.912 188.616 C 141.937 182.771,137.944 182.658,126.550 188.096 C 107.296 197.286,93.702 214.804,89.848 235.392 C 87.937 245.605,85.339 249.028,80.162 248.153 C 73.717 247.064,72.798 232.345,78.329 218.799 C 85.970 200.083,98.830 185.197,115.158 176.167 C 122.630 172.035,122.895 170.182,116.939 163.698 C 103.163 148.701,99.167 129.702,105.761 110.560 C 113.612 87.767,140.131 71.784,163.372 75.837 M148.862 91.595 C 139.769 93.436,131.381 98.861,125.573 106.655 C 116.126 119.334,116.015 136.931,125.304 149.399 C 136.384 164.272,155.240 169.510,170.384 161.922 C 187.095 153.548,194.628 138.875,191.564 120.665 C 188.420 101.977,167.597 87.801,148.862 91.595 M369.258 102.627 C 369.258 103.301,369.330 103.577,369.418 103.240 C 369.506 102.903,369.506 102.351,369.418 102.014 C 369.330 101.677,369.258 101.953,369.258 102.627 M379.423 166.200 C 379.427 166.970,379.498 167.244,379.582 166.809 C 379.666 166.373,379.663 165.742,379.575 165.407 C 379.487 165.073,379.419 165.429,379.423 166.200 M384.327 194.221 C 384.330 194.991,384.402 195.265,384.486 194.830 C 384.570 194.394,384.567 193.763,384.479 193.428 C 384.391 193.094,384.323 193.450,384.327 194.221 M159.176 204.776 C 163.474 206.241,164.502 208.411,165.860 218.886 C 166.349 222.658,167.362 228.424,168.111 231.699 C 171.636 247.105,170.347 248.862,155.517 248.862 C 141.707 248.862,139.560 247.056,141.858 237.378 C 142.245 235.751,142.798 232.704,143.089 230.608 C 143.379 228.511,143.999 224.667,144.468 222.067 C 144.936 219.466,145.578 215.788,145.895 213.893 C 147.271 205.657,152.077 202.358,159.176 204.776 M389.223 223.818 C 389.223 224.492,389.295 224.768,389.383 224.431 C 389.471 224.094,389.471 223.542,389.383 223.205 C 389.295 222.868,389.223 223.144,389.223 223.818 M394.134 251.313 C 394.138 252.084,394.209 252.358,394.293 251.922 C 394.377 251.487,394.374 250.856,394.286 250.521 C 394.199 250.186,394.130 250.543,394.134 251.313 M399.388 285.639 C 399.392 286.410,399.463 286.684,399.547 286.248 C 399.631 285.812,399.628 285.182,399.540 284.847 C 399.452 284.512,399.384 284.869,399.388 285.639 " stroke="none" fill="#0056bf" fill-rule="evenodd"></path></g></svg>