<svg id="svg" xmlns="http://www.w3.org/2000/svg" xmlns:xlink="http://www.w3.org/1999/xlink" width="400" height="350" viewBox="0, 0, 400,350"><g id="svgg"><path id="path0" d="M0.000 175.131 L 0.000 350.263 200.000 350.263 L 400.000 350.263 400.000 336.602 L 400.000 322.942 398.774 322.942 L 397.548 322.942 397.511 311.121 C 397.491 304.619,397.503 298.866,397.537 298.336 C 397.572 297.806,397.467 297.373,397.304 297.373 C 397.141 297.373,397.007 296.726,397.007 295.935 C 397.007 294.076,395.856 293.012,394.148 293.289 C 392.572 293.545,392.659 294.327,392.636 279.728 C 392.624 271.818,392.485 266.550,392.288 266.550 C 392.109 266.550,392.053 266.092,392.165 265.532 C 392.409 264.315,391.078 263.181,389.860 263.567 C 389.442 263.700,389.142 263.639,389.142 263.421 C 389.142 263.216,388.748 263.047,388.266 263.047 L 387.391 263.047 387.380 250.701 C 387.366 233.319,387.331 232.986,385.552 233.413 C 385.215 233.494,384.939 233.400,384.939 233.204 C 384.939 233.003,384.403 232.911,383.713 232.991 L 382.487 233.134 382.462 220.858 C 382.427 203.513,382.523 204.683,380.942 202.300 C 380.100 201.032,379.230 200.155,378.594 199.934 L 377.583 199.581 377.532 188.320 C 377.504 182.126,377.517 176.546,377.560 175.919 C 377.603 175.293,377.473 174.781,377.271 174.781 C 377.070 174.781,376.983 174.577,377.079 174.327 C 377.174 174.078,376.854 173.527,376.367 173.104 C 375.880 172.680,375.482 172.016,375.482 171.626 C 375.482 171.135,375.000 170.685,373.905 170.153 L 372.329 169.388 372.288 156.935 C 372.265 150.087,372.269 144.298,372.297 144.072 C 372.325 143.846,372.067 143.452,371.724 143.196 C 371.381 142.941,370.707 142.144,370.226 141.426 C 369.745 140.707,368.919 139.940,368.389 139.720 L 367.426 139.320 367.375 127.891 C 367.347 121.605,367.359 115.950,367.402 115.324 C 367.445 114.698,367.315 114.186,367.114 114.186 C 366.912 114.186,366.833 113.961,366.938 113.687 C 367.043 113.413,366.878 112.901,366.571 112.549 C 364.440 110.107,363.792 109.194,364.505 109.640 C 364.920 109.899,365.586 110.673,365.984 111.360 C 366.666 112.535,366.709 112.557,366.717 111.724 C 366.729 110.364,365.850 109.411,364.107 108.897 L 362.522 108.429 362.485 97.034 C 362.464 90.767,362.476 85.206,362.511 84.676 C 362.546 84.146,362.440 83.713,362.274 83.713 C 362.109 83.713,361.939 83.287,361.896 82.767 C 361.743 80.922,360.634 79.369,359.077 78.820 L 357.618 78.305 357.581 66.736 C 357.561 60.373,357.573 54.733,357.607 54.203 C 357.642 53.673,357.523 53.240,357.343 53.240 C 357.162 53.240,357.088 52.858,357.177 52.390 C 357.615 50.102,355.831 47.986,353.466 47.986 L 352.431 47.986 352.287 34.063 C 352.119 17.878,352.205 18.214,348.208 18.214 C 347.464 18.214,347.461 18.171,347.461 9.107 L 347.461 0.000 173.730 0.000 L 0.000 0.000 0.000 175.131 M334.599 5.634 C 335.797 6.036,337.014 6.564,337.303 6.807 C 337.592 7.050,338.086 7.340,338.401 7.451 C 339.344 7.784,340.447 15.668,340.452 22.115 C 340.456 26.667,341.923 34.933,342.970 36.298 C 343.909 37.522,345.338 46.207,345.355 50.788 C 345.360 52.233,345.518 54.363,345.706 55.521 C 345.894 56.679,346.199 59.088,346.384 60.874 C 346.638 63.331,346.993 64.692,347.844 66.473 C 349.099 69.099,349.706 72.689,350.085 79.721 C 350.349 84.610,350.822 88.664,351.470 91.594 C 351.726 92.750,352.041 94.442,352.171 95.355 C 352.300 96.268,352.619 97.227,352.879 97.487 C 354.152 98.760,354.861 102.664,355.180 110.158 C 355.499 117.658,356.005 120.966,357.646 126.270 C 359.518 132.323,359.739 133.670,360.410 143.082 C 361.097 152.733,361.892 157.392,363.072 158.697 C 363.954 159.671,364.602 163.599,365.151 171.292 C 365.433 175.249,365.829 179.347,366.030 180.399 C 366.231 181.451,366.553 183.410,366.745 184.752 C 366.937 186.094,367.302 187.513,367.556 187.904 C 367.810 188.296,368.336 189.483,368.725 190.543 C 369.387 192.349,369.588 194.045,370.074 201.926 C 370.568 209.952,371.686 216.172,373.246 219.568 C 374.350 221.969,375.071 226.800,375.319 233.450 C 375.567 240.100,376.696 247.131,377.933 249.733 C 379.183 252.362,379.829 256.205,380.375 264.273 C 381.074 274.599,381.699 278.332,383.079 280.438 C 384.037 281.900,385.289 290.597,385.289 295.792 C 385.289 297.000,385.611 299.781,386.005 301.972 C 386.399 304.162,386.862 306.871,387.033 307.992 C 387.204 309.113,387.540 310.266,387.779 310.554 C 389.026 312.057,389.525 314.777,390.016 322.767 C 390.635 332.826,391.962 340.324,393.445 342.143 C 393.996 342.819,392.254 344.096,389.572 344.983 L 387.376 345.709 197.406 345.709 L 7.437 345.709 6.170 344.307 L 4.904 342.905 4.904 175.233 L 4.904 7.560 6.201 6.232 L 7.498 4.904 169.960 4.904 L 332.421 4.904 334.599 5.634 M359.720 80.053 C 359.720 80.149,359.247 79.984,358.669 79.685 C 358.091 79.386,357.618 79.063,357.618 78.966 C 357.618 78.870,358.091 79.036,358.669 79.335 C 359.247 79.633,359.720 79.957,359.720 80.053 M165.673 98.088 C 164.614 99.233,163.433 100.268,163.047 100.388 C 162.155 100.665,160.771 101.923,160.771 102.456 C 160.771 102.912,158.395 105.205,156.656 106.427 C 156.030 106.867,155.423 107.608,155.306 108.073 C 155.189 108.539,154.519 109.267,153.816 109.691 C 152.328 110.590,150.057 112.908,149.367 114.232 C 149.102 114.739,148.497 115.252,148.021 115.371 C 147.546 115.491,146.795 116.100,146.354 116.726 C 144.986 118.663,143.489 120.193,142.094 121.081 C 141.357 121.549,140.598 122.356,140.406 122.875 C 140.213 123.394,139.045 124.599,137.809 125.554 C 136.574 126.509,135.316 127.810,135.014 128.446 C 134.685 129.140,134.009 129.793,133.324 130.080 C 132.674 130.351,131.387 131.556,130.337 132.876 C 129.322 134.151,127.952 135.451,127.293 135.763 C 126.634 136.076,126.095 136.522,126.095 136.754 C 126.095 137.422,123.726 140.014,122.085 141.143 C 121.263 141.709,120.393 142.647,120.152 143.228 C 119.911 143.810,119.416 144.380,119.050 144.496 C 118.087 144.802,114.946 147.959,114.538 149.032 C 114.341 149.549,113.755 150.099,113.191 150.295 C 112.642 150.487,111.820 151.149,111.365 151.767 C 109.893 153.762,108.436 155.236,107.093 156.091 C 106.370 156.550,105.779 157.131,105.779 157.381 C 105.779 158.025,104.620 159.186,101.751 161.413 C 101.173 161.862,100.463 162.727,100.173 163.336 C 99.883 163.946,99.146 164.681,98.535 164.971 C 97.349 165.535,96.195 166.719,94.559 169.049 C 94.000 169.845,93.146 170.596,92.662 170.717 C 92.178 170.839,91.542 171.401,91.250 171.966 C 90.624 173.176,88.968 174.829,87.120 176.087 C 86.393 176.582,85.550 177.509,85.247 178.148 C 84.944 178.786,84.435 179.392,84.117 179.494 C 83.478 179.698,80.717 182.368,79.301 184.151 C 78.804 184.777,78.114 185.289,77.768 185.289 C 76.607 185.289,74.700 187.876,73.914 190.516 L 73.178 192.986 74.505 194.976 C 75.235 196.070,76.169 197.460,76.582 198.064 C 78.121 200.319,83.476 200.997,84.949 199.124 C 86.868 196.685,87.215 196.422,88.199 196.663 C 90.328 197.184,90.185 194.702,90.270 232.772 L 90.347 267.621 91.249 268.802 L 92.150 269.984 96.425 270.222 C 106.291 270.773,151.793 270.278,152.813 269.610 C 155.010 268.170,154.883 270.184,154.834 237.550 C 154.786 205.852,154.757 206.385,156.599 205.466 C 158.452 204.541,177.278 204.637,179.393 205.582 C 182.175 206.825,181.995 204.564,181.787 235.552 C 181.555 270.118,181.413 268.967,186.041 270.034 C 187.766 270.432,242.005 270.487,243.421 270.092 C 245.672 269.465,245.577 270.970,245.573 235.741 C 245.572 218.197,245.485 203.706,245.380 203.537 C 244.808 202.611,245.896 197.708,246.844 196.939 C 247.376 196.508,247.863 196.311,247.928 196.501 C 247.992 196.692,248.250 196.848,248.500 196.848 C 248.751 196.848,249.194 197.202,249.485 197.636 C 250.991 199.878,251.272 200.000,254.951 200.000 C 258.554 200.000,259.075 199.793,259.669 198.125 C 260.032 197.106,262.475 194.077,262.947 194.060 C 263.861 194.028,264.186 192.653,263.510 191.683 C 263.159 191.180,262.399 189.945,261.821 188.938 C 260.358 186.389,259.510 185.444,258.445 185.177 C 257.887 185.037,256.740 183.971,255.515 182.454 C 254.299 180.950,253.024 179.763,252.296 179.459 C 251.537 179.141,250.966 178.595,250.752 177.979 C 250.557 177.421,249.367 176.189,247.975 175.104 C 246.635 174.059,245.290 172.685,244.986 172.049 C 244.682 171.413,243.933 170.653,243.320 170.360 C 242.708 170.067,241.358 168.743,240.321 167.419 C 239.257 166.060,238.118 164.964,237.706 164.904 C 237.305 164.846,236.629 164.247,236.204 163.573 C 235.214 162.002,233.014 159.793,231.824 159.172 C 231.315 158.907,230.740 158.234,230.545 157.676 C 230.342 157.093,229.286 155.964,228.061 155.022 C 226.890 154.121,225.461 152.699,224.886 151.864 C 224.311 151.028,223.481 150.254,223.041 150.143 C 222.597 150.031,221.436 148.864,220.428 147.516 C 219.367 146.096,218.155 144.892,217.507 144.612 C 216.898 144.348,216.138 143.639,215.818 143.036 C 215.277 142.016,211.731 138.704,211.180 138.704 C 211.045 138.704,210.689 138.090,210.389 137.340 C 210.000 136.370,209.459 135.789,208.512 135.326 C 207.697 134.928,206.569 133.838,205.604 132.516 C 204.737 131.328,203.612 130.200,203.103 130.008 C 202.595 129.817,201.691 128.951,201.094 128.084 C 199.940 126.406,197.334 123.993,196.677 123.993 C 196.460 123.993,196.015 123.388,195.688 122.648 C 195.362 121.908,194.741 121.139,194.308 120.940 C 192.954 120.316,190.637 118.068,190.032 116.793 C 189.712 116.118,189.008 115.380,188.457 115.142 C 187.910 114.905,186.574 113.663,185.488 112.381 C 184.403 111.100,182.978 109.797,182.322 109.485 C 181.666 109.174,181.025 108.591,180.898 108.190 C 180.639 107.374,178.732 105.390,176.825 103.954 C 176.132 103.432,175.465 102.609,175.344 102.125 C 175.197 101.540,174.313 100.716,172.712 99.671 C 171.386 98.806,170.088 97.885,169.827 97.624 C 168.014 95.818,167.744 95.848,165.673 98.088 M169.054 118.229 C 169.696 118.720,170.657 119.318,171.188 119.560 C 173.371 120.551,174.478 121.434,175.051 122.640 C 175.384 123.341,176.201 124.287,176.866 124.742 C 178.552 125.896,180.274 127.666,180.914 128.902 C 181.211 129.477,181.738 129.947,182.084 129.947 C 182.801 129.947,183.177 130.308,185.646 133.363 C 186.620 134.567,187.619 135.552,187.868 135.552 C 188.463 135.552,189.700 136.923,190.001 137.916 C 190.132 138.349,190.347 138.709,190.479 138.714 C 190.610 138.719,191.422 139.350,192.282 140.115 C 193.141 140.880,193.964 141.506,194.110 141.506 C 194.256 141.506,194.727 142.118,195.158 142.866 C 195.588 143.614,196.438 144.494,197.047 144.822 C 197.656 145.150,199.003 146.507,200.040 147.838 C 201.078 149.168,202.194 150.258,202.522 150.260 C 202.849 150.261,203.550 150.854,204.079 151.576 C 205.309 153.255,208.442 156.217,208.988 156.217 C 209.218 156.217,209.674 156.808,210.001 157.531 C 210.349 158.300,211.433 159.497,212.618 160.420 C 213.730 161.287,215.053 162.649,215.558 163.446 C 216.063 164.243,216.913 165.075,217.446 165.296 C 217.980 165.517,219.198 166.703,220.154 167.931 C 221.109 169.159,222.364 170.375,222.942 170.633 C 223.520 170.892,224.289 171.655,224.651 172.329 C 225.014 173.004,226.396 174.409,227.724 175.452 C 229.132 176.557,230.244 177.726,230.393 178.254 C 230.533 178.752,230.648 196.839,230.648 218.448 L 230.648 257.737 229.825 258.613 C 228.273 260.265,227.898 260.301,213.969 260.146 C 200.327 259.995,198.518 259.814,196.848 258.436 L 195.972 257.714 195.911 225.483 C 195.842 189.454,195.981 191.908,193.957 190.904 C 191.989 189.928,143.552 189.918,141.775 190.893 C 140.249 191.731,140.285 190.966,140.182 225.203 C 140.091 255.583,140.041 257.985,139.482 258.614 C 138.086 260.183,137.422 260.245,122.122 260.245 L 107.619 260.245 106.349 259.082 L 105.079 257.919 105.079 220.290 C 105.080 178.126,105.164 176.532,107.397 176.532 C 108.074 176.532,110.625 174.158,111.589 172.632 C 112.032 171.929,112.862 171.148,113.432 170.896 C 114.002 170.643,114.724 170.004,115.036 169.476 C 115.784 168.210,118.588 165.419,119.358 165.175 C 119.692 165.069,120.167 164.526,120.414 163.968 C 120.661 163.410,122.040 161.988,123.479 160.807 C 124.918 159.626,126.095 158.475,126.095 158.249 C 126.095 157.681,127.518 156.217,128.071 156.217 C 128.321 156.217,129.515 155.031,130.725 153.581 C 131.935 152.131,133.360 150.752,133.892 150.516 C 134.424 150.281,134.948 149.810,135.056 149.469 C 135.275 148.780,138.633 145.359,139.091 145.359 C 139.251 145.359,140.023 144.492,140.806 143.433 C 141.588 142.373,142.435 141.506,142.686 141.506 C 143.300 141.506,145.976 138.619,146.403 137.495 C 146.591 137.002,147.260 136.349,147.890 136.045 C 148.521 135.740,149.814 134.491,150.764 133.270 C 151.735 132.021,153.053 130.776,153.776 130.424 C 154.483 130.081,155.251 129.371,155.482 128.847 C 155.714 128.323,156.999 127.010,158.337 125.929 C 159.676 124.848,160.771 123.754,160.771 123.500 C 160.771 122.751,162.169 121.191,162.841 121.191 C 163.181 121.191,164.391 120.331,165.530 119.280 C 167.979 117.021,167.612 117.130,169.054 118.229 " stroke="none" fill="#ffffff" fill-rule="evenodd"></path><path id="path1" d="M6.201 6.232 L 4.904 7.560 4.904 175.233 L 4.904 342.905 6.170 344.307 L 7.437 345.709 197.406 345.709 L 387.376 345.709 389.572 344.983 C 392.254 344.096,393.996 342.819,393.445 342.143 C 391.962 340.324,390.635 332.826,390.016 322.767 C 389.525 314.777,389.026 312.057,387.779 310.554 C 387.540 310.266,387.204 309.113,387.033 307.992 C 386.862 306.871,386.399 304.162,386.005 301.972 C 385.611 299.781,385.289 297.000,385.289 295.792 C 385.289 290.597,384.037 281.900,383.079 280.438 C 381.699 278.332,381.074 274.599,380.375 264.273 C 379.829 256.205,379.183 252.362,377.933 249.733 C 376.696 247.131,375.567 240.100,375.319 233.450 C 375.071 226.800,374.350 221.969,373.246 219.568 C 371.686 216.172,370.568 209.952,370.074 201.926 C 369.588 194.045,369.387 192.349,368.725 190.543 C 368.336 189.483,367.810 188.296,367.556 187.904 C 367.302 187.513,366.937 186.094,366.745 184.752 C 366.553 183.410,366.231 181.451,366.030 180.399 C 365.829 179.347,365.433 175.249,365.151 171.292 C 364.602 163.599,363.954 159.671,363.072 158.697 C 361.892 157.392,361.097 152.733,360.410 143.082 C 359.739 133.670,359.518 132.323,357.646 126.270 C 356.005 120.966,355.499 117.658,355.180 110.158 C 354.861 102.664,354.152 98.760,352.879 97.487 C 352.619 97.227,352.300 96.268,352.171 95.355 C 352.041 94.442,351.726 92.750,351.470 91.594 C 350.822 88.664,350.349 84.610,350.085 79.721 C 349.706 72.689,349.099 69.099,347.844 66.473 C 346.993 64.692,346.638 63.331,346.384 60.874 C 346.199 59.088,345.894 56.679,345.706 55.521 C 345.518 54.363,345.360 52.233,345.355 50.788 C 345.338 46.207,343.909 37.522,342.970 36.298 C 341.923 34.933,340.456 26.667,340.452 22.115 C 340.447 15.668,339.344 7.784,338.401 7.451 C 338.086 7.340,337.592 7.050,337.303 6.807 C 337.014 6.564,335.797 6.036,334.599 5.634 L 332.421 4.904 169.960 4.904 L 7.498 4.904 6.201 6.232 M357.618 78.966 C 357.618 79.063,358.091 79.386,358.669 79.685 C 359.247 79.984,359.720 80.149,359.720 80.053 C 359.720 79.957,359.247 79.633,358.669 79.335 C 358.091 79.036,357.618 78.870,357.618 78.966 M169.827 97.624 C 170.088 97.885,171.386 98.806,172.712 99.671 C 174.313 100.716,175.197 101.540,175.344 102.125 C 175.465 102.609,176.132 103.432,176.825 103.954 C 178.732 105.390,180.639 107.374,180.898 108.190 C 181.025 108.591,181.666 109.174,182.322 109.485 C 182.978 109.797,184.403 111.100,185.488 112.381 C 186.574 113.663,187.910 114.905,188.457 115.142 C 189.008 115.380,189.712 116.118,190.032 116.793 C 190.637 118.068,192.954 120.316,194.308 120.940 C 194.741 121.139,195.362 121.908,195.688 122.648 C 196.015 123.388,196.460 123.993,196.677 123.993 C 197.334 123.993,199.940 126.406,201.094 128.084 C 201.691 128.951,202.595 129.817,203.103 130.008 C 203.612 130.200,204.737 131.328,205.604 132.516 C 206.569 133.838,207.697 134.928,208.512 135.326 C 209.459 135.789,210.000 136.370,210.389 137.340 C 210.689 138.090,211.045 138.704,211.180 138.704 C 211.731 138.704,215.277 142.016,215.818 143.036 C 216.138 143.639,216.898 144.348,217.507 144.612 C 218.155 144.892,219.367 146.096,220.428 147.516 C 221.436 148.864,222.597 150.031,223.041 150.143 C 223.481 150.254,224.311 151.028,224.886 151.864 C 225.461 152.699,226.890 154.121,228.061 155.022 C 229.286 155.964,230.342 157.093,230.545 157.676 C 230.740 158.234,231.315 158.907,231.824 159.172 C 233.014 159.793,235.214 162.002,236.204 163.573 C 236.629 164.247,237.305 164.846,237.706 164.904 C 238.118 164.964,239.257 166.060,240.321 167.419 C 241.358 168.743,242.708 170.067,243.320 170.360 C 243.933 170.653,244.682 171.413,244.986 172.049 C 245.290 172.685,246.635 174.059,247.975 175.104 C 249.367 176.189,250.557 177.421,250.752 177.979 C 250.966 178.595,251.537 179.141,252.296 179.459 C 253.024 179.763,254.299 180.950,255.515 182.454 C 256.740 183.971,257.887 185.037,258.445 185.177 C 259.510 185.444,260.358 186.389,261.821 188.938 C 262.399 189.945,263.159 191.180,263.510 191.683 C 264.186 192.653,263.861 194.028,262.947 194.060 C 262.475 194.077,260.032 197.106,259.669 198.125 C 259.075 199.793,258.554 200.000,254.951 200.000 C 251.272 200.000,250.991 199.878,249.485 197.636 C 249.194 197.202,248.751 196.848,248.500 196.848 C 248.250 196.848,247.992 196.692,247.928 196.501 C 247.863 196.311,247.376 196.508,246.844 196.939 C 245.896 197.708,244.808 202.611,245.380 203.537 C 245.485 203.706,245.572 218.197,245.573 235.741 C 245.577 270.970,245.672 269.465,243.421 270.092 C 242.005 270.487,187.766 270.432,186.041 270.034 C 181.413 268.967,181.555 270.118,181.787 235.552 C 181.995 204.564,182.175 206.825,179.393 205.582 C 177.278 204.637,158.452 204.541,156.599 205.466 C 154.757 206.385,154.786 205.852,154.834 237.550 C 154.883 270.184,155.010 268.170,152.813 269.610 C 151.793 270.278,106.291 270.773,96.425 270.222 L 92.150 269.984 91.249 268.802 L 90.347 267.621 90.270 232.772 C 90.185 194.702,90.328 197.184,88.199 196.663 C 87.215 196.422,86.868 196.685,84.949 199.124 C 83.476 200.997,78.121 200.319,76.582 198.064 C 76.169 197.460,75.235 196.070,74.505 194.976 L 73.178 192.986 73.914 190.516 C 74.700 187.876,76.607 185.289,77.768 185.289 C 78.114 185.289,78.804 184.777,79.301 184.151 C 80.717 182.368,83.478 179.698,84.117 179.494 C 84.435 179.392,84.944 178.786,85.247 178.148 C 85.550 177.509,86.393 176.582,87.120 176.087 C 88.968 174.829,90.624 173.176,91.250 171.966 C 91.542 171.401,92.178 170.839,92.662 170.717 C 93.146 170.596,94.000 169.845,94.559 169.049 C 96.195 166.719,97.349 165.535,98.535 164.971 C 99.146 164.681,99.883 163.946,100.173 163.336 C 100.463 162.727,101.173 161.862,101.751 161.413 C 104.620 159.186,105.779 158.025,105.779 157.381 C 105.779 157.131,106.370 156.550,107.093 156.091 C 108.436 155.236,109.893 153.762,111.365 151.767 C 111.820 151.149,112.642 150.487,113.191 150.295 C 113.755 150.099,114.341 149.549,114.538 149.032 C 114.946 147.959,118.087 144.802,119.050 144.496 C 119.416 144.380,119.911 143.810,120.152 143.228 C 120.393 142.647,121.263 141.709,122.085 141.143 C 123.726 140.014,126.095 137.422,126.095 136.754 C 126.095 136.522,126.634 136.076,127.293 135.763 C 127.952 135.451,129.322 134.151,130.337 132.876 C 131.387 131.556,132.674 130.351,133.324 130.080 C 134.009 129.793,134.685 129.140,135.014 128.446 C 135.316 127.810,136.574 126.509,137.809 125.554 C 139.045 124.599,140.213 123.394,140.406 122.875 C 140.598 122.356,141.357 121.549,142.094 121.081 C 143.489 120.193,144.986 118.663,146.354 116.726 C 146.795 116.100,147.546 115.491,148.021 115.371 C 148.497 115.252,149.102 114.739,149.367 114.232 C 150.057 112.908,152.328 110.590,153.816 109.691 C 154.519 109.267,155.189 108.539,155.306 108.073 C 155.423 107.608,156.030 106.867,156.656 106.427 C 158.395 105.205,160.771 102.912,160.771 102.456 C 160.771 101.923,162.155 100.665,163.047 100.388 C 163.433 100.268,164.614 99.233,165.673 98.088 C 167.744 95.848,168.014 95.818,169.827 97.624 M364.668 110.201 C 365.174 110.755,365.771 111.563,365.994 111.996 C 366.217 112.430,366.591 112.782,366.825 112.779 C 367.115 112.776,367.130 112.692,366.874 112.517 C 366.667 112.375,366.215 111.773,365.870 111.180 C 365.525 110.586,364.906 109.896,364.495 109.647 C 363.877 109.272,363.907 109.368,364.668 110.201 M165.530 119.280 C 164.391 120.331,163.181 121.191,162.841 121.191 C 162.169 121.191,160.771 122.751,160.771 123.500 C 160.771 123.754,159.676 124.848,158.337 125.929 C 156.999 127.010,155.714 128.323,155.482 128.847 C 155.251 129.371,154.483 130.081,153.776 130.424 C 153.053 130.776,151.735 132.021,150.764 133.270 C 149.814 134.491,148.521 135.740,147.890 136.045 C 147.260 136.349,146.591 137.002,146.403 137.495 C 145.976 138.619,143.300 141.506,142.686 141.506 C 142.435 141.506,141.588 142.373,140.806 143.433 C 140.023 144.492,139.251 145.359,139.091 145.359 C 138.633 145.359,135.275 148.780,135.056 149.469 C 134.948 149.810,134.424 150.281,133.892 150.516 C 133.360 150.752,131.935 152.131,130.725 153.581 C 129.515 155.031,128.321 156.217,128.071 156.217 C 127.518 156.217,126.095 157.681,126.095 158.249 C 126.095 158.475,124.918 159.626,123.479 160.807 C 122.040 161.988,120.661 163.410,120.414 163.968 C 120.167 164.526,119.692 165.069,119.358 165.175 C 118.588 165.419,115.784 168.210,115.036 169.476 C 114.724 170.004,114.002 170.643,113.432 170.896 C 112.862 171.148,112.032 171.929,111.589 172.632 C 110.625 174.158,108.074 176.532,107.397 176.532 C 105.164 176.532,105.080 178.126,105.079 220.290 L 105.079 257.919 106.349 259.082 L 107.619 260.245 122.122 260.245 C 137.422 260.245,138.086 260.183,139.482 258.614 C 140.041 257.985,140.091 255.583,140.182 225.203 C 140.285 190.966,140.249 191.731,141.775 190.893 C 143.552 189.918,191.989 189.928,193.957 190.904 C 195.981 191.908,195.842 189.454,195.911 225.483 L 195.972 257.714 196.848 258.436 C 198.518 259.814,200.327 259.995,213.969 260.146 C 227.898 260.301,228.273 260.265,229.825 258.613 L 230.648 257.737 230.648 218.448 C 230.648 196.839,230.533 178.752,230.393 178.254 C 230.244 177.726,229.132 176.557,227.724 175.452 C 226.396 174.409,225.014 173.004,224.651 172.329 C 224.289 171.655,223.520 170.892,222.942 170.633 C 222.364 170.375,221.109 169.159,220.154 167.931 C 219.198 166.703,217.980 165.517,217.446 165.296 C 216.913 165.075,216.063 164.243,215.558 163.446 C 215.053 162.649,213.730 161.287,212.618 160.420 C 211.433 159.497,210.349 158.300,210.001 157.531 C 209.674 156.808,209.218 156.217,208.988 156.217 C 208.442 156.217,205.309 153.255,204.079 151.576 C 203.550 150.854,202.849 150.261,202.522 150.260 C 202.194 150.258,201.078 149.168,200.040 147.838 C 199.003 146.507,197.656 145.150,197.047 144.822 C 196.438 144.494,195.588 143.614,195.158 142.866 C 194.727 142.118,194.256 141.506,194.110 141.506 C 193.964 141.506,193.141 140.880,192.282 140.115 C 191.422 139.350,190.610 138.719,190.479 138.714 C 190.347 138.709,190.132 138.349,190.001 137.916 C 189.700 136.923,188.463 135.552,187.868 135.552 C 187.619 135.552,186.620 134.567,185.646 133.363 C 183.177 130.308,182.801 129.947,182.084 129.947 C 181.738 129.947,181.211 129.477,180.914 128.902 C 180.274 127.666,178.552 125.896,176.866 124.742 C 176.201 124.287,175.384 123.341,175.051 122.640 C 174.478 121.434,173.371 120.551,171.188 119.560 C 170.657 119.318,169.696 118.720,169.054 118.229 C 167.612 117.130,167.979 117.021,165.530 119.280 " stroke="none" fill="#0056bf" fill-rule="evenodd"></path></g></svg>